TwilioSansMono-Medium.ufo
<glyph name="numbersign" format="2">
	<unicode hex="0023"/>
	<advance width="600"/>
	<outline>
		<contour>
			<point x="31" y="249" type="line"/>
			<point x="31" y="164" type="line"/>
			<point x="131" y="164" type="line"/>
			<point x="115" y="0" type="line"/>
			<point x="204" y="0" type="line"/>
			<point x="219" y="164" type="line"/>
			<point x="348" y="164" type="line"/>
			<point x="332" y="0" type="line"/>
			<point x="420" y="0" type="line"/>
			<point x="436" y="164" type="line"/>
			<point x="546" y="164" type="line"/>
			<point x="546" y="249" type="line"/>
			<point x="444" y="249" type="line"/>
			<point x="463" y="445" type="line"/>
			<point x="569" y="445" type="line"/>
			<point x="569" y="531" type="line"/>
			<point x="471" y="531" type="line"/>
			<point x="486" y="684" type="line"/>
			<point x="397" y="684" type="line"/>
			<point x="382" y="531" type="line"/>
			<point x="254" y="531" type="line"/>
			<point x="268" y="684" type="line"/>
			<point x="180" y="684" type="line"/>
			<point x="165" y="531" type="line"/>
			<point x="55" y="531" type="line"/>
			<point x="55" y="445" type="line"/>
			<point x="157" y="445" type="line"/>
			<point x="139" y="249" type="line"/>
		</contour>
		<contour>
			<point x="227" y="249" type="line"/>
			<point x="246" y="445" type="line"/>
			<point x="374" y="445" type="line"/>
			<point x="356" y="249" type="line"/>
		</contour>
	</outline>
</glyph>
<glyph name="percent" format="2">
	<unicode hex="0025"/>
	<advance width="600"/>
	<outline>
		<contour>
			<point x="167" y="338" type="curve" smooth="yes"/>
			<point x="256" y="338"/>
			<point x="313" y="397"/>
			<point x="313" y="517" type="curve" smooth="yes"/>
			<point x="313" y="637"/>
			<point x="256" y="696"/>
			<point x="167" y="696" type="curve" smooth="yes"/>
			<point x="77" y="696"/>
			<point x="21" y="636"/>
			<point x="21" y="516" type="curve" smooth="yes"/>
			<point x="21" y="398"/>
			<point x="77" y="338"/>
		</contour>
		<contour>
			<point x="376" y="415" type="line"/>
			<point x="472" y="415" type="line"/>
			<point x="580" y="684" type="line"/>
			<point x="468" y="684" type="line"/>
		</contour>
		<contour>
			<point x="167" y="396" type="curve" smooth="yes"/>
			<point x="128" y="396"/>
			<point x="105" y="429"/>
			<point x="105" y="516" type="curve" smooth="yes"/>
			<point x="105" y="605"/>
			<point x="127" y="639"/>
			<point x="167" y="639" type="curve" smooth="yes"/>
			<point x="206" y="639"/>
			<point x="229" y="605"/>
			<point x="229" y="517" type="curve" smooth="yes"/>
			<point x="229" y="429"/>
			<point x="206" y="396"/>
		</contour>
		<contour>
			<point x="433" y="-12" type="curve" smooth="yes"/>
			<point x="524" y="-12"/>
			<point x="579" y="45"/>
			<point x="579" y="167" type="curve" smooth="yes"/>
			<point x="579" y="287"/>
			<point x="522" y="346"/>
			<point x="433" y="346" type="curve" smooth="yes"/>
			<point x="344" y="346"/>
			<point x="287" y="287"/>
			<point x="287" y="166" type="curve" smooth="yes"/>
			<point x="287" y="46"/>
			<point x="340" y="-12"/>
		</contour>
		<contour>
			<point x="433" y="46" type="curve" smooth="yes"/>
			<point x="394" y="46"/>
			<point x="371" y="77"/>
			<point x="371" y="166" type="curve" smooth="yes"/>
			<point x="371" y="256"/>
			<point x="394" y="289"/>
			<point x="433" y="289" type="curve" smooth="yes"/>
			<point x="472" y="289"/>
			<point x="495" y="255"/>
			<point x="495" y="167" type="curve" smooth="yes"/>
			<point x="495" y="78"/>
			<point x="473" y="46"/>
		</contour>
		<contour>
			<point x="20" y="0" type="line"/>
			<point x="132" y="0" type="line"/>
			<point x="225" y="269" type="line"/>
			<point x="128" y="269" type="line"/>
		</contour>
	</outline>
	<guideline x="143.7841726619" y="343.928057554" angle="0" identifier="FA9IgWR5S7"/>
	<guideline x="261.6115107914" y="388.2374100719" angle="90" identifier="WyK0xwaOpL"/>
	<guideline x="181.4028776978" y="576.4028776978" angle="0" identifier="sGiGhHXO9M"/>
	<guideline x="217.7338129496" y="613.309352518" angle="90" identifier="n6deXZh9xX"/>
</glyph>
<glyph name="parenleft" format="2">
	<unicode hex="0028"/>
	<advance width="600"/>
	<outline>
		<contour>
			<point x="468" y="-168" type="curve"/>
			<point x="501" y="-78" type="line"/>
			<point x="323" y="-11"/>
			<point x="261" y="116"/>
			<point x="261" y="314" type="curve" smooth="yes"/>
			<point x="261" y="508"/>
			<point x="320" y="644"/>
			<point x="501" y="707" type="curve"/>
			<point x="468" y="798" type="line"/>
			<point x="246" y="714"/>
			<point x="157" y="561"/>
			<point x="157" y="316" type="curve" smooth="yes"/>
			<point x="157" y="72"/>
			<point x="239" y="-82"/>
		</contour>
	</outline>
</glyph>
<glyph name="parenright" format="2">
	<unicode hex="0029"/>
	<advance width="600"/>
	<outline>
		<contour>
			<point x="99" y="-78" type="curve"/>
			<point x="133" y="-168" type="line"/>
			<point x="361" y="-83"/>
			<point x="443" y="73"/>
			<point x="443" y="316" type="curve" smooth="yes"/>
			<point x="443" y="557"/>
			<point x="357" y="713"/>
			<point x="133" y="798" type="curve"/>
			<point x="99" y="707" type="line"/>
			<point x="282" y="643"/>
			<point x="339" y="504"/>
			<point x="339" y="314" type="curve" smooth="yes"/>
			<point x="339" y="125"/>
			<point x="283" y="-9"/>
		</contour>
	</outline>
</glyph>
<glyph name="plus" format="2">
	<unicode hex="002B"/>
	<advance width="600"/>
	<outline>
		<contour>
			<point x="251" y="528" type="line"/>
			<point x="251" y="346" type="line"/>
			<point x="71" y="346" type="line"/>
			<point x="71" y="251" type="line"/>
			<point x="251" y="251" type="line"/>
			<point x="251" y="68" type="line"/>
			<point x="349" y="68" type="line"/>
			<point x="349" y="251" type="line"/>
			<point x="529" y="251" type="line"/>
			<point x="529" y="346" type="line"/>
			<point x="349" y="346" type="line"/>
			<point x="349" y="528" type="line"/>
		</contour>
	</outline>
</glyph>
<glyph name="hyphen" format="2">
	<unicode hex="002D"/>
	<advance width="600"/>
	<outline>
		<contour>
			<point x="477" y="348" type="line"/>
			<point x="123" y="348" type="line"/>
			<point x="123" y="248" type="line"/>
			<point x="477" y="248" type="line"/>
		</contour>
	</outline>
</glyph>
<glyph name="period" format="2">
	<unicode hex="002E"/>
	<advance width="600"/>
	<outline>
		<contour>
			<point x="300" y="-12" type="curve" smooth="yes"/>
			<point x="356" y="-12"/>
			<point x="386" y="9"/>
			<point x="386" y="67" type="curve" smooth="yes"/>
			<point x="386" y="123"/>
			<point x="356" y="143"/>
			<point x="300" y="143" type="curve" smooth="yes"/>
			<point x="244" y="143"/>
			<point x="214" y="123"/>
			<point x="214" y="67" type="curve" smooth="yes"/>
			<point x="214" y="9"/>
			<point x="244" y="-12"/>
		</contour>
	</outline>
</glyph>
<glyph name="zero" format="2">
	<unicode hex="0030"/>
	<advance width="600"/>
	<outline>
		<contour>
			<point x="300" y="-14" type="curve" smooth="yes"/>
			<point x="457" y="-14"/>
			<point x="550" y="103"/>
			<point x="550" y="335" type="curve" smooth="yes"/>
			<point x="550" y="349" type="line" smooth="yes"/>
			<point x="550" y="580"/>
			<point x="457" y="698"/>
			<point x="300" y="698" type="curve" smooth="yes"/>
			<point x="143" y="698"/>
			<point x="50" y="580"/>
			<point x="50" y="349" type="curve" smooth="yes"/>
			<point x="50" y="335" type="line" smooth="yes"/>
			<point x="50" y="103"/>
			<point x="143" y="-14"/>
		</contour>
		<contour>
			<point x="300" y="79" type="curve" smooth="yes"/>
			<point x="209" y="79"/>
			<point x="156" y="153"/>
			<point x="156" y="338" type="curve" smooth="yes"/>
			<point x="156" y="345" type="line" smooth="yes"/>
			<point x="156" y="531"/>
			<point x="209" y="605"/>
			<point x="300" y="605" type="curve" smooth="yes"/>
			<point x="390" y="605"/>
			<point x="444" y="531"/>
			<point x="444" y="345" type="curve" smooth="yes"/>
			<point x="444" y="338" type="line" smooth="yes"/>
			<point x="444" y="153"/>
			<point x="390" y="79"/>
		</contour>
		<contour>
			<point x="300" y="269" type="curve" smooth="yes"/>
			<point x="341" y="269"/>
			<point x="365" y="289"/>
			<point x="365" y="342" type="curve" smooth="yes"/>
			<point x="365" y="397"/>
			<point x="341" y="417"/>
			<point x="300" y="417" type="curve" smooth="yes"/>
			<point x="259" y="417"/>
			<point x="235" y="397"/>
			<point x="235" y="342" type="curve" smooth="yes"/>
			<point x="235" y="289"/>
			<point x="259" y="269"/>
		</contour>
	</outline>
</glyph>
<glyph name="three" format="2">
	<unicode hex="0033"/>
	<advance width="600"/>
	<outline>
		<contour>
			<point x="285" y="-14" type="curve" smooth="yes"/>
			<point x="439" y="-14"/>
			<point x="531" y="79"/>
			<point x="531" y="218" type="curve" smooth="yes"/>
			<point x="531" y="346"/>
			<point x="458" y="413"/>
			<point x="317" y="413" type="curve"/>
			<point x="313" y="413" type="line"/>
			<point x="521" y="592" type="line"/>
			<point x="521" y="684" type="line"/>
			<point x="68" y="684" type="line"/>
			<point x="68" y="591" type="line"/>
			<point x="381" y="591" type="line"/>
			<point x="150" y="384" type="line"/>
			<point x="150" y="307" type="line"/>
			<point x="181" y="320"/>
			<point x="221" y="329"/>
			<point x="272" y="329" type="curve" smooth="yes"/>
			<point x="369" y="329"/>
			<point x="417" y="294"/>
			<point x="417" y="213" type="curve" smooth="yes"/>
			<point x="417" y="137"/>
			<point x="372" y="80"/>
			<point x="277" y="80" type="curve" smooth="yes"/>
			<point x="209" y="80"/>
			<point x="135" y="105"/>
			<point x="66" y="158" type="curve"/>
			<point x="66" y="54" type="line"/>
			<point x="111" y="22"/>
			<point x="182" y="-14"/>
		</contour>
	</outline>
</glyph>
<glyph name="five" format="2">
	<unicode hex="0035"/>
	<advance width="600"/>
	<outline>
		<contour>
			<point x="292" y="-14" type="curve" smooth="yes"/>
			<point x="437" y="-14"/>
			<point x="531" y="77"/>
			<point x="531" y="221" type="curve" smooth="yes"/>
			<point x="531" y="353"/>
			<point x="457" y="420"/>
			<point x="316" y="420" type="curve" smooth="yes"/>
			<point x="269" y="420"/>
			<point x="231" y="415"/>
			<point x="197" y="406" type="curve"/>
			<point x="198" y="591" type="line"/>
			<point x="517" y="591" type="line"/>
			<point x="517" y="684" type="line"/>
			<point x="95" y="684" type="line"/>
			<point x="95" y="298" type="line"/>
			<point x="147" y="319"/>
			<point x="203" y="333"/>
			<point x="270" y="333" type="curve" smooth="yes"/>
			<point x="376" y="333"/>
			<point x="417" y="289"/>
			<point x="417" y="214" type="curve" smooth="yes"/>
			<point x="417" y="130"/>
			<point x="369" y="80"/>
			<point x="283" y="80" type="curve" smooth="yes"/>
			<point x="220" y="80"/>
			<point x="144" y="102"/>
			<point x="70" y="161" type="curve"/>
			<point x="70" y="58" type="line"/>
			<point x="121" y="17"/>
			<point x="191" y="-14"/>
		</contour>
	</outline>
</glyph>
<glyph name="eight" format="2">
	<unicode hex="0038"/>
	<advance width="600"/>
	<outline>
		<contour>
			<point x="300" y="-14" type="curve" smooth="yes"/>
			<point x="453" y="-14"/>
			<point x="555" y="48"/>
			<point x="555" y="182" type="curve" smooth="yes"/>
			<point x="555" y="289"/>
			<point x="487" y="335"/>
			<point x="414" y="350" type="curve"/>
			<point x="485" y="364"/>
			<point x="543" y="421"/>
			<point x="543" y="510" type="curve" smooth="yes"/>
			<point x="543" y="643"/>
			<point x="444" y="698"/>
			<point x="301" y="698" type="curve" smooth="yes"/>
			<point x="156" y="698"/>
			<point x="57" y="640"/>
			<point x="57" y="510" type="curve" smooth="yes"/>
			<point x="57" y="419"/>
			<point x="116" y="364"/>
			<point x="187" y="350" type="curve"/>
			<point x="113" y="335"/>
			<point x="45" y="288"/>
			<point x="45" y="181" type="curve" smooth="yes"/>
			<point x="45" y="47"/>
			<point x="146" y="-14"/>
		</contour>
		<contour>
			<point x="301" y="392" type="curve" smooth="yes"/>
			<point x="223" y="392"/>
			<point x="168" y="421"/>
			<point x="168" y="501" type="curve"/>
			<point x="168" y="582"/>
			<point x="223" y="611"/>
			<point x="300" y="611" type="curve" smooth="yes"/>
			<point x="378" y="611"/>
			<point x="433" y="582"/>
			<point x="433" y="501" type="curve"/>
			<point x="433" y="421"/>
			<point x="378" y="392"/>
		</contour>
		<contour>
			<point x="300" y="74" type="curve" smooth="yes"/>
			<point x="216" y="74"/>
			<point x="159" y="109"/>
			<point x="159" y="195" type="curve" smooth="yes"/>
			<point x="159" y="279"/>
			<point x="215" y="306"/>
			<point x="300" y="306" type="curve" smooth="yes"/>
			<point x="385" y="306"/>
			<point x="441" y="279"/>
			<point x="441" y="195" type="curve" smooth="yes"/>
			<point x="441" y="109"/>
			<point x="383" y="74"/>
		</contour>
	</outline>
</glyph>
<glyph name="greater" format="2">
	<unicode hex="003E"/>
	<advance width="600"/>
	<outline>
		<contour>
			<point x="71" y="29" type="line"/>
			<point x="529" y="238" type="line"/>
			<point x="529" y="360" type="line"/>
			<point x="71" y="569" type="line"/>
			<point x="71" y="460" type="line"/>
			<point x="438" y="299" type="line"/>
			<point x="71" y="139" type="line"/>
		</contour>
	</outline>
</glyph>
<glyph name="question" format="2">
	<unicode hex="003F"/>
	<advance width="600"/>
	<outline>
		<contour>
			<point x="217" y="212" type="curve"/>
			<point x="315" y="212" type="line"/>
			<point x="315" y="249" type="line" smooth="yes"/>
			<point x="318" y="361"/>
			<point x="502" y="379"/>
			<point x="502" y="539" type="curve" smooth="yes"/>
			<point x="502" y="631"/>
			<point x="435" y="698"/>
			<point x="296" y="698" type="curve" smooth="yes"/>
			<point x="198" y="698"/>
			<point x="131" y="665"/>
			<point x="96" y="643" type="curve"/>
			<point x="96" y="543" type="line"/>
			<point x="138" y="574"/>
			<point x="201" y="602"/>
			<point x="274" y="602" type="curve" smooth="yes"/>
			<point x="355" y="602"/>
			<point x="390" y="568"/>
			<point x="390" y="521" type="curve" smooth="yes"/>
			<point x="390" y="414"/>
			<point x="212" y="403"/>
			<point x="212" y="250" type="curve" smooth="yes"/>
			<point x="212" y="236"/>
			<point x="213" y="226"/>
		</contour>
		<contour>
			<point x="266" y="-12" type="curve" smooth="yes"/>
			<point x="318" y="-12"/>
			<point x="345" y="8"/>
			<point x="345" y="58" type="curve" smooth="yes"/>
			<point x="345" y="109"/>
			<point x="319" y="129"/>
			<point x="266" y="129" type="curve" smooth="yes"/>
			<point x="213" y="129"/>
			<point x="187" y="109"/>
			<point x="187" y="58" type="curve" smooth="yes"/>
			<point x="187" y="8"/>
			<point x="214" y="-12"/>
		</contour>
	</outline>
</glyph>
<glyph name="at" format="2">
	<unicode hex="0040"/>
	<advance width="600"/>
	<outline>
		<contour>
			<point x="373" y="-135" type="curve" smooth="yes"/>
			<point x="449" y="-135"/>
			<point x="509" y="-115"/>
			<point x="548" y="-92" type="curve"/>
			<point x="548" y="-7" type="line"/>
			<point x="503" y="-32"/>
			<point x="450" y="-46"/>
			<point x="375" y="-46" type="curve" smooth="yes"/>
			<point x="197" y="-46"/>
			<point x="135" y="84"/>
			<point x="135" y="283" type="curve" smooth="yes"/>
			<point x="135" y="290" type="line" smooth="yes"/>
			<point x="135" y="502"/>
			<point x="194" y="611"/>
			<point x="320" y="611" type="curve" smooth="yes"/>
			<point x="423" y="611"/>
			<point x="454" y="556"/>
			<point x="454" y="460" type="curve" smooth="yes"/>
			<point x="454" y="402" type="line"/>
			<point x="436" y="456"/>
			<point x="398" y="491"/>
			<point x="344" y="491" type="curve" smooth="yes"/>
			<point x="258" y="491"/>
			<point x="198" y="414"/>
			<point x="198" y="275" type="curve" smooth="yes"/>
			<point x="198" y="143"/>
			<point x="250" y="62"/>
			<point x="341" y="62" type="curve" smooth="yes"/>
			<point x="402" y="62"/>
			<point x="439" y="102"/>
			<point x="455" y="163" type="curve"/>
			<point x="455" y="66" type="line"/>
			<point x="548" y="66" type="line"/>
			<point x="548" y="465" type="line" smooth="yes"/>
			<point x="548" y="618"/>
			<point x="485" y="698"/>
			<point x="323" y="698" type="curve" smooth="yes"/>
			<point x="132" y="698"/>
			<point x="38" y="546"/>
			<point x="38" y="294" type="curve" smooth="yes"/>
			<point x="38" y="280" type="line" smooth="yes"/>
			<point x="38" y="1"/>
			<point x="152" y="-135"/>
		</contour>
		<contour>
			<point x="373" y="140" type="curve" smooth="yes"/>
			<point x="319" y="140"/>
			<point x="291" y="186"/>
			<point x="291" y="277" type="curve" smooth="yes"/>
			<point x="291" y="367"/>
			<point x="319" y="415"/>
			<point x="373" y="415" type="curve" smooth="yes"/>
			<point x="423" y="415"/>
			<point x="457" y="364"/>
			<point x="457" y="275" type="curve" smooth="yes"/>
			<point x="457" y="182"/>
			<point x="426" y="140"/>
		</contour>
	</outline>
</glyph>
<glyph name="B" format="2">
	<unicode hex="0042"/>
	<advance width="600"/>
	<outline>
		<contour>
			<point x="345" y="686" type="curve" smooth="yes"/>
			<point x="72" y="686" type="line"/>
			<point x="72" y="0" type="line"/>
			<point x="343" y="0" type="line" smooth="yes"/>
			<point x="482" y="0"/>
			<point x="554" y="82"/>
			<point x="554" y="187" type="curve" smooth="yes"/>
			<point x="554" y="282"/>
			<point x="503" y="338"/>
			<point x="401" y="352" type="curve"/>
			<point x="488" y="369"/>
			<point x="542" y="427"/>
			<point x="542" y="513" type="curve" smooth="yes"/>
			<point x="542" y="621"/>
			<point x="477" y="686"/>
		</contour>
		<contour>
			<point x="320" y="596" type="line" smooth="yes"/>
			<point x="397" y="596"/>
			<point x="428" y="556"/>
			<point x="428" y="496" type="curve" smooth="yes"/>
			<point x="428" y="436"/>
			<point x="391" y="390"/>
			<point x="320" y="390" type="curve" smooth="yes"/>
			<point x="184" y="390" type="line"/>
			<point x="184" y="596" type="line"/>
		</contour>
		<contour>
			<point x="318" y="301" type="line" smooth="yes"/>
			<point x="404" y="301"/>
			<point x="436" y="256"/>
			<point x="436" y="198" type="curve" smooth="yes"/>
			<point x="436" y="142"/>
			<point x="411" y="92"/>
			<point x="320" y="92" type="curve" smooth="yes"/>
			<point x="184" y="92" type="line"/>
			<point x="184" y="301" type="line"/>
		</contour>
	</outline>
	<anchor name="top" x="306" y="684"/>
	<anchor name="bottom" x="321" y="0"/>
</glyph>
<glyph name="C" format="2">
	<unicode hex="0043"/>
	<advance width="600"/>
	<outline>
		<contour>
			<point x="378" y="-12" type="curve" smooth="yes"/>
			<point x="447" y="-12"/>
			<point x="496" y="0"/>
			<point x="540" y="28" type="curve"/>
			<point x="540" y="121" type="line"/>
			<point x="492" y="91"/>
			<point x="435" y="84"/>
			<point x="391" y="84" type="curve" smooth="yes"/>
			<point x="257" y="84"/>
			<point x="174" y="165"/>
			<point x="174" y="339" type="curve" smooth="yes"/>
			<point x="174" y="346" type="line" smooth="yes"/>
			<point x="174" y="518"/>
			<point x="256" y="601"/>
			<point x="396" y="601" type="curve" smooth="yes"/>
			<point x="446" y="601"/>
			<point x="494" y="591"/>
			<point x="538" y="567" type="curve"/>
			<point x="538" y="666" type="line"/>
			<point x="498" y="684"/>
			<point x="447" y="696"/>
			<point x="380" y="696" type="curve" smooth="yes"/>
			<point x="189" y="696"/>
			<point x="57" y="571"/>
			<point x="57" y="350" type="curve" smooth="yes"/>
			<point x="57" y="336" type="line" smooth="yes"/>
			<point x="57" y="109"/>
			<point x="177" y="-12"/>
		</contour>
	</outline>
	<anchor name="top" x="372" y="684"/>
	<anchor name="bottom" x="360" y="0"/>
</glyph>
<glyph name="D" format="2">
	<unicode hex="0044"/>
	<advance width="600"/>
	<outline>
		<contour>
			<point x="65" y="0" type="line"/>
			<point x="288" y="0" type="line" smooth="yes"/>
			<point x="457" y="0"/>
			<point x="558" y="105"/>
			<point x="558" y="335" type="curve" smooth="yes"/>
			<point x="558" y="349" type="line" smooth="yes"/>
			<point x="558" y="580"/>
			<point x="453" y="684"/>
			<point x="284" y="684" type="curve" smooth="yes"/>
			<point x="65" y="684" type="line"/>
		</contour>
		<contour>
			<point x="268" y="591" type="line" smooth="yes"/>
			<point x="380" y="591"/>
			<point x="440" y="519"/>
			<point x="440" y="349" type="curve" smooth="yes"/>
			<point x="440" y="336" type="line" smooth="yes"/>
			<point x="440" y="166"/>
			<point x="386" y="94"/>
			<point x="271" y="94" type="curve" smooth="yes"/>
			<point x="178" y="94" type="line"/>
			<point x="178" y="591" type="line"/>
		</contour>
	</outline>
	<anchor name="center" x="159" y="342"/>
	<anchor name="bottom" x="317" y="0"/>
	<anchor name="top" x="272" y="684"/>
</glyph>
<glyph name="F" format="2">
	<unicode hex="0046"/>
	<advance width="600"/>
	<outline>
		<contour>
			<point x="90" y="0" type="line"/>
			<point x="203" y="0" type="line"/>
			<point x="203" y="288" type="line"/>
			<point x="505" y="288" type="line"/>
			<point x="505" y="381" type="line"/>
			<point x="203" y="381" type="line"/>
			<point x="203" y="591" type="line"/>
			<point x="543" y="591" type="line"/>
			<point x="543" y="684" type="line"/>
			<point x="90" y="684" type="line"/>
		</contour>
	</outline>
	<anchor name="ogonek" x="567" y="0"/>
	<anchor name="bottom" x="330" y="0"/>
	<anchor name="top" x="321" y="684"/>
</glyph>
<glyph name="G" format="2">
	<unicode hex="0047"/>
	<advance width="600"/>
	<outline>
		<contour>
			<point x="303" y="-14" type="curve" smooth="yes"/>
			<point x="454" y="-14"/>
			<point x="557" y="89"/>
			<point x="557" y="293" type="curve" smooth="yes"/>
			<point x="557" y="384" type="line"/>
			<point x="286" y="384" type="line"/>
			<point x="286" y="293" type="line"/>
			<point x="445" y="293" type="line"/>
			<point x="445" y="279" type="line" smooth="yes"/>
			<point x="445" y="146"/>
			<point x="391" y="79"/>
			<point x="306" y="79" type="curve" smooth="yes"/>
			<point x="207" y="79"/>
			<point x="153" y="153"/>
			<point x="153" y="335" type="curve" smooth="yes"/>
			<point x="153" y="342" type="line" smooth="yes"/>
			<point x="153" y="519"/>
			<point x="203" y="605"/>
			<point x="337" y="605" type="curve" smooth="yes"/>
			<point x="406" y="605"/>
			<point x="471" y="582"/>
			<point x="518" y="543" type="curve"/>
			<point x="518" y="647" type="line"/>
			<point x="479" y="675"/>
			<point x="412" y="698"/>
			<point x="328" y="698" type="curve" smooth="yes"/>
			<point x="131" y="698"/>
			<point x="37" y="569"/>
			<point x="37" y="345" type="curve" smooth="yes"/>
			<point x="37" y="331" type="line" smooth="yes"/>
			<point x="37" y="99"/>
			<point x="130" y="-14"/>
		</contour>
	</outline>
	<anchor name="top" x="318" y="684"/>
	<anchor name="bottom" x="306" y="0"/>
</glyph>
<glyph name="H" format="2">
	<unicode hex="0048"/>
	<advance width="600"/>
	<outline>
		<contour>
			<point x="68" y="0" type="line"/>
			<point x="180" y="0" type="line"/>
			<point x="180" y="299" type="line"/>
			<point x="420" y="299" type="line"/>
			<point x="420" y="0" type="line"/>
			<point x="532" y="0" type="line"/>
			<point x="532" y="684" type="line"/>
			<point x="420" y="684" type="line"/>
			<point x="420" y="394" type="line"/>
			<point x="180" y="394" type="line"/>
			<point x="180" y="684" type="line"/>
			<point x="68" y="684" type="line"/>
		</contour>
	</outline>
	<anchor name="center" x="300" y="528"/>
	<anchor name="bottom" x="290" y="0"/>
	<anchor name="top" x="300" y="684"/>
</glyph>
<glyph name="J" format="2">
	<unicode hex="004A"/>
	<advance width="600"/>
	<outline>
		<contour>
			<point x="256" y="-12" type="curve" smooth="yes"/>
			<point x="404" y="-12"/>
			<point x="509" y="54"/>
			<point x="509" y="222" type="curve" smooth="yes"/>
			<point x="509" y="684" type="line"/>
			<point x="81" y="684" type="line"/>
			<point x="81" y="587" type="line"/>
			<point x="396" y="587" type="line"/>
			<point x="396" y="235" type="line" smooth="yes"/>
			<point x="396" y="129"/>
			<point x="341" y="83"/>
			<point x="238" y="83" type="curve" smooth="yes"/>
			<point x="182" y="83"/>
			<point x="126" y="97"/>
			<point x="81" y="119" type="curve"/>
			<point x="80" y="22" type="line"/>
			<point x="127" y="1"/>
			<point x="181" y="-12"/>
		</contour>
	</outline>
	<anchor name="top" x="302" y="684"/>
	<anchor name="bottom" x="85" y="0"/>
</glyph>
<glyph name="L" format="2">
	<unicode hex="004C"/>
	<advance width="600"/>
	<outline>
		<contour>
			<point x="93" y="0" type="line"/>
			<point x="544" y="0" type="line"/>
			<point x="544" y="103" type="line"/>
			<point x="206" y="103" type="line"/>
			<point x="206" y="684" type="line"/>
			<point x="93" y="684" type="line"/>
		</contour>
	</outline>
	<anchor name="center" x="149" y="330"/>
	<anchor name="caron" x="334" y="684"/>
	<anchor name="top" x="149" y="684"/>
	<anchor name="bottom" x="322" y="0"/>
</glyph>
<glyph name="M" format="2">
	<unicode hex="004D"/>
	<advance width="600"/>
	<outline>
		<contour>
			<point x="51" y="0" type="line"/>
			<point x="153" y="0" type="line"/>
			<point x="153" y="294" type="line" smooth="yes"/>
			<point x="153" y="370"/>
			<point x="151" y="477"/>
			<point x="142" y="558" type="curve"/>
			<point x="150" y="558" type="line"/>
			<point x="248" y="170" type="line"/>
			<point x="352" y="170" type="line"/>
			<point x="449" y="558" type="line"/>
			<point x="459" y="558" type="line"/>
			<point x="448" y="476"/>
			<point x="447" y="386"/>
			<point x="447" y="295" type="curve" smooth="yes"/>
			<point x="447" y="0" type="line"/>
			<point x="549" y="0" type="line"/>
			<point x="549" y="684" type="line"/>
			<point x="390" y="684" type="line"/>
			<point x="303" y="297" type="line"/>
			<point x="298" y="297" type="line"/>
			<point x="209" y="684" type="line"/>
			<point x="51" y="684" type="line"/>
		</contour>
	</outline>
</glyph>
<glyph name="N" format="2">
	<unicode hex="004E"/>
	<advance width="600"/>
	<outline>
		<contour>
			<point x="67" y="0" type="line"/>
			<point x="172" y="0" type="line"/>
			<point x="172" y="312" type="line" smooth="yes"/>
			<point x="172" y="403"/>
			<point x="162" y="473"/>
			<point x="152" y="552" type="curve"/>
			<point x="159" y="552" type="line"/>
			<point x="389" y="0" type="line"/>
			<point x="533" y="0" type="line"/>
			<point x="533" y="684" type="line"/>
			<point x="428" y="684" type="line"/>
			<point x="428" y="373" type="line" smooth="yes"/>
			<point x="428" y="273"/>
			<point x="436" y="212"/>
			<point x="449" y="132" type="curve"/>
			<point x="441" y="132" type="line"/>
			<point x="211" y="684" type="line"/>
			<point x="67" y="684" type="line"/>
		</contour>
	</outline>
	<anchor name="top" x="318" y="684"/>
	<anchor name="bottom" x="277" y="0"/>
</glyph>
<glyph name="P" format="2">
	<unicode hex="0050"/>
	<advance width="600"/>
	<outline>
		<contour>
			<point x="77" y="0" type="line"/>
			<point x="189" y="0" type="line"/>
			<point x="189" y="217" type="line"/>
			<point x="335" y="217" type="line" smooth="yes"/>
			<point x="478" y="217"/>
			<point x="567" y="311"/>
			<point x="567" y="454" type="curve" smooth="yes"/>
			<point x="567" y="596"/>
			<point x="477" y="684"/>
			<point x="335" y="684" type="curve" smooth="yes"/>
			<point x="77" y="684" type="line"/>
		</contour>
		<contour>
			<point x="317" y="592" type="line" smooth="yes"/>
			<point x="408" y="592"/>
			<point x="453" y="536"/>
			<point x="453" y="453" type="curve" smooth="yes"/>
			<point x="453" y="369"/>
			<point x="409" y="309"/>
			<point x="317" y="309" type="curve" smooth="yes"/>
			<point x="189" y="309" type="line"/>
			<point x="189" y="592" type="line"/>
		</contour>
	</outline>
	<anchor name="top" x="336" y="684"/>
	<anchor name="bottom" x="184" y="0"/>
</glyph>
<glyph name="U" format="2">
	<unicode hex="0055"/>
	<advance width="600"/>
	<outline>
		<contour>
			<point x="295" y="-14" type="curve" smooth="yes"/>
			<point x="456" y="-14"/>
			<point x="534" y="77"/>
			<point x="534" y="243" type="curve" smooth="yes"/>
			<point x="534" y="684" type="line"/>
			<point x="422" y="684" type="line"/>
			<point x="422" y="243" type="line" smooth="yes"/>
			<point x="422" y="144"/>
			<point x="385" y="82"/>
			<point x="300" y="82" type="curve" smooth="yes"/>
			<point x="215" y="82"/>
			<point x="178" y="144"/>
			<point x="178" y="243" type="curve" smooth="yes"/>
			<point x="178" y="684" type="line"/>
			<point x="66" y="684" type="line"/>
			<point x="66" y="243" type="line" smooth="yes"/>
			<point x="66" y="77"/>
			<point x="137" y="-14"/>
		</contour>
	</outline>
	<anchor name="ogonek" x="393" y="0"/>
	<anchor name="bottom" x="290" y="0"/>
	<anchor name="top" x="300" y="684"/>
</glyph>
<glyph name="W" format="2">
	<unicode hex="0057"/>
	<advance width="600"/>
	<outline>
		<contour>
			<point x="87" y="0" type="line"/>
			<point x="238" y="0" type="line"/>
			<point x="295" y="394" type="line"/>
			<point x="303" y="394" type="line"/>
			<point x="362" y="0" type="line"/>
			<point x="513" y="0" type="line"/>
			<point x="571" y="684" type="line"/>
			<point x="467" y="685" type="line"/>
			<point x="429" y="122" type="line"/>
			<point x="421" y="122" type="line"/>
			<point x="362" y="532" type="line"/>
			<point x="240" y="532" type="line"/>
			<point x="181" y="122" type="line"/>
			<point x="172" y="122" type="line"/>
			<point x="133" y="684" type="line"/>
			<point x="29" y="684" type="line"/>
		</contour>
	</outline>
	<anchor name="top" x="300" y="684"/>
</glyph>
<glyph name="X" format="2">
	<unicode hex="0058"/>
	<advance width="600"/>
	<outline>
		<contour>
			<point x="24" y="0" type="line"/>
			<point x="152" y="0" type="line"/>
			<point x="298" y="279" type="line"/>
			<point x="448" y="0" type="line"/>
			<point x="576" y="0" type="line"/>
			<point x="375" y="359" type="line"/>
			<point x="562" y="684" type="line"/>
			<point x="434" y="684" type="line"/>
			<point x="300" y="440" type="line"/>
			<point x="165" y="684" type="line"/>
			<point x="38" y="684" type="line"/>
			<point x="226" y="361" type="line"/>
		</contour>
	</outline>
	<anchor name="top" x="312" y="684"/>
	<anchor name="bottom" x="318" y="0"/>
</glyph>
<glyph name="Y" format="2">
	<unicode hex="0059"/>
	<advance width="600"/>
	<outline>
		<contour>
			<point x="239" y="0" type="line"/>
			<point x="354" y="0" type="line"/>
			<point x="354" y="232" type="line"/>
			<point x="577" y="684" type="line"/>
			<point x="454" y="684" type="line"/>
			<point x="299" y="353" type="line"/>
			<point x="147" y="684" type="line"/>
			<point x="23" y="684" type="line"/>
			<point x="239" y="233" type="line"/>
		</contour>
	</outline>
	<anchor name="top" x="301" y="684"/>
	<anchor name="bottom" x="301" y="0"/>
</glyph>
<glyph name="backslash" format="2">
	<unicode hex="005C"/>
	<advance width="600"/>
	<outline>
		<contour>
			<point x="427" y="-163" type="line"/>
			<point x="538" y="-163" type="line"/>
			<point x="173" y="792" type="line"/>
			<point x="62" y="792" type="line"/>
		</contour>
	</outline>
</glyph>
<glyph name="asciicircum" format="2">
	<unicode hex="005E"/>
	<advance width="600"/>
	<outline>
		<contour>
			<point x="69" y="233" type="line"/>
			<point x="171" y="233" type="line"/>
			<point x="300" y="493" type="line"/>
			<point x="429" y="233" type="line"/>
			<point x="531" y="233" type="line"/>
			<point x="350" y="579" type="line"/>
			<point x="247" y="579" type="line"/>
		</contour>
	</outline>
</glyph>
<glyph name="underscore" format="2">
	<unicode hex="005F"/>
	<advance width="600"/>
	<outline>
		<contour>
			<point x="30" y="-90" type="line"/>
			<point x="30" y="-176" type="line"/>
			<point x="570" y="-176" type="line"/>
			<point x="570" y="-90" type="line"/>
		</contour>
	</outline>
</glyph>
<glyph name="b" format="2">
	<unicode hex="0062"/>
	<advance width="600"/>
	<outline>
		<contour>
			<point x="349" y="-14" type="curve" smooth="yes"/>
			<point x="462" y="-14"/>
			<point x="546" y="84"/>
			<point x="546" y="255" type="curve" smooth="yes"/>
			<point x="546" y="269" type="line" smooth="yes"/>
			<point x="546" y="437"/>
			<point x="472" y="537"/>
			<point x="357" y="537" type="curve" smooth="yes"/>
			<point x="278" y="537"/>
			<point x="219" y="489"/>
			<point x="185" y="416" type="curve"/>
			<point x="185" y="750" type="line"/>
			<point x="74" y="750" type="line"/>
			<point x="74" y="0" type="line"/>
			<point x="182" y="0" type="line"/>
			<point x="182" y="97" type="line"/>
			<point x="217" y="23"/>
			<point x="273" y="-14"/>
		</contour>
		<contour>
			<point x="307" y="75" type="curve" smooth="yes"/>
			<point x="230" y="75"/>
			<point x="180" y="137"/>
			<point x="180" y="258" type="curve" smooth="yes"/>
			<point x="180" y="265" type="line" smooth="yes"/>
			<point x="180" y="388"/>
			<point x="235" y="449"/>
			<point x="309" y="449" type="curve" smooth="yes"/>
			<point x="384" y="449"/>
			<point x="432" y="389"/>
			<point x="432" y="265" type="curve" smooth="yes"/>
			<point x="432" y="258" type="line" smooth="yes"/>
			<point x="432" y="136"/>
			<point x="385" y="75"/>
		</contour>
	</outline>
</glyph>
<glyph name="d" format="2">
	<unicode hex="0064"/>
	<advance width="600"/>
	<outline>
		<contour>
			<point x="245" y="-14" type="curve" smooth="yes"/>
			<point x="325" y="-14"/>
			<point x="383" y="34"/>
			<point x="417" y="107" type="curve"/>
			<point x="417" y="0" type="line"/>
			<point x="525" y="0" type="line"/>
			<point x="525" y="750" type="line"/>
			<point x="414" y="750" type="line"/>
			<point x="414" y="425" type="line"/>
			<point x="381" y="496"/>
			<point x="332" y="537"/>
			<point x="253" y="537" type="curve" smooth="yes"/>
			<point x="141" y="537"/>
			<point x="55" y="438"/>
			<point x="55" y="268" type="curve" smooth="yes"/>
			<point x="55" y="258" type="line" smooth="yes"/>
			<point x="55" y="85"/>
			<point x="125" y="-14"/>
		</contour>
		<contour>
			<point x="291" y="74" type="curve" smooth="yes"/>
			<point x="216" y="74"/>
			<point x="169" y="134"/>
			<point x="169" y="258" type="curve" smooth="yes"/>
			<point x="169" y="264" type="line" smooth="yes"/>
			<point x="169" y="387"/>
			<point x="216" y="448"/>
			<point x="293" y="448" type="curve" smooth="yes"/>
			<point x="371" y="448"/>
			<point x="420" y="386"/>
			<point x="420" y="264" type="curve" smooth="yes"/>
			<point x="420" y="258" type="line" smooth="yes"/>
			<point x="420" y="135"/>
			<point x="366" y="74"/>
		</contour>
	</outline>
	<anchor name="caron" x="620" y="773"/>
	<anchor name="center" x="423" y="628"/>
	<anchor name="top" x="348" y="550"/>
</glyph>
<glyph name="g" format="2">
	<unicode hex="0067"/>
	<advance width="600"/>
	<outline>
		<contour>
			<point x="253" y="-207" type="curve" smooth="yes"/>
			<point x="275" y="-207" type="line" smooth="yes"/>
			<point x="463" y="-207"/>
			<point x="559" y="-133"/>
			<point x="559" y="-32" type="curve" smooth="yes"/>
			<point x="559" y="56"/>
			<point x="498" y="87"/>
			<point x="389" y="87" type="curve" smooth="yes"/>
			<point x="237" y="87" type="line" smooth="yes"/>
			<point x="191" y="87"/>
			<point x="168" y="97"/>
			<point x="168" y="116" type="curve" smooth="yes"/>
			<point x="168" y="149"/>
			<point x="224" y="165"/>
			<point x="259" y="165" type="curve" smooth="yes"/>
			<point x="276" y="165" type="line" smooth="yes"/>
			<point x="400" y="165"/>
			<point x="491" y="232"/>
			<point x="491" y="342" type="curve" smooth="yes"/>
			<point x="491" y="379"/>
			<point x="480" y="414"/>
			<point x="459" y="434" type="curve"/>
			<point x="565" y="434" type="line"/>
			<point x="565" y="523" type="line"/>
			<point x="279" y="523" type="line" smooth="yes"/>
			<point x="165" y="523"/>
			<point x="66" y="458"/>
			<point x="66" y="338" type="curve" smooth="yes"/>
			<point x="66" y="262"/>
			<point x="107" y="202"/>
			<point x="184" y="179" type="curve"/>
			<point x="102" y="158"/>
			<point x="65" y="122"/>
			<point x="65" y="79" type="curve" smooth="yes"/>
			<point x="65" y="39"/>
			<point x="94" y="10"/>
			<point x="168" y="4" type="curve"/>
			<point x="76" y="-17"/>
			<point x="33" y="-54"/>
			<point x="33" y="-103" type="curve" smooth="yes"/>
			<point x="33" y="-172"/>
			<point x="113" y="-207"/>
		</contour>
		<contour>
			<point x="278" y="236" type="curve" smooth="yes"/>
			<point x="206" y="236"/>
			<point x="172" y="286"/>
			<point x="172" y="344" type="curve" smooth="yes"/>
			<point x="172" y="404"/>
			<point x="209" y="451"/>
			<point x="279" y="451" type="curve" smooth="yes"/>
			<point x="350" y="451"/>
			<point x="387" y="405"/>
			<point x="387" y="345" type="curve" smooth="yes"/>
			<point x="387" y="288"/>
			<point x="356" y="236"/>
		</contour>
		<contour>
			<point x="290" y="-126" type="curve" smooth="yes"/>
			<point x="268" y="-126" type="line"/>
			<point x="197" y="-126"/>
			<point x="142" y="-115"/>
			<point x="142" y="-72" type="curve" smooth="yes"/>
			<point x="142" y="-35"/>
			<point x="193" y="-3"/>
			<point x="264" y="-3" type="curve" smooth="yes"/>
			<point x="363" y="-3" type="line" smooth="yes"/>
			<point x="419" y="-3"/>
			<point x="451" y="-18"/>
			<point x="451" y="-52" type="curve" smooth="yes"/>
			<point x="451" y="-97"/>
			<point x="398" y="-126"/>
		</contour>
	</outline>
	<anchor name="top" x="283" y="523"/>
	<anchor name="bottom" x="315" y="-96"/>
</glyph>
<glyph name="h" format="2">
	<unicode hex="0068"/>
	<advance width="600"/>
	<outline>
		<contour>
			<point x="364" y="537" type="curve" smooth="yes"/>
			<point x="287" y="537"/>
			<point x="232" y="492"/>
			<point x="195" y="422" type="curve"/>
			<point x="195" y="750" type="line"/>
			<point x="84" y="750" type="line"/>
			<point x="84" y="0" type="line"/>
			<point x="195" y="0" type="line"/>
			<point x="195" y="305" type="line" smooth="yes"/>
			<point x="195" y="333"/>
			<point x="199" y="359"/>
			<point x="211" y="379" type="curve" smooth="yes"/>
			<point x="230" y="416"/>
			<point x="260" y="445"/>
			<point x="312" y="445" type="curve" smooth="yes"/>
			<point x="375" y="445"/>
			<point x="410" y="402"/>
			<point x="410" y="322" type="curve" smooth="yes"/>
			<point x="410" y="0" type="line"/>
			<point x="521" y="0" type="line"/>
			<point x="521" y="347" type="line" smooth="yes"/>
			<point x="521" y="475"/>
			<point x="462" y="537"/>
		</contour>
	</outline>
	<anchor name="center" x="182" y="628"/>
	<anchor name="caron" x="10075" y="746"/>
	<anchor name="top" x="139" y="730"/>
	<anchor name="bottom" x="303" y="0"/>
</glyph>
<glyph name="j" format="2">
	<unicode hex="006A"/>
	<advance width="600"/>
	<outline>
		<contour>
			<point x="409" y="623" type="curve" smooth="yes"/>
			<point x="463" y="623"/>
			<point x="482" y="643"/>
			<point x="482" y="685" type="curve" smooth="yes"/>
			<point x="482" y="726"/>
			<point x="461" y="747"/>
			<point x="409" y="747" type="curve" smooth="yes"/>
			<point x="357" y="747"/>
			<point x="335" y="727"/>
			<point x="335" y="685" type="curve" smooth="yes"/>
			<point x="335" y="643"/>
			<point x="355" y="623"/>
		</contour>
		<contour>
			<point x="221" y="-204" type="curve" smooth="yes"/>
			<point x="353" y="-204"/>
			<point x="466" y="-160"/>
			<point x="466" y="7" type="curve" smooth="yes"/>
			<point x="466" y="523" type="line"/>
			<point x="81" y="523" type="line"/>
			<point x="81" y="434" type="line"/>
			<point x="355" y="434" type="line"/>
			<point x="355" y="19" type="line" smooth="yes"/>
			<point x="355" y="-80"/>
			<point x="311" y="-113"/>
			<point x="205" y="-113" type="curve" smooth="yes"/>
			<point x="154" y="-113"/>
			<point x="109" y="-103"/>
			<point x="81" y="-93" type="curve"/>
			<point x="81" y="-181" type="line"/>
			<point x="111" y="-195"/>
			<point x="168" y="-204"/>
		</contour>
	</outline>
</glyph>
<glyph name="k" format="2">
	<unicode hex="006B"/>
	<advance width="600"/>
	<outline>
		<contour>
			<point x="97" y="0" type="line"/>
			<point x="207" y="0" type="line"/>
			<point x="207" y="132" type="line"/>
			<point x="292" y="237" type="line"/>
			<point x="428" y="0" type="line"/>
			<point x="552" y="0" type="line"/>
			<point x="377" y="306" type="line"/>
			<point x="544" y="524" type="line"/>
			<point x="419" y="524" type="line"/>
			<point x="207" y="244" type="line"/>
			<point x="207" y="750" type="line"/>
			<point x="97" y="750" type="line"/>
		</contour>
	</outline>
	<anchor name="top" x="217" y="523"/>
	<anchor name="bottom" x="311" y="0"/>
</glyph>
<glyph name="m" format="2">
	<unicode hex="006D"/>
	<advance width="600"/>
	<outline>
		<contour>
			<point x="49" y="0" type="line"/>
			<point x="148" y="0" type="line"/>
			<point x="148" y="361" type="line" smooth="yes"/>
			<point x="148" y="388"/>
			<point x="154" y="411"/>
			<point x="165" y="427" type="curve" smooth="yes"/>
			<point x="175" y="441"/>
			<point x="189" y="449"/>
			<point x="207" y="449" type="curve" smooth="yes"/>
			<point x="239" y="449"/>
			<point x="254" y="424"/>
			<point x="254" y="383" type="curve" smooth="yes"/>
			<point x="254" y="0" type="line"/>
			<point x="348" y="0" type="line"/>
			<point x="348" y="362" type="line"/>
			<point x="348" y="389"/>
			<point x="353" y="413"/>
			<point x="365" y="429" type="curve" smooth="yes"/>
			<point x="374" y="441"/>
			<point x="388" y="449"/>
			<point x="406" y="449" type="curve" smooth="yes"/>
			<point x="441" y="449"/>
			<point x="453" y="424"/>
			<point x="453" y="375" type="curve" smooth="yes"/>
			<point x="453" y="0" type="line"/>
			<point x="552" y="0" type="line"/>
			<point x="552" y="389" type="line" smooth="yes"/>
			<point x="552" y="471"/>
			<point x="530" y="537"/>
			<point x="452" y="537" type="curve" smooth="yes"/>
			<point x="403" y="537"/>
			<point x="367" y="505"/>
			<point x="346" y="445" type="curve"/>
			<point x="338" y="501"/>
			<point x="303" y="536"/>
			<point x="250" y="536" type="curve" smooth="yes"/>
			<point x="195" y="536"/>
			<point x="166" y="500"/>
			<point x="146" y="443" type="curve"/>
			<point x="146" y="523" type="line"/>
			<point x="49" y="523" type="line"/>
		</contour>
	</outline>
	<anchor name="top" x="331" y="523"/>
	<anchor name="bottom" x="289" y="0"/>
</glyph>
<glyph name="q" format="2">
	<unicode hex="0071"/>
	<advance width="600"/>
	<outline>
		<contour>
			<point x="415" y="-194" type="line"/>
			<point x="527" y="-194" type="line"/>
			<point x="527" y="523" type="line"/>
			<point x="419" y="523" type="line"/>
			<point x="419" y="423" type="line"/>
			<point x="385" y="495"/>
			<point x="333" y="537"/>
			<point x="253" y="537" type="curve" smooth="yes"/>
			<point x="143" y="537"/>
			<point x="56" y="438"/>
			<point x="56" y="268" type="curve" smooth="yes"/>
			<point x="56" y="258" type="line" smooth="yes"/>
			<point x="56" y="85"/>
			<point x="127" y="-14"/>
			<point x="245" y="-14" type="curve" smooth="yes"/>
			<point x="326" y="-14"/>
			<point x="381" y="34"/>
			<point x="415" y="106" type="curve"/>
		</contour>
		<contour>
			<point x="291" y="74" type="curve" smooth="yes"/>
			<point x="218" y="74"/>
			<point x="170" y="134"/>
			<point x="170" y="258" type="curve" smooth="yes"/>
			<point x="170" y="264" type="line" smooth="yes"/>
			<point x="170" y="387"/>
			<point x="218" y="448"/>
			<point x="293" y="448" type="curve" smooth="yes"/>
			<point x="371" y="448"/>
			<point x="420" y="386"/>
			<point x="420" y="264" type="curve" smooth="yes"/>
			<point x="420" y="258" type="line" smooth="yes"/>
			<point x="420" y="135"/>
			<point x="366" y="74"/>
		</contour>
	</outline>
</glyph>
<glyph name="u" format="2">
	<unicode hex="0075"/>
	<advance width="600"/>
	<outline>
		<contour>
			<point x="516" y="523" type="line"/>
			<point x="405" y="523" type="line"/>
			<point x="405" y="215" type="line" smooth="yes"/>
			<point x="405" y="188"/>
			<point x="403" y="160"/>
			<point x="391" y="139" type="curve" smooth="yes"/>
			<point x="372" y="103"/>
			<point x="340" y="76"/>
			<point x="289" y="76" type="curve" smooth="yes"/>
			<point x="225" y="76"/>
			<point x="190" y="120"/>
			<point x="190" y="199" type="curve" smooth="yes"/>
			<point x="190" y="523" type="line"/>
			<point x="79" y="523" type="line"/>
			<point x="79" y="176" type="line" smooth="yes"/>
			<point x="79" y="48"/>
			<point x="137" y="-14"/>
			<point x="237" y="-14" type="curve" smooth="yes"/>
			<point x="317" y="-14"/>
			<point x="374" y="33"/>
			<point x="410" y="106" type="curve"/>
			<point x="410" y="0" type="line"/>
			<point x="516" y="0" type="line"/>
		</contour>
	</outline>
	<anchor name="ogonek" x="516" y="0"/>
	<anchor name="bottom" x="307" y="0"/>
	<anchor name="top" x="297" y="523"/>
</glyph>
<glyph name="v" format="2">
	<unicode hex="0076"/>
	<advance width="600"/>
	<outline>
		<contour>
			<point x="54" y="523" type="line"/>
			<point x="224" y="0" type="line"/>
			<point x="375" y="0" type="line"/>
			<point x="546" y="523" type="line"/>
			<point x="430" y="523" type="line"/>
			<point x="302" y="89" type="line"/>
			<point x="171" y="523" type="line"/>
		</contour>
	</outline>
</glyph>
<glyph name="w" format="2">
	<unicode hex="0077"/>
	<advance width="600"/>
	<outline>
		<contour>
			<point x="95" y="0" type="line"/>
			<point x="240" y="0" type="line"/>
			<point x="297" y="406" type="line"/>
			<point x="304" y="406" type="line"/>
			<point x="358" y="0" type="line"/>
			<point x="504" y="0" type="line"/>
			<point x="576" y="523" type="line"/>
			<point x="475" y="523" type="line"/>
			<point x="425" y="100" type="line"/>
			<point x="418" y="100" type="line"/>
			<point x="359" y="523" type="line"/>
			<point x="240" y="523" type="line"/>
			<point x="181" y="100" type="line"/>
			<point x="174" y="100" type="line"/>
			<point x="126" y="523" type="line"/>
			<point x="24" y="523" type="line"/>
		</contour>
	</outline>
	<anchor name="top" x="300" y="523"/>
	<anchor name="bottom" x="265" y="1"/>
</glyph>
<glyph name="z" format="2">
	<unicode hex="007A"/>
	<advance width="600"/>
	<outline>
		<contour>
			<point x="87" y="0" type="line"/>
			<point x="513" y="0" type="line"/>
			<point x="513" y="89" type="line"/>
			<point x="224" y="89" type="line"/>
			<point x="512" y="437" type="line"/>
			<point x="512" y="523" type="line"/>
			<point x="93" y="523" type="line"/>
			<point x="93" y="434" type="line"/>
			<point x="381" y="434" type="line"/>
			<point x="87" y="84" type="line"/>
		</contour>
	</outline>
	<anchor name="top" x="303" y="523"/>
	<anchor name="bottom" x="303" y="0"/>
</glyph>
<glyph name="exclamdown" format="2">
	<unicode hex="00A1"/>
	<advance width="600"/>
	<outline>
		<contour>
			<point x="299" y="535" type="curve" smooth="yes"/>
			<point x="248" y="535"/>
			<point x="222" y="515"/>
			<point x="222" y="465" type="curve" smooth="yes"/>
			<point x="222" y="414"/>
			<point x="248" y="394"/>
			<point x="299" y="394" type="curve" smooth="yes"/>
			<point x="352" y="394"/>
			<point x="378" y="414"/>
			<point x="378" y="465" type="curve" smooth="yes"/>
			<point x="378" y="515"/>
			<point x="352" y="535"/>
		</contour>
		<contour>
			<point x="341" y="311" type="line"/>
			<point x="261" y="311" type="line"/>
			<point x="239" y="-24" type="line"/>
			<point x="239" y="-161" type="line"/>
			<point x="362" y="-161" type="line"/>
			<point x="362" y="-25" type="line"/>
		</contour>
	</outline>
</glyph>
<glyph name="sterling" format="2">
	<unicode hex="00A3"/>
	<advance width="600"/>
	<outline>
		<contour>
			<point x="71" y="91" type="curve"/>
			<point x="71" y="-1" type="line"/>
			<point x="540" y="-1" type="line"/>
			<point x="540" y="94" type="line"/>
			<point x="197" y="94" type="line"/>
			<point x="228" y="118"/>
			<point x="274" y="175"/>
			<point x="262" y="285" type="curve"/>
			<point x="443" y="285" type="line"/>
			<point x="443" y="370" type="line"/>
			<point x="249" y="370" type="line"/>
			<point x="240" y="407"/>
			<point x="224" y="443"/>
			<point x="224" y="483" type="curve" smooth="yes"/>
			<point x="223" y="560"/>
			<point x="266" y="602"/>
			<point x="350" y="602" type="curve" smooth="yes"/>
			<point x="415" y="602"/>
			<point x="484" y="578"/>
			<point x="540" y="539" type="curve"/>
			<point x="540" y="643" type="line"/>
			<point x="493" y="673"/>
			<point x="427" y="698"/>
			<point x="337" y="698" type="curve" smooth="yes"/>
			<point x="199" y="698"/>
			<point x="112" y="618"/>
			<point x="112" y="499" type="curve" smooth="yes"/>
			<point x="112" y="454"/>
			<point x="127" y="406"/>
			<point x="140" y="370" type="curve"/>
			<point x="60" y="370" type="line"/>
			<point x="60" y="285" type="line"/>
			<point x="151" y="285" type="line"/>
			<point x="163" y="185"/>
			<point x="116" y="121"/>
		</contour>
	</outline>
</glyph>
<glyph name="currency" format="2">
	<unicode hex="00A4"/>
	<advance width="600"/>
	<outline>
		<contour>
			<point x="103" y="54" type="line"/>
			<point x="184" y="142" type="line"/>
			<point x="216" y="122"/>
			<point x="256" y="111"/>
			<point x="300" y="111" type="curve" smooth="yes"/>
			<point x="345" y="111"/>
			<point x="385" y="123"/>
			<point x="418" y="145" type="curve"/>
			<point x="501" y="54" type="line"/>
			<point x="562" y="117" type="line"/>
			<point x="476" y="208" type="line"/>
			<point x="497" y="244"/>
			<point x="508" y="288"/>
			<point x="508" y="340" type="curve" smooth="yes"/>
			<point x="508" y="393"/>
			<point x="496" y="438"/>
			<point x="475" y="474" type="curve"/>
			<point x="561" y="567" type="line"/>
			<point x="497" y="626" type="line"/>
			<point x="415" y="537" type="line"/>
			<point x="383" y="558"/>
			<point x="344" y="569"/>
			<point x="300" y="569" type="curve" smooth="yes"/>
			<point x="256" y="569"/>
			<point x="217" y="558"/>
			<point x="185" y="537" type="curve"/>
			<point x="100" y="625" type="line"/>
			<point x="40" y="563" type="line"/>
			<point x="124" y="474" type="line"/>
			<point x="103" y="438"/>
			<point x="91" y="393"/>
			<point x="91" y="340" type="curve" smooth="yes"/>
			<point x="91" y="287"/>
			<point x="103" y="242"/>
			<point x="123" y="206" type="curve"/>
			<point x="38" y="114" type="line"/>
		</contour>
		<contour>
			<point x="300" y="197" type="curve" smooth="yes"/>
			<point x="224" y="197"/>
			<point x="181" y="250"/>
			<point x="181" y="340" type="curve" smooth="yes"/>
			<point x="181" y="430"/>
			<point x="224" y="483"/>
			<point x="300" y="483" type="curve" smooth="yes"/>
			<point x="375" y="483"/>
			<point x="417" y="430"/>
			<point x="417" y="340" type="curve" smooth="yes"/>
			<point x="417" y="250"/>
			<point x="375" y="197"/>
		</contour>
	</outline>
</glyph>
<glyph name="yen" format="2">
	<unicode hex="00A5"/>
	<advance width="600"/>
	<outline>
		<contour>
			<point x="77" y="170" type="line"/>
			<point x="239" y="170" type="line"/>
			<point x="239" y="0" type="line"/>
			<point x="354" y="0" type="line"/>
			<point x="354" y="170" type="line"/>
			<point x="515" y="170" type="line"/>
			<point x="515" y="241" type="line"/>
			<point x="359" y="241" type="line"/>
			<point x="391" y="307" type="line"/>
			<point x="515" y="307" type="line"/>
			<point x="515" y="379" type="line"/>
			<point x="427" y="379" type="line"/>
			<point x="577" y="684" type="line"/>
			<point x="454" y="684" type="line"/>
			<point x="299" y="353" type="line"/>
			<point x="147" y="684" type="line"/>
			<point x="23" y="684" type="line"/>
			<point x="169" y="379" type="line"/>
			<point x="77" y="379" type="line"/>
			<point x="77" y="307" type="line"/>
			<point x="204" y="307" type="line"/>
			<point x="235" y="241" type="line"/>
			<point x="77" y="241" type="line"/>
		</contour>
	</outline>
</glyph>
<glyph name="brokenbar" format="2">
	<unicode hex="00A6"/>
	<advance width="600"/>
	<outline>
		<contour>
			<point x="248" y="792" type="line"/>
			<point x="248" y="418" type="line"/>
			<point x="352" y="418" type="line"/>
			<point x="352" y="792" type="line"/>
		</contour>
		<contour>
			<point x="248" y="244" type="line"/>
			<point x="248" y="-163" type="line"/>
			<point x="352" y="-163" type="line"/>
			<point x="352" y="244" type="line"/>
		</contour>
	</outline>
</glyph>
<glyph name="dieresis" format="2">
	<unicode hex="00A8"/>
	<advance width="600"/>
	<outline>
		<contour>
			<point x="402" y="621" type="curve" smooth="yes"/>
			<point x="451" y="621"/>
			<point x="468" y="640"/>
			<point x="468" y="679" type="curve" smooth="yes"/>
			<point x="468" y="717"/>
			<point x="451" y="738"/>
			<point x="402" y="738" type="curve" smooth="yes"/>
			<point x="353" y="738"/>
			<point x="336" y="717"/>
			<point x="336" y="679" type="curve" smooth="yes"/>
			<point x="336" y="640"/>
			<point x="353" y="621"/>
		</contour>
		<contour>
			<point x="199" y="621" type="curve" smooth="yes"/>
			<point x="248" y="621"/>
			<point x="264" y="640"/>
			<point x="264" y="679" type="curve" smooth="yes"/>
			<point x="264" y="717"/>
			<point x="248" y="738"/>
			<point x="199" y="738" type="curve" smooth="yes"/>
			<point x="149" y="738"/>
			<point x="132" y="717"/>
			<point x="132" y="679" type="curve" smooth="yes"/>
			<point x="132" y="640"/>
			<point x="149" y="621"/>
		</contour>
	</outline>
	<anchor name="_top" x="300" y="523"/>
</glyph>
<glyph name="copyright" format="2">
	<unicode hex="00A9"/>
	<advance width="600"/>
	<outline>
		<contour>
			<point x="300" y="104" type="curve" smooth="yes"/>
			<point x="446" y="104"/>
			<point x="559" y="198"/>
			<point x="559" y="374" type="curve" smooth="yes"/>
			<point x="559" y="387" type="line" smooth="yes"/>
			<point x="559" y="561"/>
			<point x="444" y="657"/>
			<point x="300" y="657" type="curve" smooth="yes"/>
			<point x="156" y="657"/>
			<point x="41" y="561"/>
			<point x="41" y="386" type="curve" smooth="yes"/>
			<point x="41" y="372" type="line" smooth="yes"/>
			<point x="41" y="197"/>
			<point x="154" y="104"/>
		</contour>
		<contour>
			<point x="300" y="158" type="curve" smooth="yes"/>
			<point x="172" y="158"/>
			<point x="96" y="240"/>
			<point x="96" y="376" type="curve" smooth="yes"/>
			<point x="96" y="383" type="line" smooth="yes"/>
			<point x="96" y="522"/>
			<point x="174" y="603"/>
			<point x="300" y="603" type="curve" smooth="yes"/>
			<point x="426" y="603"/>
			<point x="504" y="521"/>
			<point x="504" y="384" type="curve" smooth="yes"/>
			<point x="504" y="376" type="line" smooth="yes"/>
			<point x="504" y="239"/>
			<point x="428" y="158"/>
		</contour>
		<contour>
			<point x="316" y="244" type="curve" smooth="yes"/>
			<point x="343" y="244"/>
			<point x="362" y="248"/>
			<point x="377" y="256" type="curve"/>
			<point x="377" y="300" type="line"/>
			<point x="363" y="294"/>
			<point x="344" y="290"/>
			<point x="324" y="290" type="curve" smooth="yes"/>
			<point x="278" y="290"/>
			<point x="246" y="322"/>
			<point x="246" y="381" type="curve" smooth="yes"/>
			<point x="246" y="440"/>
			<point x="280" y="470"/>
			<point x="325" y="470" type="curve" smooth="yes"/>
			<point x="346" y="470"/>
			<point x="366" y="466"/>
			<point x="377" y="461" type="curve"/>
			<point x="377" y="506" type="line"/>
			<point x="365" y="511"/>
			<point x="343" y="517"/>
			<point x="317" y="517" type="curve" smooth="yes"/>
			<point x="243" y="517"/>
			<point x="188" y="466"/>
			<point x="188" y="381" type="curve" smooth="yes"/>
			<point x="188" y="296"/>
			<point x="238" y="244"/>
		</contour>
	</outline>
</glyph>
<glyph name="logicalnot" format="2">
	<unicode hex="00AC"/>
	<advance width="600"/>
	<outline>
		<contour>
			<point x="529" y="51" type="line"/>
			<point x="528" y="346" type="line"/>
			<point x="71" y="346" type="line"/>
			<point x="71" y="251" type="line"/>
			<point x="424" y="251" type="line"/>
			<point x="426" y="51" type="line"/>
		</contour>
	</outline>
</glyph>
<glyph name="registered" format="2">
	<unicode hex="00AE"/>
	<advance width="600"/>
	<outline>
		<contour>
			<point x="300" y="104" type="curve" smooth="yes"/>
			<point x="446" y="104"/>
			<point x="559" y="198"/>
			<point x="559" y="373" type="curve" smooth="yes"/>
			<point x="559" y="387" type="line" smooth="yes"/>
			<point x="559" y="561"/>
			<point x="444" y="657"/>
			<point x="300" y="657" type="curve" smooth="yes"/>
			<point x="156" y="657"/>
			<point x="41" y="561"/>
			<point x="41" y="387" type="curve" smooth="yes"/>
			<point x="41" y="373" type="line" smooth="yes"/>
			<point x="41" y="198"/>
			<point x="154" y="104"/>
		</contour>
		<contour>
			<point x="300" y="158" type="curve" smooth="yes"/>
			<point x="172" y="158"/>
			<point x="96" y="240"/>
			<point x="96" y="376" type="curve" smooth="yes"/>
			<point x="96" y="383" type="line" smooth="yes"/>
			<point x="96" y="522"/>
			<point x="174" y="603"/>
			<point x="300" y="603" type="curve" smooth="yes"/>
			<point x="426" y="603"/>
			<point x="504" y="521"/>
			<point x="504" y="384" type="curve" smooth="yes"/>
			<point x="504" y="376" type="line" smooth="yes"/>
			<point x="504" y="239"/>
			<point x="428" y="158"/>
		</contour>
		<contour>
			<point x="204" y="250" type="line"/>
			<point x="258" y="250" type="line"/>
			<point x="258" y="343" type="line"/>
			<point x="297" y="343" type="line" smooth="yes"/>
			<point x="321" y="343"/>
			<point x="329" y="333"/>
			<point x="335" y="314" type="curve" smooth="yes"/>
			<point x="356" y="250" type="line"/>
			<point x="414" y="250" type="line"/>
			<point x="389" y="322" type="line" smooth="yes"/>
			<point x="380" y="352"/>
			<point x="369" y="361"/>
			<point x="348" y="365" type="curve"/>
			<point x="386" y="372"/>
			<point x="408" y="398"/>
			<point x="408" y="437" type="curve" smooth="yes"/>
			<point x="408" y="481"/>
			<point x="381" y="512"/>
			<point x="315" y="512" type="curve" smooth="yes"/>
			<point x="203" y="512" type="line"/>
		</contour>
		<contour>
			<point x="308" y="470" type="line" smooth="yes"/>
			<point x="338" y="470"/>
			<point x="353" y="454"/>
			<point x="353" y="429" type="curve" smooth="yes"/>
			<point x="353" y="404"/>
			<point x="339" y="384"/>
			<point x="307" y="384" type="curve" smooth="yes"/>
			<point x="258" y="384" type="line"/>
			<point x="258" y="470" type="line"/>
		</contour>
	</outline>
</glyph>
<glyph name="degree" format="2">
	<unicode hex="00B0"/>
	<advance width="600"/>
	<outline>
		<contour>
			<point x="303" y="297" type="curve" smooth="yes"/>
			<point x="415" y="297"/>
			<point x="494" y="384"/>
			<point x="494" y="498" type="curve" smooth="yes"/>
			<point x="494" y="613"/>
			<point x="415" y="697"/>
			<point x="303" y="697" type="curve" smooth="yes"/>
			<point x="184" y="697"/>
			<point x="106" y="613"/>
			<point x="106" y="498" type="curve" smooth="yes"/>
			<point x="106" y="384"/>
			<point x="184" y="297"/>
		</contour>
		<contour>
			<point x="300" y="374" type="curve" smooth="yes"/>
			<point x="231" y="374"/>
			<point x="184" y="426"/>
			<point x="184" y="498" type="curve" smooth="yes"/>
			<point x="184" y="569"/>
			<point x="232" y="619"/>
			<point x="300" y="619" type="curve" smooth="yes"/>
			<point x="371" y="619"/>
			<point x="416" y="569"/>
			<point x="416" y="498" type="curve" smooth="yes"/>
			<point x="416" y="426"/>
			<point x="371" y="374"/>
		</contour>
	</outline>
</glyph>
<glyph name="cedilla" format="2">
	<unicode hex="00B8"/>
	<advance width="600"/>
	<outline>
		<contour>
			<point x="280" y="-224" type="curve" smooth="yes"/>
			<point x="354" y="-224"/>
			<point x="400" y="-189"/>
			<point x="400" y="-125" type="curve" smooth="yes"/>
			<point x="400" y="-77"/>
			<point x="369" y="-48"/>
			<point x="309" y="-46" type="curve"/>
			<point x="332" y="0" type="line"/>
			<point x="269" y="0" type="line"/>
			<point x="229" y="-92" type="line"/>
			<point x="236" y="-90"/>
			<point x="250" y="-89"/>
			<point x="265" y="-89" type="curve" smooth="yes"/>
			<point x="300" y="-89"/>
			<point x="324" y="-97"/>
			<point x="324" y="-125" type="curve" smooth="yes"/>
			<point x="324" y="-154"/>
			<point x="303" y="-165"/>
			<point x="265" y="-165" type="curve" smooth="yes"/>
			<point x="245" y="-165"/>
			<point x="221" y="-159"/>
			<point x="196" y="-148" type="curve"/>
			<point x="196" y="-206" type="line"/>
			<point x="215" y="-216"/>
			<point x="249" y="-224"/>
		</contour>
	</outline>
	<anchor name="_bottom" x="301" y="0"/>
</glyph>
<glyph name="questiondown" format="2">
	<unicode hex="00BF"/>
	<advance width="600"/>
	<outline>
		<contour>
			<point x="334" y="535" type="curve" smooth="yes"/>
			<point x="282" y="535"/>
			<point x="255" y="515"/>
			<point x="255" y="465" type="curve" smooth="yes"/>
			<point x="255" y="414"/>
			<point x="281" y="394"/>
			<point x="334" y="394" type="curve" smooth="yes"/>
			<point x="387" y="394"/>
			<point x="413" y="414"/>
			<point x="413" y="465" type="curve" smooth="yes"/>
			<point x="413" y="515"/>
			<point x="386" y="535"/>
		</contour>
		<contour>
			<point x="383" y="311" type="curve"/>
			<point x="285" y="311" type="line"/>
			<point x="285" y="274" type="line" smooth="yes"/>
			<point x="282" y="162"/>
			<point x="98" y="144"/>
			<point x="98" y="-16" type="curve" smooth="yes"/>
			<point x="98" y="-108"/>
			<point x="165" y="-175"/>
			<point x="304" y="-175" type="curve" smooth="yes"/>
			<point x="402" y="-175"/>
			<point x="469" y="-142"/>
			<point x="504" y="-120" type="curve"/>
			<point x="504" y="-20" type="line"/>
			<point x="462" y="-51"/>
			<point x="399" y="-79"/>
			<point x="326" y="-79" type="curve" smooth="yes"/>
			<point x="245" y="-79"/>
			<point x="210" y="-45"/>
			<point x="210" y="2" type="curve" smooth="yes"/>
			<point x="210" y="109"/>
			<point x="388" y="120"/>
			<point x="388" y="273" type="curve" smooth="yes"/>
			<point x="388" y="287"/>
			<point x="387" y="297"/>
		</contour>
	</outline>
</glyph>
<glyph name="AE" format="2">
	<unicode hex="00C6"/>
	<advance width="600"/>
	<outline>
		<contour>
			<point x="7" y="0" type="line"/>
			<point x="113" y="-1" type="line"/>
			<point x="156" y="171" type="line"/>
			<point x="293" y="171" type="line"/>
			<point x="293" y="0" type="line"/>
			<point x="577" y="0" type="line"/>
			<point x="577" y="92" type="line"/>
			<point x="396" y="92" type="line"/>
			<point x="396" y="297" type="line"/>
			<point x="546" y="297" type="line"/>
			<point x="546" y="388" type="line"/>
			<point x="396" y="388" type="line"/>
			<point x="396" y="593" type="line"/>
			<point x="574" y="593" type="line"/>
			<point x="574" y="684" type="line"/>
			<point x="183" y="684" type="line"/>
		</contour>
		<contour>
			<point x="178" y="260" type="line"/>
			<point x="260" y="593" type="line"/>
			<point x="293" y="593" type="line"/>
			<point x="293" y="260" type="line"/>
		</contour>
	</outline>
	<anchor name="top" x="345" y="684"/>
</glyph>
<glyph name="Ccedilla" format="2">
	<unicode hex="00C7"/>
	<advance width="600"/>
	<outline>
		<contour>
			<point x="339" y="-224" type="curve" smooth="yes"/>
			<point x="413" y="-224"/>
			<point x="459" y="-189"/>
			<point x="459" y="-125" type="curve" smooth="yes"/>
			<point x="459" y="-77"/>
			<point x="428" y="-48"/>
			<point x="368" y="-46" type="curve"/>
			<point x="385" y="-12" type="line"/>
			<point x="450" y="-11"/>
			<point x="498" y="1"/>
			<point x="540" y="28" type="curve"/>
			<point x="540" y="121" type="line"/>
			<point x="492" y="91"/>
			<point x="435" y="84"/>
			<point x="391" y="84" type="curve" smooth="yes"/>
			<point x="257" y="84"/>
			<point x="174" y="165"/>
			<point x="174" y="339" type="curve" smooth="yes"/>
			<point x="174" y="346" type="line" smooth="yes"/>
			<point x="174" y="518"/>
			<point x="256" y="601"/>
			<point x="396" y="601" type="curve" smooth="yes"/>
			<point x="446" y="601"/>
			<point x="494" y="591"/>
			<point x="538" y="567" type="curve"/>
			<point x="538" y="666" type="line"/>
			<point x="498" y="684"/>
			<point x="447" y="696"/>
			<point x="380" y="696" type="curve" smooth="yes"/>
			<point x="189" y="696"/>
			<point x="57" y="571"/>
			<point x="57" y="350" type="curve" smooth="yes"/>
			<point x="57" y="336" type="line" smooth="yes"/>
			<point x="57" y="130"/>
			<point x="156" y="11"/>
			<point x="324" y="-9" type="curve"/>
			<point x="288" y="-92" type="line"/>
			<point x="295" y="-90"/>
			<point x="309" y="-89"/>
			<point x="324" y="-89" type="curve" smooth="yes"/>
			<point x="359" y="-89"/>
			<point x="383" y="-97"/>
			<point x="383" y="-125" type="curve" smooth="yes"/>
			<point x="383" y="-154"/>
			<point x="362" y="-165"/>
			<point x="324" y="-165" type="curve" smooth="yes"/>
			<point x="304" y="-165"/>
			<point x="280" y="-159"/>
			<point x="255" y="-148" type="curve"/>
			<point x="255" y="-206" type="line"/>
			<point x="274" y="-216"/>
			<point x="308" y="-224"/>
		</contour>
	</outline>
</glyph>
<glyph name="ccedilla" format="2">
	<unicode hex="00E7"/>
	<advance width="600"/>
	<outline>
		<contour>
			<point x="330" y="-224" type="curve" smooth="yes"/>
			<point x="404" y="-224"/>
			<point x="450" y="-189"/>
			<point x="450" y="-125" type="curve" smooth="yes"/>
			<point x="450" y="-77"/>
			<point x="419" y="-48"/>
			<point x="359" y="-46" type="curve"/>
			<point x="376" y="-12" type="line"/>
			<point x="435" y="-10"/>
			<point x="481" y="4"/>
			<point x="511" y="23" type="curve"/>
			<point x="511" y="110" type="line"/>
			<point x="479" y="92"/>
			<point x="431" y="78"/>
			<point x="380" y="78" type="curve" smooth="yes"/>
			<point x="270" y="78"/>
			<point x="202" y="142"/>
			<point x="202" y="259" type="curve" smooth="yes"/>
			<point x="202" y="266" type="line" smooth="yes"/>
			<point x="202" y="381"/>
			<point x="268" y="445"/>
			<point x="383" y="445" type="curve" smooth="yes"/>
			<point x="427" y="445"/>
			<point x="475" y="435"/>
			<point x="511" y="414" type="curve"/>
			<point x="511" y="504" type="line"/>
			<point x="479" y="521"/>
			<point x="425" y="535"/>
			<point x="368" y="535" type="curve" smooth="yes"/>
			<point x="199" y="535"/>
			<point x="88" y="429"/>
			<point x="88" y="268" type="curve" smooth="yes"/>
			<point x="88" y="255" type="line" smooth="yes"/>
			<point x="88" y="106"/>
			<point x="171" y="8"/>
			<point x="315" y="-9" type="curve"/>
			<point x="279" y="-92" type="line"/>
			<point x="286" y="-90"/>
			<point x="300" y="-89"/>
			<point x="315" y="-89" type="curve" smooth="yes"/>
			<point x="350" y="-89"/>
			<point x="374" y="-97"/>
			<point x="374" y="-125" type="curve" smooth="yes"/>
			<point x="374" y="-154"/>
			<point x="353" y="-165"/>
			<point x="315" y="-165" type="curve" smooth="yes"/>
			<point x="295" y="-165"/>
			<point x="271" y="-159"/>
			<point x="246" y="-148" type="curve"/>
			<point x="246" y="-206" type="line"/>
			<point x="265" y="-216"/>
			<point x="299" y="-224"/>
		</contour>
	</outline>
</glyph>
<glyph name="eth" format="2">
	<unicode hex="00F0"/>
	<advance width="600"/>
	<outline>
		<contour>
			<point x="293" y="-14" type="curve" smooth="yes"/>
			<point x="438" y="-14"/>
			<point x="543" y="82"/>
			<point x="543" y="280" type="curve" smooth="yes"/>
			<point x="543" y="294" type="line" smooth="yes"/>
			<point x="543" y="436"/>
			<point x="503" y="550"/>
			<point x="439" y="638" type="curve"/>
			<point x="524" y="669" type="line"/>
			<point x="524" y="739" type="line"/>
			<point x="393" y="691" type="line"/>
			<point x="372" y="713"/>
			<point x="349" y="733"/>
			<point x="325" y="750" type="curve"/>
			<point x="174" y="750" type="line"/>
			<point x="216" y="717"/>
			<point x="253" y="685"/>
			<point x="285" y="652" type="curve"/>
			<point x="181" y="614" type="line"/>
			<point x="181" y="544" type="line"/>
			<point x="330" y="598" type="line"/>
			<point x="372" y="543"/>
			<point x="401" y="481"/>
			<point x="419" y="403" type="curve"/>
			<point x="384" y="465"/>
			<point x="329" y="505"/>
			<point x="257" y="505" type="curve" smooth="yes"/>
			<point x="134" y="505"/>
			<point x="57" y="402"/>
			<point x="57" y="256" type="curve" smooth="yes"/>
			<point x="57" y="242" type="line" smooth="yes"/>
			<point x="57" y="77"/>
			<point x="152" y="-14"/>
		</contour>
		<contour>
			<point x="301" y="75" type="curve" smooth="yes"/>
			<point x="218" y="75"/>
			<point x="171" y="135"/>
			<point x="171" y="245" type="curve" smooth="yes"/>
			<point x="171" y="252" type="line" smooth="yes"/>
			<point x="171" y="365"/>
			<point x="224" y="421"/>
			<point x="300" y="421" type="curve" smooth="yes"/>
			<point x="376" y="421"/>
			<point x="431" y="368"/>
			<point x="431" y="257" type="curve" smooth="yes"/>
			<point x="431" y="250" type="line" smooth="yes"/>
			<point x="431" y="137"/>
			<point x="379" y="75"/>
		</contour>
	</outline>
</glyph>
<glyph name="divide" format="2">
	<unicode hex="00F7"/>
	<advance width="600"/>
	<outline>
		<contour>
			<point x="300" y="436" type="curve" smooth="yes"/>
			<point x="353" y="436"/>
			<point x="382" y="452"/>
			<point x="382" y="497" type="curve" smooth="yes"/>
			<point x="382" y="542"/>
			<point x="353" y="558"/>
			<point x="300" y="558" type="curve" smooth="yes"/>
			<point x="247" y="558"/>
			<point x="218" y="542"/>
			<point x="218" y="497" type="curve" smooth="yes"/>
			<point x="218" y="452"/>
			<point x="247" y="436"/>
		</contour>
		<contour>
			<point x="71" y="251" type="line"/>
			<point x="529" y="251" type="line"/>
			<point x="529" y="346" type="line"/>
			<point x="71" y="346" type="line"/>
		</contour>
		<contour>
			<point x="299" y="37" type="curve" smooth="yes"/>
			<point x="352" y="37"/>
			<point x="381" y="54"/>
			<point x="381" y="99" type="curve" smooth="yes"/>
			<point x="381" y="144"/>
			<point x="352" y="159"/>
			<point x="299" y="159" type="curve" smooth="yes"/>
			<point x="247" y="159"/>
			<point x="218" y="144"/>
			<point x="218" y="99" type="curve" smooth="yes"/>
			<point x="218" y="54"/>
			<point x="247" y="37"/>
		</contour>
	</outline>
</glyph>
<glyph name="oslash" format="2">
	<unicode hex="00F8"/>
	<advance width="600"/>
	<outline>
		<contour>
			<point x="300" y="-14" type="curve" smooth="yes"/>
			<point x="442" y="-14"/>
			<point x="542" y="85"/>
			<point x="542" y="255" type="curve" smooth="yes"/>
			<point x="542" y="269" type="line" smooth="yes"/>
			<point x="542" y="343"/>
			<point x="523" y="404"/>
			<point x="489" y="449" type="curve"/>
			<point x="565" y="548" type="line"/>
			<point x="474" y="548" type="line"/>
			<point x="436" y="499" type="line"/>
			<point x="399" y="524"/>
			<point x="353" y="537"/>
			<point x="300" y="537" type="curve" smooth="yes"/>
			<point x="157" y="537"/>
			<point x="58" y="436"/>
			<point x="58" y="269" type="curve" smooth="yes"/>
			<point x="58" y="255" type="line" smooth="yes"/>
			<point x="58" y="180"/>
			<point x="77" y="119"/>
			<point x="110" y="74" type="curve"/>
			<point x="36" y="-23" type="line"/>
			<point x="127" y="-23" type="line"/>
			<point x="163" y="24" type="line"/>
			<point x="201" y="-1"/>
			<point x="248" y="-14"/>
		</contour>
		<contour>
			<point x="172" y="258" type="curve" smooth="yes"/>
			<point x="172" y="265" type="line" smooth="yes"/>
			<point x="172" y="391"/>
			<point x="222" y="449"/>
			<point x="300" y="449" type="curve" smooth="yes"/>
			<point x="331" y="449"/>
			<point x="357" y="440"/>
			<point x="378" y="421" type="curve"/>
			<point x="184" y="167" type="line"/>
			<point x="176" y="192"/>
			<point x="172" y="222"/>
		</contour>
		<contour>
			<point x="300" y="75" type="curve" smooth="yes"/>
			<point x="269" y="75"/>
			<point x="243" y="84"/>
			<point x="222" y="103" type="curve"/>
			<point x="416" y="357" type="line"/>
			<point x="424" y="332"/>
			<point x="428" y="301"/>
			<point x="428" y="265" type="curve" smooth="yes"/>
			<point x="428" y="258" type="line" smooth="yes"/>
			<point x="428" y="133"/>
			<point x="378" y="75"/>
		</contour>
	</outline>
</glyph>
<glyph name="thorn" format="2">
	<unicode hex="00FE"/>
	<advance width="600"/>
	<outline>
		<contour>
			<point x="74" y="750" type="line"/>
			<point x="74" y="-204" type="line"/>
			<point x="185" y="-204" type="line"/>
			<point x="185" y="93" type="line"/>
			<point x="220" y="23"/>
			<point x="274" y="-14"/>
			<point x="349" y="-14" type="curve" smooth="yes"/>
			<point x="462" y="-14"/>
			<point x="546" y="84"/>
			<point x="546" y="255" type="curve" smooth="yes"/>
			<point x="546" y="269" type="line" smooth="yes"/>
			<point x="546" y="437"/>
			<point x="472" y="537"/>
			<point x="357" y="537" type="curve" smooth="yes"/>
			<point x="277" y="537"/>
			<point x="218" y="488"/>
			<point x="185" y="415" type="curve"/>
			<point x="185" y="750" type="line"/>
		</contour>
		<contour>
			<point x="307" y="75" type="curve" smooth="yes"/>
			<point x="244" y="75"/>
			<point x="199" y="116"/>
			<point x="185" y="197" type="curve"/>
			<point x="182" y="215"/>
			<point x="180" y="236"/>
			<point x="180" y="258" type="curve" smooth="yes"/>
			<point x="180" y="265" type="line" smooth="yes"/>
			<point x="180" y="388"/>
			<point x="235" y="449"/>
			<point x="309" y="449" type="curve" smooth="yes"/>
			<point x="384" y="449"/>
			<point x="432" y="389"/>
			<point x="432" y="265" type="curve" smooth="yes"/>
			<point x="432" y="258" type="line" smooth="yes"/>
			<point x="432" y="136"/>
			<point x="385" y="75"/>
		</contour>
	</outline>
</glyph>
<glyph name="dcroat" format="2">
	<unicode hex="0111"/>
	<advance width="600"/>
	<outline>
		<contour>
			<point x="245" y="-14" type="curve" smooth="yes"/>
			<point x="325" y="-14"/>
			<point x="383" y="34"/>
			<point x="417" y="107" type="curve"/>
			<point x="417" y="0" type="line"/>
			<point x="525" y="0" type="line"/>
			<point x="525" y="593" type="line"/>
			<point x="588" y="593" type="line"/>
			<point x="588" y="660" type="line"/>
			<point x="525" y="660" type="line"/>
			<point x="525" y="750" type="line"/>
			<point x="414" y="750" type="line"/>
			<point x="414" y="660" type="line"/>
			<point x="260" y="660" type="line"/>
			<point x="260" y="593" type="line"/>
			<point x="414" y="593" type="line"/>
			<point x="414" y="425" type="line"/>
			<point x="381" y="496"/>
			<point x="332" y="537"/>
			<point x="253" y="537" type="curve" smooth="yes"/>
			<point x="141" y="537"/>
			<point x="55" y="438"/>
			<point x="55" y="268" type="curve" smooth="yes"/>
			<point x="55" y="258" type="line" smooth="yes"/>
			<point x="55" y="85"/>
			<point x="125" y="-14"/>
		</contour>
		<contour>
			<point x="291" y="74" type="curve" smooth="yes"/>
			<point x="216" y="74"/>
			<point x="169" y="134"/>
			<point x="169" y="258" type="curve" smooth="yes"/>
			<point x="169" y="264" type="line" smooth="yes"/>
			<point x="169" y="387"/>
			<point x="216" y="448"/>
			<point x="293" y="448" type="curve" smooth="yes"/>
			<point x="371" y="448"/>
			<point x="420" y="386"/>
			<point x="420" y="264" type="curve" smooth="yes"/>
			<point x="420" y="258" type="line" smooth="yes"/>
			<point x="420" y="135"/>
			<point x="366" y="74"/>
		</contour>
	</outline>
</glyph>
<glyph name="eogonek" format="2">
	<unicode hex="0119"/>
	<advance width="600"/>
	<outline>
		<contour>
			<point x="341" y="-14" type="curve" smooth="yes"/>
			<point x="343" y="-14" type="line"/>
			<point x="300" y="-38"/>
			<point x="276" y="-75"/>
			<point x="276" y="-114" type="curve" smooth="yes"/>
			<point x="276" y="-174"/>
			<point x="316" y="-203"/>
			<point x="391" y="-203" type="curve" smooth="yes"/>
			<point x="421" y="-203"/>
			<point x="447" y="-198"/>
			<point x="461" y="-192" type="curve"/>
			<point x="461" y="-121" type="line"/>
			<point x="453" y="-124"/>
			<point x="437" y="-126"/>
			<point x="420" y="-126" type="curve" smooth="yes"/>
			<point x="389" y="-126"/>
			<point x="366" y="-114"/>
			<point x="366" y="-81" type="curve" smooth="yes"/>
			<point x="366" y="-51"/>
			<point x="389" y="-21"/>
			<point x="451" y="0" type="curve"/>
			<point x="476" y="6"/>
			<point x="498" y="16"/>
			<point x="518" y="27" type="curve"/>
			<point x="518" y="114" type="line"/>
			<point x="474" y="90"/>
			<point x="422" y="76"/>
			<point x="364" y="76" type="curve" smooth="yes"/>
			<point x="258" y="76"/>
			<point x="182" y="126"/>
			<point x="176" y="231" type="curve"/>
			<point x="535" y="231" type="line"/>
			<point x="535" y="281" type="line" smooth="yes"/>
			<point x="535" y="450"/>
			<point x="446" y="537"/>
			<point x="305" y="537" type="curve" smooth="yes"/>
			<point x="168" y="537"/>
			<point x="64" y="434"/>
			<point x="64" y="269" type="curve" smooth="yes"/>
			<point x="64" y="256" type="line" smooth="yes"/>
			<point x="64" y="80"/>
			<point x="170" y="-14"/>
		</contour>
		<contour>
			<point x="305" y="456" type="curve" smooth="yes"/>
			<point x="374" y="456"/>
			<point x="423" y="406"/>
			<point x="428" y="307" type="curve"/>
			<point x="174" y="307" type="line"/>
			<point x="181" y="398"/>
			<point x="232" y="456"/>
		</contour>
	</outline>
</glyph>
<glyph name="hbar" format="2">
	<unicode hex="0127"/>
	<advance width="600"/>
	<outline>
		<contour>
			<point x="19" y="593" type="line"/>
			<point x="84" y="593" type="line"/>
			<point x="84" y="0" type="line"/>
			<point x="195" y="0" type="line"/>
			<point x="195" y="305" type="line" smooth="yes"/>
			<point x="195" y="333"/>
			<point x="199" y="359"/>
			<point x="211" y="379" type="curve" smooth="yes"/>
			<point x="230" y="416"/>
			<point x="260" y="445"/>
			<point x="312" y="445" type="curve" smooth="yes"/>
			<point x="375" y="445"/>
			<point x="410" y="402"/>
			<point x="410" y="322" type="curve" smooth="yes"/>
			<point x="410" y="0" type="line"/>
			<point x="521" y="0" type="line"/>
			<point x="521" y="347" type="line" smooth="yes"/>
			<point x="521" y="475"/>
			<point x="462" y="537"/>
			<point x="364" y="537" type="curve" smooth="yes"/>
			<point x="287" y="537"/>
			<point x="232" y="492"/>
			<point x="195" y="422" type="curve"/>
			<point x="195" y="593" type="line"/>
			<point x="347" y="593" type="line"/>
			<point x="347" y="660" type="line"/>
			<point x="195" y="660" type="line"/>
			<point x="195" y="750" type="line"/>
			<point x="84" y="750" type="line"/>
			<point x="84" y="660" type="line"/>
			<point x="19" y="660" type="line"/>
		</contour>
	</outline>
</glyph>
<glyph name="kgreenlandic" format="2">
	<unicode hex="0138"/>
	<advance width="600"/>
	<outline>
		<contour>
			<point x="96" y="0" type="line"/>
			<point x="206" y="0" type="line"/>
			<point x="206" y="136" type="line"/>
			<point x="290" y="241" type="line"/>
			<point x="427" y="0" type="line"/>
			<point x="552" y="0" type="line"/>
			<point x="376" y="308" type="line"/>
			<point x="543" y="525" type="line"/>
			<point x="418" y="525" type="line"/>
			<point x="206" y="244" type="line"/>
			<point x="206" y="524" type="line"/>
			<point x="96" y="524" type="line"/>
		</contour>
	</outline>
</glyph>
<glyph name="ldot" format="2">
	<unicode hex="0140"/>
	<advance width="600"/>
	<outline>
		<contour>
			<point x="71" y="0" type="line"/>
			<point x="539" y="0" type="line"/>
			<point x="539" y="89" type="line"/>
			<point x="365" y="89" type="line"/>
			<point x="365" y="750" type="line"/>
			<point x="72" y="750" type="line"/>
			<point x="72" y="661" type="line"/>
			<point x="254" y="661" type="line"/>
			<point x="254" y="89" type="line"/>
			<point x="71" y="89" type="line"/>
		</contour>
		<contour>
			<point x="598" y="295" type="curve" smooth="yes"/>
			<point x="647" y="295"/>
			<point x="674" y="316"/>
			<point x="674" y="378" type="curve" smooth="yes"/>
			<point x="674" y="438"/>
			<point x="647" y="458"/>
			<point x="598" y="458" type="curve" smooth="yes"/>
			<point x="548" y="458"/>
			<point x="522" y="438"/>
			<point x="522" y="378" type="curve" smooth="yes"/>
			<point x="522" y="316"/>
			<point x="548" y="295"/>
		</contour>
	</outline>
</glyph>
<glyph name="Lslash" format="2">
	<unicode hex="0141"/>
	<advance width="600"/>
	<outline>
		<contour>
			<point x="93" y="0" type="line"/>
			<point x="544" y="0" type="line"/>
			<point x="544" y="103" type="line"/>
			<point x="206" y="103" type="line"/>
			<point x="206" y="317" type="line"/>
			<point x="382" y="386" type="line"/>
			<point x="382" y="468" type="line"/>
			<point x="206" y="399" type="line"/>
			<point x="206" y="684" type="line"/>
			<point x="93" y="684" type="line"/>
			<point x="93" y="355" type="line"/>
			<point x="15" y="324" type="line"/>
			<point x="15" y="242" type="line"/>
			<point x="93" y="273" type="line"/>
		</contour>
	</outline>
</glyph>
<glyph name="lslash" format="2">
	<unicode hex="0142"/>
	<advance width="600"/>
	<outline>
		<contour>
			<point x="71" y="0" type="line"/>
			<point x="539" y="0" type="line"/>
			<point x="539" y="89" type="line"/>
			<point x="365" y="89" type="line"/>
			<point x="365" y="357" type="line"/>
			<point x="523" y="417" type="line"/>
			<point x="523" y="499" type="line"/>
			<point x="365" y="438" type="line"/>
			<point x="365" y="750" type="line"/>
			<point x="72" y="750" type="line"/>
			<point x="72" y="661" type="line"/>
			<point x="254" y="661" type="line"/>
			<point x="254" y="395" type="line"/>
			<point x="95" y="334" type="line"/>
			<point x="95" y="254" type="line"/>
			<point x="254" y="315" type="line"/>
			<point x="254" y="89" type="line"/>
			<point x="71" y="89" type="line"/>
		</contour>
	</outline>
</glyph>
<glyph name="OE" format="2">
	<unicode hex="0152"/>
	<advance width="600"/>
	<outline>
		<contour>
			<point x="184" y="-13" type="curve" smooth="yes"/>
			<point x="236" y="-13"/>
			<point x="272" y="19"/>
			<point x="296" y="87" type="curve"/>
			<point x="296" y="0" type="line"/>
			<point x="571" y="0" type="line"/>
			<point x="571" y="93" type="line"/>
			<point x="399" y="93" type="line"/>
			<point x="399" y="297" type="line"/>
			<point x="543" y="297" type="line"/>
			<point x="543" y="388" type="line"/>
			<point x="399" y="388" type="line"/>
			<point x="399" y="593" type="line"/>
			<point x="568" y="593" type="line"/>
			<point x="568" y="684" type="line"/>
			<point x="260" y="684" type="line" smooth="yes"/>
			<point x="93" y="684"/>
			<point x="31" y="546"/>
			<point x="31" y="320" type="curve" smooth="yes"/>
			<point x="31" y="306" type="line" smooth="yes"/>
			<point x="31" y="93"/>
			<point x="77" y="-13"/>
		</contour>
		<contour>
			<point x="222" y="81" type="curve" smooth="yes"/>
			<point x="158" y="81"/>
			<point x="138" y="149"/>
			<point x="138" y="310" type="curve" smooth="yes"/>
			<point x="138" y="317" type="line" smooth="yes"/>
			<point x="138" y="486"/>
			<point x="159" y="593"/>
			<point x="263" y="593" type="curve" smooth="yes"/>
			<point x="294" y="593" type="line"/>
			<point x="294" y="203" type="line" smooth="yes"/>
			<point x="294" y="127"/>
			<point x="270" y="81"/>
		</contour>
	</outline>
</glyph>
<glyph name="Tbar" format="2">
	<unicode hex="0166"/>
	<advance width="600"/>
	<outline>
		<contour>
			<point x="243" y="0" type="line"/>
			<point x="356" y="0" type="line"/>
			<point x="356" y="312" type="line"/>
			<point x="480" y="312" type="line"/>
			<point x="480" y="387" type="line"/>
			<point x="356" y="387" type="line"/>
			<point x="356" y="587" type="line"/>
			<point x="560" y="587" type="line"/>
			<point x="560" y="684" type="line"/>
			<point x="40" y="684" type="line"/>
			<point x="40" y="587" type="line"/>
			<point x="243" y="587" type="line"/>
			<point x="243" y="387" type="line"/>
			<point x="119" y="387" type="line"/>
			<point x="119" y="312" type="line"/>
			<point x="243" y="312" type="line"/>
		</contour>
	</outline>
</glyph>
<glyph name="tbar" format="2">
	<unicode hex="0167"/>
	<advance width="600"/>
	<outline>
		<contour>
			<point x="66" y="250" type="line"/>
			<point x="197" y="250" type="line"/>
			<point x="197" y="166" type="line" smooth="yes"/>
			<point x="197" y="36"/>
			<point x="264" y="-12"/>
			<point x="381" y="-12" type="curve" smooth="yes"/>
			<point x="433" y="-12"/>
			<point x="482" y="1"/>
			<point x="510" y="16" type="curve"/>
			<point x="510" y="99" type="line"/>
			<point x="484" y="86"/>
			<point x="442" y="78"/>
			<point x="411" y="78" type="curve" smooth="yes"/>
			<point x="347" y="78"/>
			<point x="308" y="105"/>
			<point x="308" y="182" type="curve" smooth="yes"/>
			<point x="308" y="250" type="line"/>
			<point x="504" y="250" type="line"/>
			<point x="504" y="321" type="line"/>
			<point x="308" y="321" type="line"/>
			<point x="308" y="434" type="line"/>
			<point x="514" y="434" type="line"/>
			<point x="514" y="523" type="line"/>
			<point x="308" y="523" type="line"/>
			<point x="308" y="692" type="line"/>
			<point x="211" y="692" type="line"/>
			<point x="204" y="584" type="line" smooth="yes"/>
			<point x="200" y="526"/>
			<point x="169" y="518"/>
			<point x="138" y="518" type="curve" smooth="yes"/>
			<point x="56" y="518" type="line"/>
			<point x="56" y="434" type="line"/>
			<point x="197" y="434" type="line"/>
			<point x="197" y="321" type="line"/>
			<point x="66" y="321" type="line"/>
		</contour>
	</outline>
</glyph>
<glyph name="Uogonek" format="2">
	<unicode hex="0172"/>
	<advance width="600"/>
	<outline>
		<contour>
			<point x="332" y="-203" type="curve" smooth="yes"/>
			<point x="362" y="-203"/>
			<point x="388" y="-198"/>
			<point x="402" y="-192" type="curve"/>
			<point x="402" y="-121" type="line"/>
			<point x="394" y="-124"/>
			<point x="378" y="-126"/>
			<point x="361" y="-126" type="curve" smooth="yes"/>
			<point x="330" y="-126"/>
			<point x="307" y="-114"/>
			<point x="307" y="-81" type="curve" smooth="yes"/>
			<point x="307" y="-51"/>
			<point x="330" y="-21"/>
			<point x="393" y="0" type="curve"/>
			<point x="392" y="0" type="line"/>
			<point x="487" y="31"/>
			<point x="534" y="115"/>
			<point x="534" y="243" type="curve" smooth="yes"/>
			<point x="534" y="684" type="line"/>
			<point x="422" y="684" type="line"/>
			<point x="422" y="243" type="line" smooth="yes"/>
			<point x="422" y="144"/>
			<point x="385" y="82"/>
			<point x="300" y="82" type="curve" smooth="yes"/>
			<point x="215" y="82"/>
			<point x="178" y="144"/>
			<point x="178" y="243" type="curve" smooth="yes"/>
			<point x="178" y="684" type="line"/>
			<point x="66" y="684" type="line"/>
			<point x="66" y="243" type="line" smooth="yes"/>
			<point x="66" y="81"/>
			<point x="134" y="-10"/>
			<point x="284" y="-14" type="curve"/>
			<point x="241" y="-38"/>
			<point x="217" y="-75"/>
			<point x="217" y="-114" type="curve" smooth="yes"/>
			<point x="217" y="-174"/>
			<point x="257" y="-203"/>
		</contour>
	</outline>
</glyph>
<glyph name="dotlessj" format="2">
	<unicode hex="0237"/>
	<advance width="600"/>
	<outline>
		<contour>
			<point x="221" y="-204" type="curve" smooth="yes"/>
			<point x="353" y="-204"/>
			<point x="466" y="-160"/>
			<point x="466" y="7" type="curve" smooth="yes"/>
			<point x="466" y="523" type="line"/>
			<point x="81" y="523" type="line"/>
			<point x="81" y="434" type="line"/>
			<point x="355" y="434" type="line"/>
			<point x="355" y="19" type="line" smooth="yes"/>
			<point x="355" y="-80"/>
			<point x="311" y="-113"/>
			<point x="205" y="-113" type="curve" smooth="yes"/>
			<point x="154" y="-113"/>
			<point x="109" y="-103"/>
			<point x="81" y="-93" type="curve"/>
			<point x="81" y="-181" type="line"/>
			<point x="111" y="-195"/>
			<point x="168" y="-204"/>
		</contour>
	</outline>
	<anchor name="top" x="411" y="523"/>
</glyph>
<glyph name="circumflex" format="2">
	<unicode hex="02C6"/>
	<advance width="600"/>
	<outline>
		<contour>
			<point x="126" y="603" type="line"/>
			<point x="226" y="603" type="line"/>
			<point x="300" y="700" type="line"/>
			<point x="372" y="603" type="line"/>
			<point x="474" y="603" type="line"/>
			<point x="359" y="750" type="line"/>
			<point x="241" y="750" type="line"/>
		</contour>
	</outline>
	<anchor name="_top" x="300" y="523"/>
</glyph>
<glyph name="breve" format="2">
	<unicode hex="02D8"/>
	<advance width="600"/>
	<outline>
		<contour>
			<point x="297" y="593" type="curve" smooth="yes"/>
			<point x="407" y="593"/>
			<point x="455" y="637"/>
			<point x="455" y="750" type="curve"/>
			<point x="372" y="750" type="line"/>
			<point x="372" y="683"/>
			<point x="354" y="657"/>
			<point x="300" y="657" type="curve" smooth="yes"/>
			<point x="245" y="657"/>
			<point x="228" y="684"/>
			<point x="228" y="750" type="curve"/>
			<point x="145" y="750" type="line"/>
			<point x="145" y="637"/>
			<point x="189" y="593"/>
		</contour>
	</outline>
	<anchor name="_top" x="300" y="523"/>
</glyph>
<glyph name="tilde" format="2">
	<unicode hex="02DC"/>
	<advance width="600"/>
	<outline>
		<contour>
			<point x="128" y="611" type="curve"/>
			<point x="206" y="611" type="line"/>
			<point x="206" y="651"/>
			<point x="215" y="672"/>
			<point x="241" y="672" type="curve" smooth="yes"/>
			<point x="281" y="672"/>
			<point x="301" y="607"/>
			<point x="371" y="607" type="curve" smooth="yes"/>
			<point x="428" y="607"/>
			<point x="471" y="639"/>
			<point x="471" y="738" type="curve"/>
			<point x="393" y="738" type="line"/>
			<point x="393" y="698"/>
			<point x="384" y="680"/>
			<point x="361" y="680" type="curve" smooth="yes"/>
			<point x="322" y="680"/>
			<point x="295" y="742"/>
			<point x="227" y="742" type="curve" smooth="yes"/>
			<point x="166" y="742"/>
			<point x="128" y="699"/>
		</contour>
	</outline>
	<anchor name="_top" x="300" y="523"/>
</glyph>
<glyph name="hungarumlaut" format="2">
	<unicode hex="02DD"/>
	<advance width="600"/>
	<outline>
		<contour>
			<point x="310" y="603" type="line"/>
			<point x="389" y="603" type="line"/>
			<point x="479" y="750" type="line"/>
			<point x="371" y="750" type="line"/>
		</contour>
		<contour>
			<point x="128" y="603" type="line"/>
			<point x="208" y="603" type="line"/>
			<point x="296" y="750" type="line"/>
			<point x="189" y="750" type="line"/>
		</contour>
	</outline>
	<anchor name="_top" x="259" y="523"/>
</glyph>
<glyph name="quoteleft" format="2">
	<unicode hex="2018"/>
	<advance width="600"/>
	<outline>
		<contour>
			<point x="342" y="458" type="line"/>
			<point x="392" y="750" type="line"/>
			<point x="317" y="750" type="line"/>
			<point x="205" y="458" type="line"/>
		</contour>
	</outline>
</glyph>
<glyph name="quotesinglbase" format="2">
	<unicode hex="201A"/>
	<advance width="600"/>
	<outline>
		<contour>
			<point x="258" y="134" type="line"/>
			<point x="208" y="-158" type="line"/>
			<point x="283" y="-158" type="line"/>
			<point x="395" y="134" type="line"/>
		</contour>
	</outline>
</glyph>
<glyph name="quotedblleft" format="2">
	<unicode hex="201C"/>
	<advance width="600"/>
	<outline>
		<contour>
			<point x="428" y="458" type="line"/>
			<point x="477" y="750" type="line"/>
			<point x="404" y="750" type="line"/>
			<point x="294" y="458" type="line"/>
		</contour>
		<contour>
			<point x="232" y="458" type="line"/>
			<point x="281" y="750" type="line"/>
			<point x="208" y="750" type="line"/>
			<point x="97" y="458" type="line"/>
		</contour>
	</outline>
</glyph>
<glyph name="quotedblright" format="2">
	<unicode hex="201D"/>
	<advance width="600"/>
	<outline>
		<contour>
			<point x="172" y="750" type="line"/>
			<point x="123" y="458" type="line"/>
			<point x="195" y="458" type="line"/>
			<point x="306" y="750" type="line"/>
		</contour>
		<contour>
			<point x="369" y="750" type="line"/>
			<point x="319" y="458" type="line"/>
			<point x="392" y="458" type="line"/>
			<point x="502" y="750" type="line"/>
		</contour>
	</outline>
</glyph>
<glyph name="dagger" format="2">
	<unicode hex="2020"/>
	<advance width="600"/>
	<outline>
		<contour>
			<point x="70" y="570" type="line"/>
			<point x="70" y="470" type="line"/>
			<point x="245" y="470" type="line"/>
			<point x="245" y="-143" type="line"/>
			<point x="354" y="-143" type="line"/>
			<point x="354" y="470" type="line"/>
			<point x="530" y="470" type="line"/>
			<point x="530" y="570" type="line"/>
			<point x="354" y="570" type="line"/>
			<point x="354" y="765" type="line"/>
			<point x="245" y="765" type="line"/>
			<point x="245" y="570" type="line"/>
		</contour>
	</outline>
</glyph>
<glyph name="daggerdbl" format="2">
	<unicode hex="2021"/>
	<advance width="600"/>
	<outline>
		<contour>
			<point x="70" y="212" type="line"/>
			<point x="70" y="116" type="line"/>
			<point x="246" y="116" type="line"/>
			<point x="246" y="-143" type="line"/>
			<point x="355" y="-143" type="line"/>
			<point x="355" y="116" type="line"/>
			<point x="530" y="116" type="line"/>
			<point x="530" y="212" type="line"/>
			<point x="355" y="212" type="line"/>
			<point x="355" y="485" type="line"/>
			<point x="530" y="485" type="line"/>
			<point x="530" y="580" type="line"/>
			<point x="355" y="580" type="line"/>
			<point x="355" y="765" type="line"/>
			<point x="246" y="765" type="line"/>
			<point x="246" y="580" type="line"/>
			<point x="70" y="580" type="line"/>
			<point x="70" y="485" type="line"/>
			<point x="246" y="485" type="line"/>
			<point x="246" y="212" type="line"/>
		</contour>
	</outline>
</glyph>
<glyph name="perthousand" format="2">
	<unicode hex="2030"/>
	<advance width="600"/>
	<outline>
		<contour>
			<point x="149" y="393" type="curve" smooth="yes"/>
			<point x="229" y="393"/>
			<point x="283" y="443"/>
			<point x="283" y="542" type="curve" smooth="yes"/>
			<point x="283" y="641"/>
			<point x="231" y="691"/>
			<point x="150" y="691" type="curve" smooth="yes"/>
			<point x="71" y="691"/>
			<point x="16" y="641"/>
			<point x="16" y="542" type="curve" smooth="yes"/>
			<point x="16" y="443"/>
			<point x="69" y="393"/>
		</contour>
		<contour>
			<point x="149" y="451" type="curve" smooth="yes"/>
			<point x="106" y="451"/>
			<point x="88" y="481"/>
			<point x="88" y="542" type="curve" smooth="yes"/>
			<point x="88" y="602"/>
			<point x="107" y="634"/>
			<point x="150" y="634" type="curve" smooth="yes"/>
			<point x="192" y="634"/>
			<point x="212" y="602"/>
			<point x="212" y="542" type="curve" smooth="yes"/>
			<point x="212" y="481"/>
			<point x="192" y="451"/>
		</contour>
		<contour>
			<point x="20" y="265" type="line"/>
			<point x="571" y="406" type="line"/>
			<point x="571" y="466" type="line"/>
			<point x="20" y="325" type="line"/>
		</contour>
		<contour>
			<point x="253" y="-7" type="curve" smooth="yes"/>
			<point x="296" y="-7"/>
			<point x="330" y="8"/>
			<point x="353" y="33" type="curve"/>
			<point x="376" y="7"/>
			<point x="409" y="-7"/>
			<point x="451" y="-7" type="curve" smooth="yes"/>
			<point x="531" y="-7"/>
			<point x="584" y="43"/>
			<point x="584" y="142" type="curve" smooth="yes"/>
			<point x="584" y="241"/>
			<point x="532" y="291"/>
			<point x="453" y="291" type="curve" smooth="yes"/>
			<point x="411" y="291"/>
			<point x="377" y="276"/>
			<point x="354" y="250" type="curve"/>
			<point x="331" y="276"/>
			<point x="298" y="291"/>
			<point x="254" y="291" type="curve" smooth="yes"/>
			<point x="176" y="291"/>
			<point x="122" y="241"/>
			<point x="122" y="142" type="curve" smooth="yes"/>
			<point x="122" y="43"/>
			<point x="174" y="-7"/>
		</contour>
		<contour>
			<point x="255" y="51" type="curve" smooth="yes"/>
			<point x="212" y="51"/>
			<point x="194" y="81"/>
			<point x="194" y="142" type="curve" smooth="yes"/>
			<point x="194" y="202"/>
			<point x="213" y="234"/>
			<point x="256" y="234" type="curve" smooth="yes"/>
			<point x="298" y="234"/>
			<point x="317" y="202"/>
			<point x="317" y="142" type="curve" smooth="yes"/>
			<point x="317" y="81"/>
			<point x="298" y="51"/>
		</contour>
		<contour>
			<point x="451" y="51" type="curve" smooth="yes"/>
			<point x="408" y="51"/>
			<point x="389" y="81"/>
			<point x="389" y="142" type="curve" smooth="yes"/>
			<point x="389" y="202"/>
			<point x="409" y="234"/>
			<point x="451" y="234" type="curve" smooth="yes"/>
			<point x="494" y="234"/>
			<point x="513" y="202"/>
			<point x="513" y="142" type="curve" smooth="yes"/>
			<point x="513" y="81"/>
			<point x="493" y="51"/>
		</contour>
	</outline>
</glyph>
<glyph name="guilsinglright" format="2">
	<unicode hex="203A"/>
	<advance width="600"/>
	<outline>
		<contour>
			<point x="130" y="77" type="line"/>
			<point x="269" y="77" type="line"/>
			<point x="482" y="287" type="line"/>
			<point x="268" y="497" type="line"/>
			<point x="130" y="497" type="line"/>
			<point x="343" y="290" type="line"/>
		</contour>
	</outline>
</glyph>
<glyph name="fraction" format="2">
	<unicode hex="2044"/>
	<advance width="600"/>
	<outline>
		<contour>
			<point x="376" y="415" type="line"/>
			<point x="472" y="415" type="line"/>
			<point x="580" y="684" type="line"/>
			<point x="468" y="684" type="line"/>
		</contour>
		<contour>
			<point x="20" y="0" type="line"/>
			<point x="132" y="0" type="line"/>
			<point x="225" y="269" type="line"/>
			<point x="128" y="269" type="line"/>
		</contour>
	</outline>
</glyph>
<glyph name="published" format="2">
	<unicode hex="2117"/>
	<advance width="600"/>
	<outline>
		<contour>
			<point x="300" y="104" type="curve" smooth="yes"/>
			<point x="446" y="104"/>
			<point x="559" y="198"/>
			<point x="559" y="373" type="curve" smooth="yes"/>
			<point x="559" y="387" type="line" smooth="yes"/>
			<point x="559" y="561"/>
			<point x="444" y="657"/>
			<point x="300" y="657" type="curve" smooth="yes"/>
			<point x="156" y="657"/>
			<point x="41" y="561"/>
			<point x="41" y="387" type="curve" smooth="yes"/>
			<point x="41" y="373" type="line" smooth="yes"/>
			<point x="41" y="198"/>
			<point x="154" y="104"/>
		</contour>
		<contour>
			<point x="300" y="158" type="curve" smooth="yes"/>
			<point x="172" y="158"/>
			<point x="96" y="240"/>
			<point x="96" y="376" type="curve" smooth="yes"/>
			<point x="96" y="383" type="line" smooth="yes"/>
			<point x="96" y="522"/>
			<point x="174" y="603"/>
			<point x="300" y="603" type="curve" smooth="yes"/>
			<point x="426" y="603"/>
			<point x="504" y="521"/>
			<point x="504" y="384" type="curve" smooth="yes"/>
			<point x="504" y="376" type="line" smooth="yes"/>
			<point x="504" y="239"/>
			<point x="428" y="158"/>
		</contour>
		<contour>
			<point x="209" y="250" type="line"/>
			<point x="264" y="250" type="line"/>
			<point x="264" y="331" type="line"/>
			<point x="317" y="331" type="line" smooth="yes"/>
			<point x="376" y="331"/>
			<point x="416" y="366"/>
			<point x="416" y="423" type="curve" smooth="yes"/>
			<point x="416" y="477"/>
			<point x="381" y="511"/>
			<point x="318" y="511" type="curve" smooth="yes"/>
			<point x="209" y="511" type="line"/>
		</contour>
		<contour>
			<point x="312" y="468" type="line" smooth="yes"/>
			<point x="342" y="468"/>
			<point x="362" y="450"/>
			<point x="362" y="422" type="curve" smooth="yes"/>
			<point x="362" y="395"/>
			<point x="343" y="374"/>
			<point x="312" y="374" type="curve" smooth="yes"/>
			<point x="264" y="374" type="line"/>
			<point x="264" y="468" type="line"/>
		</contour>
	</outline>
</glyph>
<glyph name="trademark" format="2">
	<unicode hex="2122"/>
	<advance width="600"/>
	<outline>
		<contour>
			<point x="293" y="342" type="line"/>
			<point x="347" y="342" type="line"/>
			<point x="347" y="492" type="line" smooth="yes"/>
			<point x="347" y="538"/>
			<point x="345" y="581"/>
			<point x="340" y="622" type="curve"/>
			<point x="345" y="622" type="line"/>
			<point x="399" y="432" type="line"/>
			<point x="452" y="432" type="line"/>
			<point x="506" y="622" type="line"/>
			<point x="511" y="622" type="line"/>
			<point x="506" y="581"/>
			<point x="505" y="539"/>
			<point x="505" y="492" type="curve" smooth="yes"/>
			<point x="505" y="342" type="line"/>
			<point x="559" y="342" type="line"/>
			<point x="559" y="684" type="line"/>
			<point x="476" y="684" type="line"/>
			<point x="426" y="495" type="line"/>
			<point x="424" y="495" type="line"/>
			<point x="375" y="684" type="line"/>
			<point x="293" y="684" type="line"/>
		</contour>
		<contour>
			<point x="108" y="342" type="line"/>
			<point x="170" y="342" type="line"/>
			<point x="170" y="632" type="line"/>
			<point x="261" y="632" type="line"/>
			<point x="261" y="684" type="line"/>
			<point x="15" y="684" type="line"/>
			<point x="15" y="632" type="line"/>
			<point x="108" y="632" type="line"/>
		</contour>
	</outline>
</glyph>
<glyph name="arrowleft" format="2">
	<unicode hex="2190"/>
	<advance width="600"/>
	<outline>
		<contour>
			<point x="359" y="129" type="line"/>
			<point x="177" y="309" type="line"/>
			<point x="563" y="309" type="line"/>
			<point x="563" y="401" type="line"/>
			<point x="177" y="401" type="line"/>
			<point x="358" y="580" type="line"/>
			<point x="241" y="580" type="line"/>
			<point x="16" y="355" type="line"/>
			<point x="242" y="129" type="line"/>
		</contour>
	</outline>
</glyph>
<glyph name="arrowup" format="2">
	<unicode hex="2191"/>
	<advance width="600"/>
	<outline>
		<contour>
			<point x="254" y="0" type="line"/>
			<point x="346" y="0" type="line"/>
			<point x="346" y="542" type="line"/>
			<point x="525" y="362" type="line"/>
			<point x="525" y="479" type="line"/>
			<point x="300" y="703" type="line"/>
			<point x="75" y="477" type="line"/>
			<point x="75" y="362" type="line"/>
			<point x="254" y="543" type="line"/>
		</contour>
	</outline>
</glyph>
<glyph name="partialdiff" format="2">
	<unicode hex="2202"/>
	<advance width="600"/>
	<outline>
		<contour>
			<point x="295" y="-13" type="curve" smooth="yes"/>
			<point x="438" y="-13"/>
			<point x="542" y="88"/>
			<point x="542" y="282" type="curve" smooth="yes"/>
			<point x="542" y="296" type="line" smooth="yes"/>
			<point x="542" y="488"/>
			<point x="453" y="606"/>
			<point x="335" y="684" type="curve"/>
			<point x="165" y="684" type="line"/>
			<point x="294" y="608"/>
			<point x="373" y="535"/>
			<point x="410" y="418" type="curve"/>
			<point x="369" y="472"/>
			<point x="320" y="501"/>
			<point x="254" y="501" type="curve" smooth="yes"/>
			<point x="135" y="501"/>
			<point x="58" y="397"/>
			<point x="58" y="256" type="curve" smooth="yes"/>
			<point x="58" y="242" type="line" smooth="yes"/>
			<point x="58" y="76"/>
			<point x="151" y="-13"/>
		</contour>
		<contour>
			<point x="299" y="75" type="curve" smooth="yes"/>
			<point x="219" y="75"/>
			<point x="172" y="134"/>
			<point x="172" y="244" type="curve" smooth="yes"/>
			<point x="172" y="251" type="line" smooth="yes"/>
			<point x="172" y="370"/>
			<point x="226" y="422"/>
			<point x="302" y="422" type="curve" smooth="yes"/>
			<point x="375" y="422"/>
			<point x="428" y="376"/>
			<point x="428" y="258" type="curve" smooth="yes"/>
			<point x="428" y="251" type="line" smooth="yes"/>
			<point x="428" y="135"/>
			<point x="378" y="75"/>
		</contour>
	</outline>
</glyph>
<glyph name="increment" format="2">
	<unicode hex="2206"/>
	<advance width="600"/>
	<outline>
		<contour>
			<point x="18" y="0" type="line"/>
			<point x="582" y="0" type="line"/>
			<point x="376" y="686" type="line"/>
			<point x="221" y="686" type="line"/>
		</contour>
		<contour>
			<point x="160" y="94" type="line"/>
			<point x="298" y="605" type="line"/>
			<point x="438" y="94" type="line"/>
		</contour>
	</outline>
</glyph>
<glyph name="product" format="2">
	<unicode hex="220F"/>
	<advance width="600"/>
	<outline>
		<contour>
			<point x="71" y="0" type="line"/>
			<point x="180" y="0" type="line"/>
			<point x="180" y="590" type="line"/>
			<point x="420" y="590" type="line"/>
			<point x="420" y="0" type="line"/>
			<point x="529" y="0" type="line"/>
			<point x="529" y="684" type="line"/>
			<point x="71" y="684" type="line"/>
		</contour>
	</outline>
</glyph>
<glyph name="summation" format="2">
	<unicode hex="2211"/>
	<advance width="600"/>
	<outline>
		<contour>
			<point x="63" y="0" type="line"/>
			<point x="539" y="0" type="line"/>
			<point x="539" y="94" type="line"/>
			<point x="204" y="94" type="line"/>
			<point x="433" y="304" type="line"/>
			<point x="433" y="383" type="line"/>
			<point x="213" y="591" type="line"/>
			<point x="532" y="591" type="line"/>
			<point x="532" y="684" type="line"/>
			<point x="64" y="684" type="line"/>
			<point x="64" y="592" type="line"/>
			<point x="335" y="343" type="line"/>
			<point x="63" y="95" type="line"/>
		</contour>
	</outline>
</glyph>
<glyph name="minus" format="2">
	<unicode hex="2212"/>
	<advance width="600"/>
	<outline>
		<contour>
			<point x="71" y="251" type="line"/>
			<point x="529" y="251" type="line"/>
			<point x="529" y="346" type="line"/>
			<point x="71" y="346" type="line"/>
		</contour>
	</outline>
</glyph>
<glyph name="radical" format="2">
	<unicode hex="221A"/>
	<advance width="600"/>
	<outline>
		<contour>
			<point x="204" y="0" type="line"/>
			<point x="346" y="0" type="line"/>
			<point x="576" y="684" type="line"/>
			<point x="457" y="684" type="line"/>
			<point x="277" y="115" type="line"/>
			<point x="181" y="450" type="line"/>
			<point x="33" y="450" type="line"/>
			<point x="33" y="354" type="line"/>
			<point x="96" y="354" type="line"/>
		</contour>
	</outline>
</glyph>
<glyph name="commaaccent" format="2">
	<unicode hex="F6C3"/>
	<advance width="600"/>
	<outline>
		<contour>
			<point x="244" y="-276" type="curve"/>
			<point x="313" y="-276" type="line"/>
			<point x="337" y="-252"/>
			<point x="370" y="-190"/>
			<point x="370" y="-128" type="curve" smooth="yes"/>
			<point x="370" y="-82"/>
			<point x="353" y="-58"/>
			<point x="301" y="-58" type="curve" smooth="yes"/>
			<point x="258" y="-58"/>
			<point x="232" y="-73"/>
			<point x="232" y="-118" type="curve" smooth="yes"/>
			<point x="232" y="-155"/>
			<point x="248" y="-171"/>
			<point x="285" y="-174" type="curve"/>
			<point x="278" y="-207"/>
			<point x="263" y="-245"/>
		</contour>
	</outline>
	<anchor name="_bottom" x="301" y="0"/>
	<anchor name="anchor" x="296" y="0"/>
</glyph>
<glyph name="Lslashcomb" format="2">
	<advance width="600"/>
	<outline>
		<contour>
			<point x="26" y="397" type="line"/>
			<point x="26" y="315" type="line"/>
			<point x="393" y="459" type="line"/>
			<point x="393" y="541" type="line"/>
		</contour>
	</outline>
	<anchor name="_center" x="160" y="403"/>
</glyph>
<glyph name=".notdef" format="2">
	<advance width="600"/>
	<outline>
		<contour>
			<point x="75" y="-100" type="line"/>
			<point x="525" y="-100" type="line"/>
			<point x="525" y="784" type="line"/>
			<point x="75" y="784" type="line"/>
		</contour>
		<contour>
			<point x="161" y="-22.6" type="line"/>
			<point x="161" y="706.6" type="line"/>
			<point x="439" y="706.6" type="line"/>
			<point x="439" y="-22.6" type="line"/>
		</contour>
	</outline>
</glyph>
<glyph name="ampersand_ampersand_ampersand.rem" format="2">
	<advance width="600"/>
	<outline>
		<contour>
			<point x="-835" y="-14" type="curve" smooth="yes"/>
			<point x="-743" y="-14"/>
			<point x="-662" y="15"/>
			<point x="-600" y="81" type="curve"/>
			<point x="-564" y="19"/>
			<point x="-491" y="-14"/>
			<point x="-400" y="-14" type="curve" smooth="yes"/>
			<point x="-307" y="-14"/>
			<point x="-226" y="16"/>
			<point x="-163" y="83" type="curve"/>
			<point x="-128" y="21"/>
			<point x="-58" y="-14"/>
			<point x="30" y="-14" type="curve" smooth="yes"/>
			<point x="124" y="-14"/>
			<point x="200" y="20"/>
			<point x="259" y="77" type="curve"/>
			<point x="336" y="0" type="line"/>
			<point x="465" y="0" type="line"/>
			<point x="319" y="151" type="line"/>
			<point x="362" y="219"/>
			<point x="390" y="303"/>
			<point x="403" y="395" type="curve"/>
			<point x="309" y="394" type="line"/>
			<point x="299" y="329"/>
			<point x="281" y="268"/>
			<point x="255" y="216" type="curve"/>
			<point x="89" y="386" type="line" smooth="yes"/>
			<point x="50" y="427"/>
			<point x="24" y="461"/>
			<point x="24" y="513" type="curve" smooth="yes"/>
			<point x="24" y="571"/>
			<point x="65" y="607"/>
			<point x="137" y="607" type="curve" smooth="yes"/>
			<point x="193" y="607"/>
			<point x="248" y="584"/>
			<point x="283" y="561" type="curve"/>
			<point x="283" y="658" type="line"/>
			<point x="250" y="678"/>
			<point x="193" y="698"/>
			<point x="130" y="698" type="curve" smooth="yes"/>
			<point x="-9" y="698"/>
			<point x="-81" y="617"/>
			<point x="-81" y="514" type="curve" smooth="yes"/>
			<point x="-81" y="471"/>
			<point x="-70" y="436"/>
			<point x="-51" y="404" type="curve"/>
			<point x="-113" y="368"/>
			<point x="-167" y="308"/>
			<point x="-182" y="225" type="curve"/>
			<point x="-348" y="386" type="line" smooth="yes"/>
			<point x="-388" y="426"/>
			<point x="-414" y="461"/>
			<point x="-414" y="513" type="curve" smooth="yes"/>
			<point x="-414" y="571"/>
			<point x="-372" y="607"/>
			<point x="-299" y="607" type="curve" smooth="yes"/>
			<point x="-245" y="607"/>
			<point x="-194" y="585"/>
			<point x="-160" y="564" type="curve"/>
			<point x="-160" y="661" type="line"/>
			<point x="-191" y="680"/>
			<point x="-245" y="698"/>
			<point x="-305" y="698" type="curve" smooth="yes"/>
			<point x="-446" y="698"/>
			<point x="-519" y="617"/>
			<point x="-519" y="514" type="curve" smooth="yes"/>
			<point x="-519" y="470"/>
			<point x="-508" y="435"/>
			<point x="-490" y="403" type="curve"/>
			<point x="-552" y="368"/>
			<point x="-605" y="311"/>
			<point x="-620" y="229" type="curve"/>
			<point x="-783" y="386" type="line" smooth="yes"/>
			<point x="-824" y="426"/>
			<point x="-850" y="461"/>
			<point x="-850" y="513" type="curve" smooth="yes"/>
			<point x="-850" y="571"/>
			<point x="-807" y="607"/>
			<point x="-734" y="607" type="curve" smooth="yes"/>
			<point x="-681" y="607"/>
			<point x="-630" y="585"/>
			<point x="-596" y="564" type="curve"/>
			<point x="-596" y="661" type="line"/>
			<point x="-627" y="679"/>
			<point x="-681" y="698"/>
			<point x="-741" y="698" type="curve" smooth="yes"/>
			<point x="-882" y="698"/>
			<point x="-954" y="617"/>
			<point x="-954" y="514" type="curve" smooth="yes"/>
			<point x="-954" y="470"/>
			<point x="-944" y="434"/>
			<point x="-925" y="402" type="curve"/>
			<point x="-995" y="361"/>
			<point x="-1054" y="288"/>
			<point x="-1054" y="181" type="curve" smooth="yes"/>
			<point x="-1054" y="55"/>
			<point x="-963" y="-14"/>
		</contour>
		<contour>
			<point x="-86" y="193" type="curve" smooth="yes"/>
			<point x="-86" y="260"/>
			<point x="-46" y="310"/>
			<point x="1" y="338" type="curve"/>
			<point x="5" y="334"/>
			<point x="8" y="330"/>
			<point x="12" y="326" type="curve" smooth="yes"/>
			<point x="199" y="138" type="line"/>
			<point x="160" y="97"/>
			<point x="109" y="73"/>
			<point x="47" y="73" type="curve" smooth="yes"/>
			<point x="-33" y="73"/>
			<point x="-86" y="122"/>
		</contour>
		<contour>
			<point x="-521" y="195" type="curve" smooth="yes"/>
			<point x="-521" y="265"/>
			<point x="-482" y="310"/>
			<point x="-437" y="337" type="curve"/>
			<point x="-433" y="334"/>
			<point x="-429" y="330"/>
			<point x="-425" y="326" type="curve" smooth="yes"/>
			<point x="-227" y="144" type="line"/>
			<point x="-266" y="99"/>
			<point x="-321" y="73"/>
			<point x="-383" y="73" type="curve" smooth="yes"/>
			<point x="-466" y="73"/>
			<point x="-521" y="117"/>
		</contour>
		<contour>
			<point x="-954" y="195" type="curve" smooth="yes"/>
			<point x="-954" y="265"/>
			<point x="-916" y="310"/>
			<point x="-871" y="337" type="curve"/>
			<point x="-868" y="334"/>
			<point x="-864" y="330"/>
			<point x="-860" y="326" type="curve" smooth="yes"/>
			<point x="-662" y="144" type="line"/>
			<point x="-701" y="99"/>
			<point x="-756" y="73"/>
			<point x="-818" y="73" type="curve" smooth="yes"/>
			<point x="-900" y="73"/>
			<point x="-954" y="117"/>
		</contour>
	</outline>
</glyph>
<glyph name="asciitilde_equal.cLig.x" format="2">
	<advance width="600"/>
	<outline>
		<contour>
			<point x="-320" y="320" type="line"/>
			<point x="-278" y="382"/>
			<point x="-219" y="408"/>
			<point x="-158" y="408" type="curve" smooth="yes"/>
			<point x="-54" y="408"/>
			<point x="23" y="310"/>
			<point x="157" y="310" type="curve" smooth="yes"/>
			<point x="228" y="310"/>
			<point x="288" y="339"/>
			<point x="320" y="387" type="curve"/>
			<point x="320" y="495" type="line"/>
			<point x="267" y="425"/>
			<point x="216" y="406"/>
			<point x="150" y="407" type="curve" smooth="yes"/>
			<point x="51" y="410"/>
			<point x="-32" y="505"/>
			<point x="-159" y="505" type="curve" smooth="yes"/>
			<point x="-226" y="505"/>
			<point x="-289" y="476"/>
			<point x="-320" y="429" type="curve"/>
		</contour>
		<contour>
			<point x="-320" y="138" type="line"/>
			<point x="320" y="138" type="line"/>
			<point x="320" y="234" type="line"/>
			<point x="-320" y="234" type="line"/>
		</contour>
	</outline>
</glyph>
<glyph name="asciitilde_hyphen.cLig" format="2">
	<advance width="600"/>
	<outline>
		<contour>
			<point x="408" y="360" type="line"/>
			<point x="3" y="360" type="line"/>
			<point x="-3" y="316"/>
			<point x="-24" y="290"/>
			<point x="-56" y="290" type="curve" smooth="yes"/>
			<point x="-123" y="290"/>
			<point x="-147" y="417"/>
			<point x="-260" y="417" type="curve" smooth="yes"/>
			<point x="-341" y="417"/>
			<point x="-394" y="364"/>
			<point x="-394" y="207" type="curve"/>
			<point x="-305" y="207" type="line"/>
			<point x="-305" y="283"/>
			<point x="-289" y="315"/>
			<point x="-249" y="315" type="curve"/>
			<point x="-182" y="315"/>
			<point x="-151" y="189"/>
			<point x="-47" y="189" type="curve" smooth="yes"/>
			<point x="5" y="189"/>
			<point x="42" y="213"/>
			<point x="63" y="259" type="curve"/>
			<point x="408" y="259" type="line"/>
		</contour>
	</outline>
</glyph>
<glyph name="asterisk_asterisk.cLig" format="2">
	<advance width="600"/>
	<outline>
		<contour>
			<point x="-99" y="153" type="line"/>
			<point x="-44" y="248" type="line"/>
			<point x="-225" y="321" type="line"/>
			<point x="-43" y="394" type="line"/>
			<point x="-98" y="490" type="line"/>
			<point x="-253" y="368" type="line"/>
			<point x="-226" y="563" type="line"/>
			<point x="-336" y="563" type="line"/>
			<point x="-309" y="369" type="line"/>
			<point x="-464" y="490" type="line"/>
			<point x="-519" y="395" type="line"/>
			<point x="-336" y="321" type="line"/>
			<point x="-518" y="247" type="line"/>
			<point x="-463" y="151" type="line"/>
			<point x="-309" y="273" type="line"/>
			<point x="-335" y="78" type="line"/>
			<point x="-225" y="78" type="line"/>
			<point x="-253" y="273" type="line"/>
		</contour>
		<contour>
			<point x="464" y="152" type="line"/>
			<point x="519" y="247" type="line"/>
			<point x="338" y="320" type="line"/>
			<point x="520" y="393" type="line"/>
			<point x="465" y="489" type="line"/>
			<point x="310" y="367" type="line"/>
			<point x="337" y="562" type="line"/>
			<point x="227" y="562" type="line"/>
			<point x="254" y="368" type="line"/>
			<point x="99" y="489" type="line"/>
			<point x="44" y="394" type="line"/>
			<point x="227" y="320" type="line"/>
			<point x="45" y="246" type="line"/>
			<point x="100" y="150" type="line"/>
			<point x="254" y="272" type="line"/>
			<point x="228" y="77" type="line"/>
			<point x="338" y="77" type="line"/>
			<point x="310" y="272" type="line"/>
		</contour>
	</outline>
</glyph>
<glyph name="asterisk_asterisk_asterisk.cLig" format="2">
	<advance width="600"/>
	<outline>
		<contour>
			<point x="-118" y="274" type="line"/>
			<point x="-63" y="369" type="line"/>
			<point x="-244" y="442" type="line"/>
			<point x="-62" y="515" type="line"/>
			<point x="-117" y="611" type="line"/>
			<point x="-272" y="489" type="line"/>
			<point x="-245" y="684" type="line"/>
			<point x="-355" y="684" type="line"/>
			<point x="-328" y="490" type="line"/>
			<point x="-483" y="611" type="line"/>
			<point x="-538" y="516" type="line"/>
			<point x="-355" y="442" type="line"/>
			<point x="-537" y="368" type="line"/>
			<point x="-482" y="272" type="line"/>
			<point x="-328" y="394" type="line"/>
			<point x="-354" y="199" type="line"/>
			<point x="-244" y="199" type="line"/>
			<point x="-272" y="394" type="line"/>
		</contour>
		<contour>
			<point x="-673" y="75" type="line"/>
			<point x="-618" y="170" type="line"/>
			<point x="-799" y="243" type="line"/>
			<point x="-617" y="316" type="line"/>
			<point x="-672" y="412" type="line"/>
			<point x="-827" y="290" type="line"/>
			<point x="-800" y="485" type="line"/>
			<point x="-910" y="485" type="line"/>
			<point x="-883" y="291" type="line"/>
			<point x="-1038" y="412" type="line"/>
			<point x="-1093" y="317" type="line"/>
			<point x="-910" y="243" type="line"/>
			<point x="-1092" y="169" type="line"/>
			<point x="-1037" y="73" type="line"/>
			<point x="-883" y="195" type="line"/>
			<point x="-909" y="0" type="line"/>
			<point x="-799" y="0" type="line"/>
			<point x="-827" y="195" type="line"/>
		</contour>
		<contour>
			<point x="438" y="75" type="line"/>
			<point x="493" y="170" type="line"/>
			<point x="312" y="243" type="line"/>
			<point x="494" y="316" type="line"/>
			<point x="439" y="412" type="line"/>
			<point x="284" y="290" type="line"/>
			<point x="311" y="485" type="line"/>
			<point x="201" y="485" type="line"/>
			<point x="228" y="291" type="line"/>
			<point x="73" y="412" type="line"/>
			<point x="18" y="317" type="line"/>
			<point x="201" y="243" type="line"/>
			<point x="19" y="169" type="line"/>
			<point x="74" y="73" type="line"/>
			<point x="228" y="195" type="line"/>
			<point x="202" y="0" type="line"/>
			<point x="312" y="0" type="line"/>
			<point x="284" y="195" type="line"/>
		</contour>
	</outline>
</glyph>
<glyph name="asterisk_greater.cLig" format="2">
	<advance width="600"/>
	<outline>
		<contour>
			<point x="54" y="-8" type="line"/>
			<point x="500" y="253" type="line"/>
			<point x="500" y="375" type="line"/>
			<point x="54" y="636" type="line"/>
			<point x="54" y="525" type="line"/>
			<point x="420" y="313" type="line"/>
			<point x="54" y="103" type="line"/>
		</contour>
		<contour>
			<point x="-67" y="149" type="line"/>
			<point x="-12" y="244" type="line"/>
			<point x="-195" y="318" type="line"/>
			<point x="-13" y="392" type="line"/>
			<point x="-68" y="487" type="line"/>
			<point x="-222" y="366" type="line"/>
			<point x="-196" y="561" type="line"/>
			<point x="-306" y="561" type="line"/>
			<point x="-278" y="366" type="line"/>
			<point x="-432" y="486" type="line"/>
			<point x="-487" y="391" type="line"/>
			<point x="-306" y="318" type="line"/>
			<point x="-488" y="245" type="line"/>
			<point x="-433" y="149" type="line"/>
			<point x="-278" y="270" type="line"/>
			<point x="-305" y="76" type="line"/>
			<point x="-195" y="76" type="line"/>
			<point x="-222" y="270" type="line"/>
		</contour>
	</outline>
</glyph>
<glyph name="bar_bar_bar.cLig" format="2">
	<advance width="600"/>
	<outline>
		<contour>
			<point x="147" y="792" type="line"/>
			<point x="147" y="-163" type="line"/>
			<point x="251" y="-163" type="line"/>
			<point x="251" y="792" type="line"/>
		</contour>
		<contour>
			<point x="-851" y="792" type="line"/>
			<point x="-851" y="-163" type="line"/>
			<point x="-747" y="-163" type="line"/>
			<point x="-747" y="792" type="line"/>
		</contour>
		<contour>
			<point x="-352" y="792" type="line"/>
			<point x="-352" y="-163" type="line"/>
			<point x="-248" y="-163" type="line"/>
			<point x="-248" y="792" type="line"/>
		</contour>
	</outline>
</glyph>
<glyph name="bar_bar_bar_greater.cLig" format="2">
	<advance width="600"/>
	<outline>
		<contour>
			<point x="-886" y="-79" type="line"/>
			<point x="-782" y="-79" type="line"/>
			<point x="-782" y="708" type="line"/>
			<point x="-886" y="708" type="line"/>
		</contour>
		<contour>
			<point x="-1458" y="-79" type="line"/>
			<point x="-1354" y="-79" type="line"/>
			<point x="-1354" y="708" type="line"/>
			<point x="-1458" y="708" type="line"/>
		</contour>
		<contour>
			<point x="-315" y="-79" type="line"/>
			<point x="-210" y="-79" type="line"/>
			<point x="326" y="253" type="line"/>
			<point x="326" y="376" type="line"/>
			<point x="-210" y="708" type="line"/>
			<point x="-315" y="708" type="line"/>
		</contour>
		<contour>
			<point x="-210" y="588" type="line"/>
			<point x="237" y="316" type="line"/>
			<point x="-210" y="40" type="line"/>
		</contour>
	</outline>
</glyph>
<glyph name="bar_bar_greater.cLig" format="2">
	<advance width="600"/>
	<outline>
		<contour>
			<point x="-866" y="708" type="line"/>
			<point x="-866" y="-79" type="line"/>
			<point x="-762" y="-79" type="line"/>
			<point x="-762" y="708" type="line"/>
		</contour>
		<contour>
			<point x="-306" y="-79" type="line"/>
			<point x="-202" y="-79" type="line"/>
			<point x="334" y="253" type="line"/>
			<point x="334" y="376" type="line"/>
			<point x="-202" y="708" type="line"/>
			<point x="-306" y="708" type="line"/>
		</contour>
		<contour>
			<point x="-202" y="588" type="line"/>
			<point x="245" y="316" type="line"/>
			<point x="-202" y="40" type="line"/>
		</contour>
	</outline>
</glyph>
<glyph name="bar_bar_hyphen.med" format="2">
	<advance width="600"/>
	<outline>
		<contour>
			<point x="138" y="-55" type="line"/>
			<point x="242" y="-55" type="line"/>
			<point x="242" y="263" type="line"/>
			<point x="600" y="263" type="line"/>
			<point x="600" y="364" type="line"/>
			<point x="242" y="364" type="line"/>
			<point x="242" y="684" type="line"/>
			<point x="138" y="684" type="line"/>
		</contour>
		<contour>
			<point x="-600" y="263" type="line"/>
			<point x="-242" y="263" type="line"/>
			<point x="-242" y="-55" type="line"/>
			<point x="-138" y="-55" type="line"/>
			<point x="-138" y="684" type="line"/>
			<point x="-242" y="684" type="line"/>
			<point x="-242" y="364" type="line"/>
			<point x="-600" y="364" type="line"/>
		</contour>
	</outline>
</glyph>
<glyph name="bar_bar_hyphen.rem" format="2">
	<advance width="600"/>
	<outline>
		<contour>
			<point x="-965" y="-55" type="line"/>
			<point x="-860" y="-55" type="line"/>
			<point x="-860" y="684" type="line"/>
			<point x="-965" y="684" type="line"/>
		</contour>
		<contour>
			<point x="-582" y="-55" type="line"/>
			<point x="-478" y="-55" type="line"/>
			<point x="-478" y="263" type="line"/>
			<point x="432" y="263" type="line"/>
			<point x="432" y="364" type="line"/>
			<point x="-478" y="364" type="line"/>
			<point x="-478" y="684" type="line"/>
			<point x="-582" y="684" type="line"/>
		</contour>
	</outline>
</glyph>
<glyph name="bar_braceright.cLig" format="2">
	<advance width="600"/>
	<outline>
		<contour>
			<point x="199" y="-163" type="curve" smooth="yes"/>
			<point x="-53" y="-163" type="line"/>
			<point x="-53" y="-81" type="line"/>
			<point x="164" y="-81" type="line" smooth="yes"/>
			<point x="223" y="-81"/>
			<point x="256" y="-56"/>
			<point x="256" y="-8" type="curve" smooth="yes"/>
			<point x="256" y="60"/>
			<point x="166" y="120"/>
			<point x="166" y="206" type="curve" smooth="yes"/>
			<point x="166" y="260"/>
			<point x="218" y="303"/>
			<point x="288" y="314" type="curve"/>
			<point x="217" y="325"/>
			<point x="166" y="369"/>
			<point x="166" y="424" type="curve" smooth="yes"/>
			<point x="166" y="509"/>
			<point x="256" y="569"/>
			<point x="256" y="638" type="curve" smooth="yes"/>
			<point x="256" y="688"/>
			<point x="221" y="710"/>
			<point x="166" y="710" type="curve" smooth="yes"/>
			<point x="-53" y="710" type="line"/>
			<point x="-53" y="792" type="line"/>
			<point x="199" y="792" type="line" smooth="yes"/>
			<point x="310" y="792"/>
			<point x="370" y="728"/>
			<point x="370" y="652" type="curve" smooth="yes"/>
			<point x="370" y="557"/>
			<point x="279" y="496"/>
			<point x="279" y="428" type="curve" smooth="yes"/>
			<point x="279" y="399"/>
			<point x="300" y="362"/>
			<point x="365" y="362" type="curve" smooth="yes"/>
			<point x="433" y="362" type="line"/>
			<point x="433" y="265" type="line"/>
			<point x="365" y="265" type="line" smooth="yes"/>
			<point x="300" y="265"/>
			<point x="279" y="228"/>
			<point x="279" y="198" type="curve" smooth="yes"/>
			<point x="279" y="132"/>
			<point x="370" y="71"/>
			<point x="370" y="-23" type="curve" smooth="yes"/>
			<point x="370" y="-100"/>
			<point x="314" y="-163"/>
		</contour>
		<contour>
			<point x="-254" y="792" type="line"/>
			<point x="-254" y="-163" type="line"/>
			<point x="-358" y="-163" type="line"/>
			<point x="-358" y="792" type="line"/>
		</contour>
	</outline>
</glyph>
<glyph name="bar_bracketright.cLig" format="2">
	<advance width="600"/>
	<outline>
		<contour>
			<point x="-59" y="710" type="line"/>
			<point x="283" y="710" type="line"/>
			<point x="283" y="-81" type="line"/>
			<point x="-59" y="-81" type="line"/>
			<point x="-59" y="-163" type="line"/>
			<point x="388" y="-163" type="line"/>
			<point x="388" y="792" type="line"/>
			<point x="-59" y="792" type="line"/>
		</contour>
		<contour>
			<point x="-252" y="-163" type="line"/>
			<point x="-252" y="792" type="line"/>
			<point x="-356" y="792" type="line"/>
			<point x="-356" y="-163" type="line"/>
		</contour>
	</outline>
</glyph>
<glyph name="bar_equal.init" format="2">
	<advance width="600"/>
	<outline>
		<contour>
			<point x="138" y="684" type="line"/>
			<point x="138" y="-55" type="line"/>
			<point x="242" y="-55" type="line"/>
			<point x="242" y="158" type="line"/>
			<point x="600" y="158" type="line"/>
			<point x="600" y="254" type="line"/>
			<point x="242" y="254" type="line"/>
			<point x="242" y="375" type="line"/>
			<point x="600" y="375" type="line"/>
			<point x="600" y="471" type="line"/>
			<point x="242" y="471" type="line"/>
			<point x="242" y="684" type="line"/>
		</contour>
	</outline>
</glyph>
<glyph name="bar_hyphen.med" format="2">
	<advance width="600"/>
	<outline>
		<contour>
			<point x="248" y="-55" type="line"/>
			<point x="352" y="-55" type="line"/>
			<point x="352" y="263" type="line"/>
			<point x="600" y="263" type="line"/>
			<point x="600" y="364" type="line"/>
			<point x="352" y="364" type="line"/>
			<point x="352" y="684" type="line"/>
			<point x="248" y="684" type="line"/>
			<point x="248" y="364" type="line"/>
			<point x="0" y="364" type="line"/>
			<point x="0" y="263" type="line"/>
			<point x="248" y="263" type="line"/>
		</contour>
	</outline>
</glyph>
<glyph name="braceleft_braceleft.cLig" format="2">
	<advance width="600"/>
	<outline>
		<contour>
			<point x="-15" y="-163" type="line"/>
			<point x="-15" y="-81" type="line"/>
			<point x="-158" y="-81" type="line" smooth="yes"/>
			<point x="-217" y="-81"/>
			<point x="-250" y="-54"/>
			<point x="-250" y="-6" type="curve"/>
			<point x="-250" y="70"/>
			<point x="-155" y="118"/>
			<point x="-155" y="210" type="curve" smooth="yes"/>
			<point x="-155" y="264"/>
			<point x="-207" y="304"/>
			<point x="-278" y="315" type="curve"/>
			<point x="-204" y="327"/>
			<point x="-155" y="368"/>
			<point x="-155" y="422" type="curve" smooth="yes"/>
			<point x="-155" y="511"/>
			<point x="-250" y="564"/>
			<point x="-250" y="633" type="curve" smooth="yes"/>
			<point x="-250" y="683"/>
			<point x="-215" y="709"/>
			<point x="-154" y="709" type="curve" smooth="yes"/>
			<point x="173" y="709" type="line"/>
			<point x="118" y="692"/>
			<point x="99" y="652"/>
			<point x="99" y="616" type="curve" smooth="yes"/>
			<point x="99" y="534"/>
			<point x="189" y="485"/>
			<point x="189" y="423" type="curve" smooth="yes"/>
			<point x="189" y="394"/>
			<point x="169" y="362"/>
			<point x="103" y="362" type="curve" smooth="yes"/>
			<point x="29" y="362" type="line"/>
			<point x="29" y="266" type="line"/>
			<point x="104" y="266" type="line" smooth="yes"/>
			<point x="175" y="266"/>
			<point x="195" y="230"/>
			<point x="195" y="201" type="curve" smooth="yes"/>
			<point x="195" y="127"/>
			<point x="99" y="72"/>
			<point x="99" y="-20" type="curve"/>
			<point x="99" y="-100"/>
			<point x="151" y="-163"/>
			<point x="270" y="-163" type="curve" smooth="yes"/>
			<point x="454" y="-163" type="line"/>
			<point x="454" y="-81" type="line"/>
			<point x="305" y="-81" type="line" smooth="yes"/>
			<point x="245" y="-81"/>
			<point x="212" y="-56"/>
			<point x="212" y="-7" type="curve"/>
			<point x="212" y="63"/>
			<point x="306" y="116"/>
			<point x="306" y="206" type="curve" smooth="yes"/>
			<point x="306" y="263"/>
			<point x="255" y="303"/>
			<point x="187" y="315" type="curve"/>
			<point x="254" y="328"/>
			<point x="307" y="366"/>
			<point x="307" y="424" type="curve" smooth="yes"/>
			<point x="307" y="510"/>
			<point x="212" y="564"/>
			<point x="212" y="633" type="curve" smooth="yes"/>
			<point x="212" y="683"/>
			<point x="249" y="709"/>
			<point x="310" y="709" type="curve" smooth="yes"/>
			<point x="467" y="709" type="line"/>
			<point x="467" y="791" type="line"/>
			<point x="-193" y="791" type="line" smooth="yes"/>
			<point x="-303" y="791"/>
			<point x="-364" y="724"/>
			<point x="-364" y="648" type="curve" smooth="yes"/>
			<point x="-364" y="552"/>
			<point x="-268" y="496"/>
			<point x="-268" y="427" type="curve" smooth="yes"/>
			<point x="-268" y="398"/>
			<point x="-289" y="361"/>
			<point x="-355" y="361" type="curve" smooth="yes"/>
			<point x="-432" y="361" type="line"/>
			<point x="-432" y="266" type="line"/>
			<point x="-355" y="266" type="line" smooth="yes"/>
			<point x="-290" y="266"/>
			<point x="-268" y="230"/>
			<point x="-268" y="201" type="curve" smooth="yes"/>
			<point x="-268" y="130"/>
			<point x="-364" y="77"/>
			<point x="-364" y="-20" type="curve"/>
			<point x="-364" y="-101"/>
			<point x="-308" y="-163"/>
			<point x="-193" y="-163" type="curve" smooth="yes"/>
		</contour>
	</outline>
</glyph>
<glyph name="braceright_braceright.cLig" format="2">
	<advance width="600"/>
	<outline>
		<contour>
			<point x="26" y="791" type="line"/>
			<point x="26" y="709" type="line"/>
			<point x="169" y="709" type="line" smooth="yes"/>
			<point x="228" y="709"/>
			<point x="261" y="682"/>
			<point x="261" y="634" type="curve"/>
			<point x="261" y="558"/>
			<point x="166" y="510"/>
			<point x="166" y="418" type="curve" smooth="yes"/>
			<point x="166" y="364"/>
			<point x="218" y="324"/>
			<point x="289" y="313" type="curve"/>
			<point x="215" y="301"/>
			<point x="166" y="260"/>
			<point x="166" y="206" type="curve" smooth="yes"/>
			<point x="166" y="117"/>
			<point x="261" y="64"/>
			<point x="261" y="-5" type="curve" smooth="yes"/>
			<point x="261" y="-55"/>
			<point x="226" y="-81"/>
			<point x="165" y="-81" type="curve" smooth="yes"/>
			<point x="-162" y="-81" type="line"/>
			<point x="-107" y="-64"/>
			<point x="-88" y="-24"/>
			<point x="-88" y="12" type="curve" smooth="yes"/>
			<point x="-88" y="94"/>
			<point x="-178" y="143"/>
			<point x="-178" y="205" type="curve" smooth="yes"/>
			<point x="-178" y="234"/>
			<point x="-158" y="266"/>
			<point x="-92" y="266" type="curve" smooth="yes"/>
			<point x="-18" y="266" type="line"/>
			<point x="-18" y="362" type="line"/>
			<point x="-93" y="362" type="line" smooth="yes"/>
			<point x="-164" y="362"/>
			<point x="-184" y="398"/>
			<point x="-184" y="427" type="curve" smooth="yes"/>
			<point x="-184" y="501"/>
			<point x="-88" y="556"/>
			<point x="-88" y="648" type="curve"/>
			<point x="-88" y="728"/>
			<point x="-140" y="791"/>
			<point x="-259" y="791" type="curve" smooth="yes"/>
			<point x="-443" y="791" type="line"/>
			<point x="-443" y="709" type="line"/>
			<point x="-294" y="709" type="line" smooth="yes"/>
			<point x="-234" y="709"/>
			<point x="-201" y="684"/>
			<point x="-201" y="635" type="curve"/>
			<point x="-201" y="565"/>
			<point x="-295" y="512"/>
			<point x="-295" y="422" type="curve" smooth="yes"/>
			<point x="-295" y="365"/>
			<point x="-244" y="325"/>
			<point x="-176" y="313" type="curve"/>
			<point x="-243" y="300"/>
			<point x="-296" y="262"/>
			<point x="-296" y="204" type="curve" smooth="yes"/>
			<point x="-296" y="118"/>
			<point x="-201" y="64"/>
			<point x="-201" y="-5" type="curve" smooth="yes"/>
			<point x="-201" y="-55"/>
			<point x="-238" y="-81"/>
			<point x="-299" y="-81" type="curve" smooth="yes"/>
			<point x="-456" y="-81" type="line"/>
			<point x="-456" y="-163" type="line"/>
			<point x="204" y="-163" type="line" smooth="yes"/>
			<point x="314" y="-163"/>
			<point x="375" y="-96"/>
			<point x="375" y="-20" type="curve" smooth="yes"/>
			<point x="375" y="76"/>
			<point x="279" y="132"/>
			<point x="279" y="201" type="curve" smooth="yes"/>
			<point x="279" y="230"/>
			<point x="300" y="267"/>
			<point x="366" y="267" type="curve" smooth="yes"/>
			<point x="443" y="267" type="line"/>
			<point x="443" y="362" type="line"/>
			<point x="366" y="362" type="line" smooth="yes"/>
			<point x="301" y="362"/>
			<point x="279" y="398"/>
			<point x="279" y="427" type="curve" smooth="yes"/>
			<point x="279" y="498"/>
			<point x="375" y="551"/>
			<point x="375" y="648" type="curve"/>
			<point x="375" y="729"/>
			<point x="319" y="791"/>
			<point x="204" y="791" type="curve" smooth="yes"/>
		</contour>
	</outline>
</glyph>
<glyph name="bracketleft_bracketleft.cLig" format="2">
	<advance width="600"/>
	<outline>
		<contour>
			<point x="-384" y="-163" type="line"/>
			<point x="10" y="-163" type="line"/>
			<point x="10" y="-81" type="line"/>
			<point x="-279" y="-81" type="line"/>
			<point x="-279" y="710" type="line"/>
			<point x="10" y="710" type="line"/>
			<point x="10" y="792" type="line"/>
			<point x="-384" y="792" type="line"/>
		</contour>
		<contour>
			<point x="93" y="-163" type="line"/>
			<point x="428" y="-163" type="line"/>
			<point x="428" y="-81" type="line"/>
			<point x="198" y="-81" type="line"/>
			<point x="198" y="710" type="line"/>
			<point x="428" y="710" type="line"/>
			<point x="428" y="792" type="line"/>
			<point x="93" y="792" type="line"/>
		</contour>
	</outline>
</glyph>
<glyph name="bracketleft_numbersign.cLig" format="2">
	<advance width="600"/>
	<outline>
		<contour>
			<point x="-98" y="249" type="line"/>
			<point x="-98" y="163" type="line"/>
			<point x="26" y="163" type="line"/>
			<point x="10" y="0" type="line"/>
			<point x="100" y="0" type="line"/>
			<point x="115" y="163" type="line"/>
			<point x="244" y="163" type="line"/>
			<point x="228" y="0" type="line"/>
			<point x="316" y="0" type="line"/>
			<point x="332" y="163" type="line"/>
			<point x="442" y="163" type="line"/>
			<point x="442" y="249" type="line"/>
			<point x="340" y="249" type="line"/>
			<point x="359" y="444" type="line"/>
			<point x="466" y="444" type="line"/>
			<point x="466" y="531" type="line"/>
			<point x="367" y="531" type="line"/>
			<point x="382" y="684" type="line"/>
			<point x="293" y="684" type="line"/>
			<point x="278" y="531" type="line"/>
			<point x="150" y="531" type="line"/>
			<point x="164" y="684" type="line"/>
			<point x="76" y="684" type="line"/>
			<point x="61" y="531" type="line"/>
			<point x="-98" y="531" type="line"/>
			<point x="-98" y="444" type="line"/>
			<point x="53" y="444" type="line"/>
			<point x="34" y="249" type="line"/>
		</contour>
		<contour>
			<point x="123" y="249" type="line"/>
			<point x="142" y="444" type="line"/>
			<point x="270" y="444" type="line"/>
			<point x="252" y="249" type="line"/>
		</contour>
		<contour>
			<point x="-110" y="-81" type="line"/>
			<point x="-311" y="-81" type="line"/>
			<point x="-311" y="710" type="line"/>
			<point x="-110" y="710" type="line"/>
			<point x="-110" y="792" type="line"/>
			<point x="-415" y="792" type="line"/>
			<point x="-415" y="-163" type="line"/>
			<point x="-110" y="-163" type="line"/>
		</contour>
	</outline>
</glyph>
<glyph name="bracketright_bracketright.cLig" format="2">
	<advance width="600"/>
	<outline>
		<contour>
			<point x="428" y="792" type="line"/>
			<point x="34" y="792" type="line"/>
			<point x="34" y="710" type="line"/>
			<point x="323" y="710" type="line"/>
			<point x="323" y="-81" type="line"/>
			<point x="34" y="-81" type="line"/>
			<point x="34" y="-163" type="line"/>
			<point x="428" y="-163" type="line"/>
		</contour>
		<contour>
			<point x="-49" y="792" type="line"/>
			<point x="-384" y="792" type="line"/>
			<point x="-384" y="710" type="line"/>
			<point x="-154" y="710" type="line"/>
			<point x="-154" y="-81" type="line"/>
			<point x="-384" y="-81" type="line"/>
			<point x="-384" y="-163" type="line"/>
			<point x="-49" y="-163" type="line"/>
		</contour>
	</outline>
</glyph>
<glyph name="bracketright_numbersign.cLig" format="2">
	<advance width="600"/>
	<outline>
		<contour>
			<point x="-478" y="-163" type="line"/>
			<point x="-173" y="-163" type="line"/>
			<point x="-173" y="163" type="line"/>
			<point x="42" y="163" type="line"/>
			<point x="27" y="0" type="line"/>
			<point x="117" y="0" type="line"/>
			<point x="132" y="163" type="line"/>
			<point x="260" y="163" type="line"/>
			<point x="245" y="0" type="line"/>
			<point x="333" y="0" type="line"/>
			<point x="348" y="163" type="line"/>
			<point x="459" y="163" type="line"/>
			<point x="459" y="249" type="line"/>
			<point x="357" y="249" type="line"/>
			<point x="375" y="444" type="line"/>
			<point x="482" y="444" type="line"/>
			<point x="482" y="531" type="line"/>
			<point x="384" y="531" type="line"/>
			<point x="398" y="684" type="line"/>
			<point x="309" y="684" type="line"/>
			<point x="295" y="531" type="line"/>
			<point x="166" y="531" type="line"/>
			<point x="181" y="684" type="line"/>
			<point x="92" y="684" type="line"/>
			<point x="78" y="531" type="line"/>
			<point x="-173" y="531" type="line"/>
			<point x="-173" y="792" type="line"/>
			<point x="-478" y="792" type="line"/>
			<point x="-478" y="710" type="line"/>
			<point x="-277" y="710" type="line"/>
			<point x="-277" y="-81" type="line"/>
			<point x="-478" y="-81" type="line"/>
		</contour>
		<contour>
			<point x="-173" y="249" type="line"/>
			<point x="-173" y="444" type="line"/>
			<point x="69" y="444" type="line"/>
			<point x="51" y="249" type="line"/>
		</contour>
		<contour>
			<point x="140" y="249" type="line"/>
			<point x="158" y="444" type="line"/>
			<point x="287" y="444" type="line"/>
			<point x="269" y="249" type="line"/>
		</contour>
	</outline>
</glyph>
<glyph name="breve.cap" format="2">
	<advance width="600"/>
	<outline>
		<contour>
			<point x="300" y="739" type="curve" smooth="yes"/>
			<point x="398" y="739"/>
			<point x="453" y="781"/>
			<point x="453" y="884" type="curve"/>
			<point x="374" y="884" type="line"/>
			<point x="374" y="826"/>
			<point x="352" y="798"/>
			<point x="300" y="798" type="curve" smooth="yes"/>
			<point x="245" y="798"/>
			<point x="226" y="826"/>
			<point x="226" y="884" type="curve"/>
			<point x="147" y="884" type="line"/>
			<point x="147" y="781"/>
			<point x="197" y="739"/>
		</contour>
	</outline>
	<anchor name="_top" x="300" y="684"/>
</glyph>
<glyph name="caronSlovak" format="2">
	<advance width="600"/>
	<outline>
		<contour>
			<point x="243" y="572" type="line"/>
			<point x="307" y="572" type="line"/>
			<point x="372" y="750" type="line"/>
			<point x="263" y="750" type="line"/>
		</contour>
	</outline>
	<anchor name="_caron" x="263" y="750"/>
</glyph>
<glyph name="colon_colon.cLig" format="2">
	<advance width="600"/>
	<outline>
		<contour>
			<point x="-219" y="-12" type="curve" smooth="yes"/>
			<point x="-163" y="-12"/>
			<point x="-133" y="9"/>
			<point x="-133" y="67" type="curve" smooth="yes"/>
			<point x="-133" y="123"/>
			<point x="-163" y="143"/>
			<point x="-219" y="143" type="curve" smooth="yes"/>
			<point x="-275" y="143"/>
			<point x="-305" y="123"/>
			<point x="-305" y="67" type="curve" smooth="yes"/>
			<point x="-305" y="9"/>
			<point x="-275" y="-12"/>
		</contour>
		<contour>
			<point x="-219" y="369" type="curve" smooth="yes"/>
			<point x="-163" y="369"/>
			<point x="-133" y="390"/>
			<point x="-133" y="448" type="curve" smooth="yes"/>
			<point x="-133" y="504"/>
			<point x="-163" y="524"/>
			<point x="-219" y="524" type="curve" smooth="yes"/>
			<point x="-275" y="524"/>
			<point x="-305" y="504"/>
			<point x="-305" y="448" type="curve" smooth="yes"/>
			<point x="-305" y="390"/>
			<point x="-275" y="369"/>
		</contour>
		<contour>
			<point x="219" y="-12" type="curve" smooth="yes"/>
			<point x="275" y="-12"/>
			<point x="305" y="9"/>
			<point x="305" y="67" type="curve" smooth="yes"/>
			<point x="305" y="123"/>
			<point x="275" y="143"/>
			<point x="219" y="143" type="curve" smooth="yes"/>
			<point x="163" y="143"/>
			<point x="133" y="123"/>
			<point x="133" y="67" type="curve" smooth="yes"/>
			<point x="133" y="9"/>
			<point x="163" y="-12"/>
		</contour>
		<contour>
			<point x="219" y="369" type="curve" smooth="yes"/>
			<point x="275" y="369"/>
			<point x="305" y="390"/>
			<point x="305" y="448" type="curve" smooth="yes"/>
			<point x="305" y="504"/>
			<point x="275" y="524"/>
			<point x="219" y="524" type="curve" smooth="yes"/>
			<point x="163" y="524"/>
			<point x="133" y="504"/>
			<point x="133" y="448" type="curve" smooth="yes"/>
			<point x="133" y="390"/>
			<point x="163" y="369"/>
		</contour>
	</outline>
</glyph>
<glyph name="colon_colon_colon.cLig" format="2">
	<advance width="600"/>
	<outline>
		<contour>
			<point x="-754" y="-12" type="curve" smooth="yes"/>
			<point x="-698" y="-12"/>
			<point x="-668" y="9"/>
			<point x="-668" y="67" type="curve" smooth="yes"/>
			<point x="-668" y="123"/>
			<point x="-698" y="143"/>
			<point x="-754" y="143" type="curve" smooth="yes"/>
			<point x="-810" y="143"/>
			<point x="-840" y="123"/>
			<point x="-840" y="67" type="curve" smooth="yes"/>
			<point x="-840" y="9"/>
			<point x="-810" y="-12"/>
		</contour>
		<contour>
			<point x="-754" y="369" type="curve" smooth="yes"/>
			<point x="-698" y="369"/>
			<point x="-668" y="390"/>
			<point x="-668" y="448" type="curve" smooth="yes"/>
			<point x="-668" y="504"/>
			<point x="-698" y="524"/>
			<point x="-754" y="524" type="curve" smooth="yes"/>
			<point x="-810" y="524"/>
			<point x="-840" y="504"/>
			<point x="-840" y="448" type="curve" smooth="yes"/>
			<point x="-840" y="390"/>
			<point x="-810" y="369"/>
		</contour>
		<contour>
			<point x="-300" y="-12" type="curve" smooth="yes"/>
			<point x="-244" y="-12"/>
			<point x="-214" y="9"/>
			<point x="-214" y="67" type="curve" smooth="yes"/>
			<point x="-214" y="123"/>
			<point x="-244" y="143"/>
			<point x="-300" y="143" type="curve" smooth="yes"/>
			<point x="-356" y="143"/>
			<point x="-386" y="123"/>
			<point x="-386" y="67" type="curve" smooth="yes"/>
			<point x="-386" y="9"/>
			<point x="-356" y="-12"/>
		</contour>
		<contour>
			<point x="-300" y="369" type="curve" smooth="yes"/>
			<point x="-244" y="369"/>
			<point x="-214" y="390"/>
			<point x="-214" y="448" type="curve" smooth="yes"/>
			<point x="-214" y="504"/>
			<point x="-244" y="524"/>
			<point x="-300" y="524" type="curve" smooth="yes"/>
			<point x="-356" y="524"/>
			<point x="-386" y="504"/>
			<point x="-386" y="448" type="curve" smooth="yes"/>
			<point x="-386" y="390"/>
			<point x="-356" y="369"/>
		</contour>
		<contour>
			<point x="154" y="-12" type="curve" smooth="yes"/>
			<point x="210" y="-12"/>
			<point x="240" y="9"/>
			<point x="240" y="67" type="curve" smooth="yes"/>
			<point x="240" y="123"/>
			<point x="210" y="143"/>
			<point x="154" y="143" type="curve" smooth="yes"/>
			<point x="98" y="143"/>
			<point x="68" y="123"/>
			<point x="68" y="67" type="curve" smooth="yes"/>
			<point x="68" y="9"/>
			<point x="98" y="-12"/>
		</contour>
		<contour>
			<point x="154" y="369" type="curve" smooth="yes"/>
			<point x="210" y="369"/>
			<point x="240" y="390"/>
			<point x="240" y="448" type="curve" smooth="yes"/>
			<point x="240" y="504"/>
			<point x="210" y="524"/>
			<point x="154" y="524" type="curve" smooth="yes"/>
			<point x="98" y="524"/>
			<point x="68" y="504"/>
			<point x="68" y="448" type="curve" smooth="yes"/>
			<point x="68" y="390"/>
			<point x="98" y="369"/>
		</contour>
	</outline>
</glyph>
<glyph name="colon_equal.med" format="2">
	<advance width="600"/>
	<outline>
		<contour>
			<point x="301" y="359" type="curve" smooth="yes"/>
			<point x="357" y="359"/>
			<point x="387" y="380"/>
			<point x="387" y="438" type="curve" smooth="yes"/>
			<point x="387" y="494"/>
			<point x="357" y="514"/>
			<point x="301" y="514" type="curve" smooth="yes"/>
			<point x="245" y="514"/>
			<point x="215" y="494"/>
			<point x="215" y="438" type="curve" smooth="yes"/>
			<point x="215" y="380"/>
			<point x="245" y="359"/>
		</contour>
		<contour>
			<point x="498" y="375" type="line"/>
			<point x="600" y="375" type="line"/>
			<point x="600" y="471" type="line"/>
			<point x="498" y="471" type="line"/>
		</contour>
		<contour>
			<point x="0" y="375" type="line"/>
			<point x="102" y="375" type="line"/>
			<point x="102" y="471" type="line"/>
			<point x="0" y="471" type="line"/>
		</contour>
		<contour>
			<point x="498" y="159" type="line"/>
			<point x="600" y="159" type="line"/>
			<point x="600" y="254" type="line"/>
			<point x="498" y="254" type="line"/>
		</contour>
		<contour>
			<point x="0" y="159" type="line"/>
			<point x="102" y="159" type="line"/>
			<point x="102" y="254" type="line"/>
			<point x="0" y="254" type="line"/>
		</contour>
		<contour>
			<point x="301" y="69" type="curve" smooth="yes"/>
			<point x="357" y="69"/>
			<point x="387" y="90"/>
			<point x="387" y="148" type="curve" smooth="yes"/>
			<point x="387" y="204"/>
			<point x="357" y="224"/>
			<point x="301" y="224" type="curve" smooth="yes"/>
			<point x="245" y="224"/>
			<point x="215" y="204"/>
			<point x="215" y="148" type="curve" smooth="yes"/>
			<point x="215" y="90"/>
			<point x="245" y="69"/>
		</contour>
	</outline>
</glyph>
<glyph name="eight.den" format="2">
	<advance width="600"/>
	<outline>
		<contour>
			<point x="299" y="-8" type="curve" smooth="yes"/>
			<point x="397" y="-8"/>
			<point x="462" y="31"/>
			<point x="462" y="109" type="curve" smooth="yes"/>
			<point x="462" y="173"/>
			<point x="419" y="199"/>
			<point x="375" y="209" type="curve"/>
			<point x="418" y="220"/>
			<point x="453" y="252"/>
			<point x="453" y="305" type="curve" smooth="yes"/>
			<point x="453" y="382"/>
			<point x="390" y="418"/>
			<point x="300" y="418" type="curve" smooth="yes"/>
			<point x="208" y="418"/>
			<point x="146" y="381"/>
			<point x="146" y="305" type="curve" smooth="yes"/>
			<point x="146" y="250"/>
			<point x="184" y="219"/>
			<point x="224" y="210" type="curve"/>
			<point x="177" y="200"/>
			<point x="138" y="170"/>
			<point x="138" y="109" type="curve" smooth="yes"/>
			<point x="138" y="30"/>
			<point x="202" y="-8"/>
		</contour>
		<contour>
			<point x="299" y="239" type="curve" smooth="yes"/>
			<point x="253" y="239"/>
			<point x="222" y="256"/>
			<point x="222" y="300" type="curve" smooth="yes"/>
			<point x="222" y="344"/>
			<point x="254" y="362"/>
			<point x="300" y="362" type="curve" smooth="yes"/>
			<point x="345" y="362"/>
			<point x="377" y="344"/>
			<point x="377" y="300" type="curve" smooth="yes"/>
			<point x="377" y="256"/>
			<point x="345" y="239"/>
		</contour>
		<contour>
			<point x="300" y="51" type="curve" smooth="yes"/>
			<point x="252" y="51"/>
			<point x="218" y="70"/>
			<point x="218" y="118" type="curve" smooth="yes"/>
			<point x="218" y="164"/>
			<point x="250" y="181"/>
			<point x="300" y="181" type="curve" smooth="yes"/>
			<point x="348" y="181"/>
			<point x="383" y="165"/>
			<point x="383" y="118" type="curve" smooth="yes"/>
			<point x="383" y="71"/>
			<point x="348" y="51"/>
		</contour>
	</outline>
</glyph>
<glyph name="eight.numr" format="2">
	<advance width="600"/>
	<outline>
		<contour>
			<point x="299" y="366" type="curve" smooth="yes"/>
			<point x="383" y="366"/>
			<point x="437" y="397"/>
			<point x="437" y="464" type="curve" smooth="yes"/>
			<point x="437" y="511"/>
			<point x="407" y="539"/>
			<point x="361" y="548" type="curve"/>
			<point x="401" y="557"/>
			<point x="430" y="587"/>
			<point x="430" y="630" type="curve" smooth="yes"/>
			<point x="430" y="694"/>
			<point x="378" y="724"/>
			<point x="300" y="724" type="curve" smooth="yes"/>
			<point x="221" y="724"/>
			<point x="169" y="694"/>
			<point x="169" y="630" type="curve" smooth="yes"/>
			<point x="169" y="584"/>
			<point x="200" y="556"/>
			<point x="239" y="549" type="curve"/>
			<point x="197" y="539"/>
			<point x="163" y="513"/>
			<point x="163" y="463" type="curve" smooth="yes"/>
			<point x="163" y="396"/>
			<point x="214" y="366"/>
		</contour>
		<contour>
			<point x="299" y="571" type="curve" smooth="yes"/>
			<point x="262" y="571"/>
			<point x="237" y="587"/>
			<point x="237" y="623" type="curve" smooth="yes"/>
			<point x="237" y="662"/>
			<point x="263" y="674"/>
			<point x="299" y="674" type="curve" smooth="yes"/>
			<point x="336" y="674"/>
			<point x="362" y="662"/>
			<point x="362" y="623" type="curve" smooth="yes"/>
			<point x="362" y="587"/>
			<point x="337" y="571"/>
		</contour>
		<contour>
			<point x="299" y="417" type="curve" smooth="yes"/>
			<point x="257" y="417"/>
			<point x="234" y="432"/>
			<point x="234" y="473" type="curve" smooth="yes"/>
			<point x="234" y="511"/>
			<point x="260" y="525"/>
			<point x="299" y="525" type="curve" smooth="yes"/>
			<point x="339" y="525"/>
			<point x="366" y="510"/>
			<point x="366" y="473" type="curve" smooth="yes"/>
			<point x="366" y="435"/>
			<point x="342" y="417"/>
		</contour>
	</outline>
	<guideline x="412.4244604317" y="444.6043165468" angle="0" identifier="xDKsHLj3u3"/>
	<guideline x="358.6402877698" y="725.8561151079" angle="0" identifier="xhAt5iMPR2"/>
</glyph>
<glyph name="equal.med" format="2">
	<advance width="600"/>
	<outline>
		<contour>
			<point x="0" y="375" type="line"/>
			<point x="600" y="375" type="line"/>
			<point x="600" y="471" type="line"/>
			<point x="0" y="471" type="line"/>
		</contour>
		<contour>
			<point x="0" y="158" type="line"/>
			<point x="600" y="158" type="line"/>
			<point x="600" y="254" type="line"/>
			<point x="0" y="254" type="line"/>
		</contour>
	</outline>
</glyph>
<glyph name="equal_equal_greater.rem" format="2">
	<advance width="600"/>
	<outline>
		<contour>
			<point x="-1032" y="158" type="line"/>
			<point x="212" y="158" type="line"/>
			<point x="76" y="0" type="line"/>
			<point x="204" y="0" type="line"/>
			<point x="476" y="313" type="line"/>
			<point x="201" y="629" type="line"/>
			<point x="73" y="629" type="line"/>
			<point x="211" y="471" type="line"/>
			<point x="-1032" y="471" type="line"/>
			<point x="-1032" y="375" type="line"/>
			<point x="295" y="375" type="line"/>
			<point x="348" y="315" type="line"/>
			<point x="295" y="254" type="line"/>
			<point x="-1032" y="254" type="line"/>
		</contour>
	</outline>
</glyph>
<glyph name="equal_greater_greater.rem" format="2">
	<advance width="600"/>
	<outline>
		<contour>
			<point x="64" y="0" type="line"/>
			<point x="193" y="0" type="line"/>
			<point x="467" y="314" type="line"/>
			<point x="191" y="629" type="line"/>
			<point x="61" y="629" type="line"/>
			<point x="337" y="316" type="line"/>
		</contour>
		<contour>
			<point x="-1032" y="158" type="line"/>
			<point x="-178" y="158" type="line"/>
			<point x="-315" y="0" type="line"/>
			<point x="-186" y="0" type="line"/>
			<point x="86" y="313" type="line"/>
			<point x="-189" y="629" type="line"/>
			<point x="-318" y="629" type="line"/>
			<point x="-179" y="471" type="line"/>
			<point x="-1032" y="471" type="line"/>
			<point x="-1032" y="375" type="line"/>
			<point x="-95" y="375" type="line"/>
			<point x="-42" y="315" type="line"/>
			<point x="-95" y="254" type="line"/>
			<point x="-1032" y="254" type="line"/>
		</contour>
	</outline>
</glyph>
<glyph name="exclam_equal_equal.cLig" format="2">
	<advance width="600"/>
	<outline>
		<contour>
			<point x="-1050" y="63" type="line"/>
			<point x="-498" y="63" type="line"/>
			<point x="-583" y="-78" type="line"/>
			<point x="-475" y="-78" type="line"/>
			<point x="-390" y="63" type="line"/>
			<point x="450" y="63" type="line"/>
			<point x="450" y="153" type="line"/>
			<point x="-336" y="153" type="line"/>
			<point x="-268" y="268" type="line"/>
			<point x="450" y="268" type="line"/>
			<point x="450" y="358" type="line"/>
			<point x="-214" y="358" type="line"/>
			<point x="-145" y="473" type="line"/>
			<point x="450" y="473" type="line"/>
			<point x="450" y="563" type="line"/>
			<point x="-92" y="563" type="line"/>
			<point x="-17" y="688" type="line"/>
			<point x="-125" y="688" type="line"/>
			<point x="-200" y="563" type="line"/>
			<point x="-1050" y="563" type="line"/>
			<point x="-1050" y="473" type="line"/>
			<point x="-254" y="473" type="line"/>
			<point x="-322" y="358" type="line"/>
			<point x="-1050" y="358" type="line"/>
			<point x="-1050" y="268" type="line"/>
			<point x="-376" y="268" type="line"/>
			<point x="-445" y="153" type="line"/>
			<point x="-1050" y="153" type="line"/>
		</contour>
	</outline>
</glyph>
<glyph name="exclam_exclam.cLig" format="2">
	<advance width="600"/>
	<outline>
		<contour>
			<point x="-268" y="212" type="line"/>
			<point x="-188" y="212" type="line"/>
			<point x="-166" y="547" type="line"/>
			<point x="-166" y="684" type="line"/>
			<point x="-289" y="684" type="line"/>
			<point x="-289" y="548" type="line"/>
		</contour>
		<contour>
			<point x="-226" y="-12" type="curve" smooth="yes"/>
			<point x="-175" y="-12"/>
			<point x="-149" y="8"/>
			<point x="-149" y="58" type="curve" smooth="yes"/>
			<point x="-149" y="109"/>
			<point x="-175" y="129"/>
			<point x="-226" y="129" type="curve" smooth="yes"/>
			<point x="-279" y="129"/>
			<point x="-305" y="109"/>
			<point x="-305" y="58" type="curve" smooth="yes"/>
			<point x="-305" y="8"/>
			<point x="-279" y="-12"/>
		</contour>
		<contour>
			<point x="186" y="212" type="line"/>
			<point x="266" y="212" type="line"/>
			<point x="288" y="547" type="line"/>
			<point x="288" y="684" type="line"/>
			<point x="165" y="684" type="line"/>
			<point x="165" y="548" type="line"/>
		</contour>
		<contour>
			<point x="228" y="-12" type="curve" smooth="yes"/>
			<point x="279" y="-12"/>
			<point x="305" y="8"/>
			<point x="305" y="58" type="curve" smooth="yes"/>
			<point x="305" y="109"/>
			<point x="279" y="129"/>
			<point x="228" y="129" type="curve" smooth="yes"/>
			<point x="175" y="129"/>
			<point x="149" y="109"/>
			<point x="149" y="58" type="curve" smooth="yes"/>
			<point x="149" y="8"/>
			<point x="175" y="-12"/>
		</contour>
	</outline>
</glyph>
<glyph name="exclam_exclam_period.cLig" format="2">
	<advance width="600"/>
	<outline>
		<contour>
			<point x="-825" y="212" type="line"/>
			<point x="-745" y="212" type="line"/>
			<point x="-723" y="547" type="line"/>
			<point x="-723" y="684" type="line"/>
			<point x="-846" y="684" type="line"/>
			<point x="-846" y="548" type="line"/>
		</contour>
		<contour>
			<point x="-783" y="-12" type="curve" smooth="yes"/>
			<point x="-732" y="-12"/>
			<point x="-706" y="8"/>
			<point x="-706" y="58" type="curve" smooth="yes"/>
			<point x="-706" y="109"/>
			<point x="-732" y="129"/>
			<point x="-783" y="129" type="curve" smooth="yes"/>
			<point x="-836" y="129"/>
			<point x="-862" y="109"/>
			<point x="-862" y="58" type="curve" smooth="yes"/>
			<point x="-862" y="8"/>
			<point x="-836" y="-12"/>
		</contour>
		<contour>
			<point x="-340" y="212" type="line"/>
			<point x="-260" y="212" type="line"/>
			<point x="-238" y="547" type="line"/>
			<point x="-238" y="684" type="line"/>
			<point x="-361" y="684" type="line"/>
			<point x="-361" y="548" type="line"/>
		</contour>
		<contour>
			<point x="-298" y="-12" type="curve" smooth="yes"/>
			<point x="-247" y="-12"/>
			<point x="-221" y="8"/>
			<point x="-221" y="58" type="curve" smooth="yes"/>
			<point x="-221" y="109"/>
			<point x="-247" y="129"/>
			<point x="-298" y="129" type="curve" smooth="yes"/>
			<point x="-351" y="129"/>
			<point x="-377" y="109"/>
			<point x="-377" y="58" type="curve" smooth="yes"/>
			<point x="-377" y="8"/>
			<point x="-351" y="-12"/>
		</contour>
		<contour>
			<point x="187" y="-12" type="curve" smooth="yes"/>
			<point x="243" y="-12"/>
			<point x="273" y="9"/>
			<point x="273" y="67" type="curve" smooth="yes"/>
			<point x="273" y="123"/>
			<point x="243" y="143"/>
			<point x="187" y="143" type="curve" smooth="yes"/>
			<point x="131" y="143"/>
			<point x="101" y="123"/>
			<point x="101" y="67" type="curve" smooth="yes"/>
			<point x="101" y="9"/>
			<point x="131" y="-12"/>
		</contour>
	</outline>
</glyph>
<glyph name="four.den" format="2">
	<advance width="600"/>
	<outline>
		<contour>
			<point x="337" y="0" type="line"/>
			<point x="413" y="0" type="line"/>
			<point x="413" y="78" type="line"/>
			<point x="457" y="78" type="line"/>
			<point x="457" y="141" type="line"/>
			<point x="413" y="141" type="line"/>
			<point x="413" y="410" type="line"/>
			<point x="299" y="410" type="line"/>
			<point x="132" y="141" type="line"/>
			<point x="132" y="78" type="line"/>
			<point x="337" y="78" type="line"/>
		</contour>
		<contour>
			<point x="207" y="141" type="line"/>
			<point x="337" y="357" type="line"/>
			<point x="337" y="141" type="line"/>
		</contour>
	</outline>
</glyph>
<glyph name="greater_equal.fina" format="2">
	<advance width="600"/>
	<outline>
		<contour>
			<point x="135" y="0" type="line"/>
			<point x="264" y="0" type="line"/>
			<point x="535" y="313" type="line"/>
			<point x="261" y="629" type="line"/>
			<point x="132" y="629" type="line"/>
			<point x="270" y="471" type="line"/>
			<point x="0" y="471" type="line"/>
			<point x="0" y="375" type="line"/>
			<point x="354" y="375" type="line"/>
			<point x="407" y="315" type="line"/>
			<point x="354" y="254" type="line"/>
			<point x="0" y="254" type="line"/>
			<point x="0" y="158" type="line"/>
			<point x="272" y="158" type="line"/>
		</contour>
	</outline>
</glyph>
<glyph name="greater_equal.med" format="2">
	<advance width="600"/>
	<outline>
		<contour>
			<point x="118" y="0" type="line"/>
			<point x="247" y="0" type="line"/>
			<point x="385" y="158" type="line"/>
			<point x="600" y="158" type="line"/>
			<point x="600" y="254" type="line"/>
			<point x="469" y="254" type="line"/>
			<point x="521" y="314" type="line"/>
			<point x="467" y="375" type="line"/>
			<point x="600" y="375" type="line"/>
			<point x="600" y="471" type="line"/>
			<point x="383" y="471" type="line"/>
			<point x="244" y="629" type="line"/>
			<point x="115" y="629" type="line"/>
			<point x="255" y="471" type="line"/>
			<point x="0" y="471" type="line"/>
			<point x="0" y="375" type="line"/>
			<point x="339" y="375" type="line"/>
			<point x="392" y="316" type="line"/>
			<point x="338" y="254" type="line"/>
			<point x="0" y="254" type="line"/>
			<point x="0" y="158" type="line"/>
			<point x="255" y="158" type="line"/>
		</contour>
	</outline>
</glyph>
<glyph name="greater_equal.rem" format="2">
	<advance width="600"/>
	<outline>
		<contour>
			<point x="-279" y="375" type="line"/>
			<point x="450" y="375" type="line"/>
			<point x="450" y="471" type="line"/>
			<point x="-232" y="471" type="line"/>
			<point x="-366" y="629" type="line"/>
			<point x="-496" y="629" type="line"/>
		</contour>
		<contour>
			<point x="-493" y="0" type="line"/>
			<point x="-363" y="0" type="line"/>
			<point x="-231" y="158" type="line"/>
			<point x="450" y="158" type="line"/>
			<point x="450" y="254" type="line"/>
			<point x="-278" y="254" type="line"/>
		</contour>
	</outline>
</glyph>
<glyph name="greater_equal_greater.rem" format="2">
	<advance width="600"/>
	<outline>
		<contour>
			<point x="-1078" y="0" type="line"/>
			<point x="-948" y="0" type="line"/>
			<point x="-816" y="158" type="line"/>
			<point x="222" y="158" type="line"/>
			<point x="85" y="0" type="line"/>
			<point x="214" y="0" type="line"/>
			<point x="485" y="313" type="line"/>
			<point x="211" y="629" type="line"/>
			<point x="82" y="629" type="line"/>
			<point x="220" y="471" type="line"/>
			<point x="-817" y="471" type="line"/>
			<point x="-951" y="629" type="line"/>
			<point x="-1081" y="629" type="line"/>
			<point x="-864" y="375" type="line"/>
			<point x="304" y="375" type="line"/>
			<point x="357" y="315" type="line"/>
			<point x="304" y="254" type="line"/>
			<point x="-863" y="254" type="line"/>
		</contour>
	</outline>
</glyph>
<glyph name="greater_greater_greater.cLig" format="2">
	<advance width="600"/>
	<outline>
		<contour>
			<point x="-1109" y="29" type="line"/>
			<point x="-651" y="238" type="line"/>
			<point x="-651" y="360" type="line"/>
			<point x="-1109" y="569" type="line"/>
			<point x="-1109" y="460" type="line"/>
			<point x="-742" y="299" type="line"/>
			<point x="-1109" y="139" type="line"/>
		</contour>
		<contour>
			<point x="-526" y="29" type="line"/>
			<point x="-68" y="238" type="line"/>
			<point x="-68" y="360" type="line"/>
			<point x="-526" y="569" type="line"/>
			<point x="-526" y="460" type="line"/>
			<point x="-159" y="299" type="line"/>
			<point x="-526" y="139" type="line"/>
		</contour>
		<contour>
			<point x="57" y="29" type="line"/>
			<point x="515" y="238" type="line"/>
			<point x="515" y="360" type="line"/>
			<point x="57" y="569" type="line"/>
			<point x="57" y="460" type="line"/>
			<point x="424" y="299" type="line"/>
			<point x="57" y="139" type="line"/>
		</contour>
	</outline>
</glyph>
<glyph name="greater_greater_hyphen.fina" format="2">
	<advance width="600"/>
	<outline>
		<contour>
			<point x="79" y="0" type="line"/>
			<point x="208" y="0" type="line"/>
			<point x="482" y="314" type="line"/>
			<point x="205" y="629" type="line"/>
			<point x="76" y="629" type="line"/>
			<point x="351" y="316" type="line"/>
		</contour>
		<contour>
			<point x="-600" y="264" type="line"/>
			<point x="-62" y="264" type="line"/>
			<point x="-301" y="0" type="line"/>
			<point x="-171" y="0" type="line"/>
			<point x="105" y="314" type="line"/>
			<point x="-174" y="629" type="line"/>
			<point x="-305" y="629" type="line"/>
			<point x="-63" y="365" type="line"/>
			<point x="-600" y="365" type="line"/>
		</contour>
	</outline>
</glyph>
<glyph name="greater_greater_hyphen.init" format="2">
	<advance width="600"/>
	<outline>
		<contour>
			<point x="-512" y="0" type="line"/>
			<point x="-380" y="0" type="line"/>
			<point x="-106" y="314" type="line"/>
			<point x="-383" y="629" type="line"/>
			<point x="-515" y="629" type="line"/>
			<point x="-237" y="314" type="line"/>
		</contour>
		<contour>
			<point x="-128" y="0" type="line"/>
			<point x="3" y="0" type="line"/>
			<point x="233" y="264" type="line"/>
			<point x="600" y="264" type="line"/>
			<point x="600" y="365" type="line"/>
			<point x="231" y="365" type="line"/>
			<point x="0" y="629" type="line"/>
			<point x="-131" y="629" type="line"/>
			<point x="143" y="314" type="line"/>
		</contour>
	</outline>
</glyph>
<glyph name="greater_greater_hyphen.med" format="2">
	<advance width="600"/>
	<outline>
		<contour>
			<point x="-65" y="0" type="line"/>
			<point x="65" y="0" type="line"/>
			<point x="285" y="253" type="line"/>
			<point x="600" y="253" type="line"/>
			<point x="600" y="353" type="line"/>
			<point x="305" y="353" type="line"/>
			<point x="62" y="629" type="line"/>
			<point x="-68" y="629" type="line"/>
			<point x="208" y="315" type="line"/>
		</contour>
		<contour>
			<point x="-600" y="264" type="line"/>
			<point x="-208" y="264" type="line"/>
			<point x="-447" y="0" type="line"/>
			<point x="-317" y="0" type="line"/>
			<point x="-41" y="314" type="line"/>
			<point x="-320" y="629" type="line"/>
			<point x="-450" y="629" type="line"/>
			<point x="-209" y="365" type="line"/>
			<point x="-600" y="365" type="line"/>
		</contour>
	</outline>
</glyph>
<glyph name="greater_greater_hyphen.rem" format="2">
	<advance width="600"/>
	<outline>
		<contour>
			<point x="-1073" y="0" type="line"/>
			<point x="-941" y="0" type="line"/>
			<point x="-667" y="314" type="line"/>
			<point x="-944" y="629" type="line"/>
			<point x="-1076" y="629" type="line"/>
			<point x="-798" y="314" type="line"/>
		</contour>
		<contour>
			<point x="-689" y="0" type="line"/>
			<point x="-558" y="0" type="line"/>
			<point x="-328" y="264" type="line"/>
			<point x="471" y="264" type="line"/>
			<point x="471" y="365" type="line"/>
			<point x="-330" y="365" type="line"/>
			<point x="-561" y="629" type="line"/>
			<point x="-692" y="629" type="line"/>
			<point x="-418" y="314" type="line"/>
		</contour>
	</outline>
</glyph>
<glyph name="greater_hyphen.med" format="2">
	<advance width="600"/>
	<outline>
		<contour>
			<point x="118" y="0" type="line"/>
			<point x="246" y="0" type="line"/>
			<point x="477" y="263" type="line"/>
			<point x="600" y="263" type="line"/>
			<point x="600" y="364" type="line"/>
			<point x="477" y="364" type="line"/>
			<point x="243" y="629" type="line"/>
			<point x="115" y="629" type="line"/>
			<point x="352" y="364" type="line"/>
			<point x="0" y="364" type="line"/>
			<point x="0" y="263" type="line"/>
			<point x="352" y="263" type="line"/>
		</contour>
	</outline>
</glyph>
<glyph name="greater_hyphen_greater.rem" format="2">
	<advance width="600"/>
	<outline>
		<contour>
			<point x="-1068" y="0" type="line"/>
			<point x="-937" y="0" type="line"/>
			<point x="-707" y="264" type="line"/>
			<point x="303" y="264" type="line"/>
			<point x="64" y="0" type="line"/>
			<point x="195" y="0" type="line"/>
			<point x="470" y="314" type="line"/>
			<point x="192" y="629" type="line"/>
			<point x="61" y="629" type="line"/>
			<point x="302" y="365" type="line"/>
			<point x="-709" y="365" type="line"/>
			<point x="-940" y="629" type="line"/>
			<point x="-1071" y="629" type="line"/>
			<point x="-797" y="314" type="line"/>
		</contour>
	</outline>
</glyph>
<glyph name="hungarumlaut.cap" format="2">
	<advance width="600"/>
	<outline>
		<contour>
			<point x="299" y="746" type="line"/>
			<point x="374" y="746" type="line"/>
			<point x="458" y="884" type="line"/>
			<point x="356" y="884" type="line"/>
		</contour>
		<contour>
			<point x="141" y="746" type="line"/>
			<point x="217" y="746" type="line"/>
			<point x="301" y="884" type="line"/>
			<point x="197" y="884" type="line"/>
		</contour>
	</outline>
	<anchor name="_top" x="258" y="684"/>
</glyph>
<glyph name="hyphen_asciitilde.cLig" format="2">
	<advance width="600"/>
	<outline>
		<contour>
			<point x="-408" y="259" type="line"/>
			<point x="-3" y="259" type="line"/>
			<point x="3" y="303"/>
			<point x="24" y="329"/>
			<point x="56" y="329" type="curve" smooth="yes"/>
			<point x="123" y="329"/>
			<point x="147" y="202"/>
			<point x="260" y="202" type="curve" smooth="yes"/>
			<point x="341" y="202"/>
			<point x="394" y="255"/>
			<point x="394" y="412" type="curve"/>
			<point x="305" y="412" type="line"/>
			<point x="305" y="336"/>
			<point x="289" y="304"/>
			<point x="249" y="304" type="curve"/>
			<point x="182" y="304"/>
			<point x="151" y="430"/>
			<point x="47" y="430" type="curve" smooth="yes"/>
			<point x="-5" y="430"/>
			<point x="-42" y="406"/>
			<point x="-63" y="360" type="curve"/>
			<point x="-408" y="360" type="line"/>
		</contour>
	</outline>
</glyph>
<glyph name="hyphen_braceright.rem" format="2">
	<advance width="600"/>
	<outline>
		<contour>
			<point x="7" y="-163" type="line"/>
			<point x="168" y="-163" type="line" smooth="yes"/>
			<point x="282" y="-163"/>
			<point x="338" y="-105"/>
			<point x="338" y="-27" type="curve" smooth="yes"/>
			<point x="338" y="65"/>
			<point x="239" y="129"/>
			<point x="239" y="195" type="curve" smooth="yes"/>
			<point x="239" y="229"/>
			<point x="258" y="265"/>
			<point x="324" y="265" type="curve" smooth="yes"/>
			<point x="400" y="265" type="line"/>
			<point x="400" y="362" type="line"/>
			<point x="324" y="362" type="line" smooth="yes"/>
			<point x="258" y="362"/>
			<point x="239" y="397"/>
			<point x="239" y="428" type="curve" smooth="yes"/>
			<point x="239" y="495"/>
			<point x="338" y="561"/>
			<point x="338" y="656" type="curve" smooth="yes"/>
			<point x="338" y="733"/>
			<point x="278" y="792"/>
			<point x="168" y="792" type="curve" smooth="yes"/>
			<point x="7" y="792" type="line"/>
			<point x="7" y="710" type="line"/>
			<point x="135" y="710" type="line" smooth="yes"/>
			<point x="189" y="710"/>
			<point x="224" y="689"/>
			<point x="224" y="642" type="curve" smooth="yes"/>
			<point x="224" y="576"/>
			<point x="127" y="521"/>
			<point x="127" y="444" type="curve" smooth="yes"/>
			<point x="127" y="401"/>
			<point x="159" y="374"/>
			<point x="204" y="361" type="curve"/>
			<point x="-432" y="361" type="line"/>
			<point x="-432" y="268" type="line"/>
			<point x="204" y="268" type="line"/>
			<point x="158" y="253"/>
			<point x="127" y="225"/>
			<point x="127" y="182" type="curve" smooth="yes"/>
			<point x="127" y="103"/>
			<point x="224" y="53"/>
			<point x="224" y="-12" type="curve" smooth="yes"/>
			<point x="224" y="-58"/>
			<point x="190" y="-81"/>
			<point x="131" y="-81" type="curve" smooth="yes"/>
			<point x="7" y="-81" type="line"/>
		</contour>
	</outline>
</glyph>
<glyph name="hyphen_greater_greater.rem" format="2">
	<advance width="600"/>
	<outline>
		<contour>
			<point x="63" y="0" type="line"/>
			<point x="193" y="0" type="line"/>
			<point x="464" y="313" type="line"/>
			<point x="190" y="629" type="line"/>
			<point x="60" y="629" type="line"/>
			<point x="333" y="315" type="line"/>
		</contour>
		<contour>
			<point x="-1044" y="264" type="line"/>
			<point x="-105" y="264" type="line"/>
			<point x="-344" y="0" type="line"/>
			<point x="-214" y="0" type="line"/>
			<point x="62" y="314" type="line"/>
			<point x="-217" y="629" type="line"/>
			<point x="-348" y="629" type="line"/>
			<point x="-106" y="365" type="line"/>
			<point x="-1044" y="365" type="line"/>
		</contour>
	</outline>
</glyph>
<glyph name="hyphen_hyphen_greater.rem" format="2">
	<advance width="600"/>
	<outline>
		<contour>
			<point x="37" y="629" type="line"/>
			<point x="279" y="365" type="line"/>
			<point x="-1032" y="365" type="line"/>
			<point x="-1032" y="264" type="line"/>
			<point x="280" y="264" type="line"/>
			<point x="41" y="0" type="line"/>
			<point x="171" y="0" type="line"/>
			<point x="447" y="314" type="line"/>
			<point x="168" y="629" type="line"/>
		</contour>
	</outline>
</glyph>
<glyph name="hyphen_less_less.rem" format="2">
	<advance width="600"/>
	<outline>
		<contour>
			<point x="473" y="629" type="line"/>
			<point x="341" y="629" type="line"/>
			<point x="67" y="315" type="line"/>
			<point x="344" y="0" type="line"/>
			<point x="476" y="0" type="line"/>
			<point x="198" y="315" type="line"/>
		</contour>
		<contour>
			<point x="89" y="629" type="line"/>
			<point x="-42" y="629" type="line"/>
			<point x="-272" y="365" type="line"/>
			<point x="-1071" y="365" type="line"/>
			<point x="-1071" y="264" type="line"/>
			<point x="-270" y="264" type="line"/>
			<point x="-39" y="0" type="line"/>
			<point x="92" y="0" type="line"/>
			<point x="-182" y="315" type="line"/>
		</contour>
	</outline>
</glyph>
<glyph name="less_asciitilde.cLig" format="2">
	<advance width="600"/>
	<outline>
		<contour>
			<point x="-103" y="-1" type="line"/>
			<point x="-344" y="263" type="line"/>
			<point x="98" y="263" type="line"/>
			<point x="104" y="307"/>
			<point x="125" y="333"/>
			<point x="157" y="333" type="curve" smooth="yes"/>
			<point x="224" y="333"/>
			<point x="248" y="206"/>
			<point x="361" y="206" type="curve" smooth="yes"/>
			<point x="442" y="206"/>
			<point x="495" y="259"/>
			<point x="495" y="416" type="curve"/>
			<point x="406" y="416" type="line"/>
			<point x="406" y="340"/>
			<point x="390" y="308"/>
			<point x="350" y="308" type="curve"/>
			<point x="283" y="308"/>
			<point x="252" y="434"/>
			<point x="148" y="434" type="curve" smooth="yes"/>
			<point x="96" y="434"/>
			<point x="59" y="410"/>
			<point x="38" y="364" type="curve"/>
			<point x="-345" y="364" type="line"/>
			<point x="-106" y="628" type="line"/>
			<point x="-237" y="628" type="line"/>
			<point x="-512" y="314" type="line"/>
			<point x="-234" y="-1" type="line"/>
		</contour>
	</outline>
</glyph>
<glyph name="less_asciitilde_greater.cLig" format="2">
	<advance width="600"/>
	<outline>
		<contour>
			<point x="-819" y="0" type="line"/>
			<point x="-689" y="0" type="line"/>
			<point x="-928" y="264" type="line"/>
			<point x="-492" y="264" type="line"/>
			<point x="-490" y="311"/>
			<point x="-466" y="345"/>
			<point x="-424" y="345" type="curve" smooth="yes"/>
			<point x="-332" y="345"/>
			<point x="-308" y="183"/>
			<point x="-169" y="183" type="curve" smooth="yes"/>
			<point x="-112" y="183"/>
			<point x="-67" y="215"/>
			<point x="-46" y="264" type="curve"/>
			<point x="328" y="264" type="line"/>
			<point x="92" y="0" type="line"/>
			<point x="222" y="0" type="line"/>
			<point x="498" y="314" type="line"/>
			<point x="219" y="629" type="line"/>
			<point x="89" y="629" type="line"/>
			<point x="328" y="365" type="line"/>
			<point x="-108" y="365" type="line"/>
			<point x="-111" y="319"/>
			<point x="-132" y="285"/>
			<point x="-174" y="285" type="curve" smooth="yes"/>
			<point x="-261" y="285"/>
			<point x="-296" y="447"/>
			<point x="-429" y="447" type="curve" smooth="yes"/>
			<point x="-487" y="447"/>
			<point x="-533" y="415"/>
			<point x="-554" y="365" type="curve"/>
			<point x="-929" y="365" type="line"/>
			<point x="-692" y="629" type="line"/>
			<point x="-822" y="629" type="line"/>
			<point x="-1098" y="315" type="line"/>
		</contour>
	</outline>
</glyph>
<glyph name="less_bar_greater.cLig" format="2">
	<advance width="600"/>
	<outline>
		<contour>
			<point x="-352" y="-162" type="line"/>
			<point x="-248" y="-162" type="line"/>
			<point x="-248" y="792" type="line"/>
			<point x="-352" y="792" type="line"/>
		</contour>
		<contour>
			<point x="-513" y="-78" type="line"/>
			<point x="-513" y="40" type="line"/>
			<point x="-954" y="316" type="line"/>
			<point x="-513" y="587" type="line"/>
			<point x="-513" y="708" type="line"/>
			<point x="-1050" y="375" type="line"/>
			<point x="-1050" y="254" type="line"/>
		</contour>
		<contour>
			<point x="-86" y="-78" type="line"/>
			<point x="450" y="254" type="line"/>
			<point x="450" y="375" type="line"/>
			<point x="-86" y="708" type="line"/>
			<point x="-86" y="589" type="line"/>
			<point x="354" y="313" type="line"/>
			<point x="-86" y="43" type="line"/>
		</contour>
	</outline>
</glyph>
<glyph name="less_colon.cLig.x" format="2">
	<advance width="600"/>
	<outline>
		<contour>
			<point x="-8" y="-8" type="line"/>
			<point x="-8" y="104" type="line"/>
			<point x="-373" y="315" type="line"/>
			<point x="-8" y="526" type="line"/>
			<point x="-8" y="637" type="line"/>
			<point x="-454" y="375" type="line"/>
			<point x="-454" y="253" type="line"/>
		</contour>
		<contour>
			<point x="306" y="423" type="curve" smooth="yes"/>
			<point x="362" y="423"/>
			<point x="392" y="444"/>
			<point x="392" y="502" type="curve" smooth="yes"/>
			<point x="392" y="558"/>
			<point x="362" y="578"/>
			<point x="306" y="578" type="curve" smooth="yes"/>
			<point x="250" y="578"/>
			<point x="220" y="558"/>
			<point x="220" y="502" type="curve" smooth="yes"/>
			<point x="220" y="444"/>
			<point x="250" y="423"/>
		</contour>
		<contour>
			<point x="306" y="42" type="curve" smooth="yes"/>
			<point x="362" y="42"/>
			<point x="392" y="63"/>
			<point x="392" y="121" type="curve" smooth="yes"/>
			<point x="392" y="177"/>
			<point x="362" y="197"/>
			<point x="306" y="197" type="curve" smooth="yes"/>
			<point x="250" y="197"/>
			<point x="220" y="177"/>
			<point x="220" y="121" type="curve" smooth="yes"/>
			<point x="220" y="63"/>
			<point x="250" y="42"/>
		</contour>
	</outline>
</glyph>
<glyph name="less_dollar_greater.cLig" format="2">
	<advance width="600"/>
	<outline>
		<contour>
			<point x="-412" y="-93" type="line"/>
			<point x="-333" y="-93" type="line"/>
			<point x="-320" y="-11" type="line"/>
			<point x="-301" y="-11" type="line" smooth="yes"/>
			<point x="-150" y="-11"/>
			<point x="-51" y="64"/>
			<point x="-51" y="207" type="curve" smooth="yes"/>
			<point x="-51" y="339"/>
			<point x="-150" y="370"/>
			<point x="-263" y="390" type="curve"/>
			<point x="-229" y="600" type="line"/>
			<point x="-141" y="586"/>
			<point x="-60" y="543"/>
			<point x="59" y="487" type="curve" smooth="yes"/>
			<point x="411" y="315" type="line"/>
			<point x="72" y="147" type="line"/>
			<point x="72" y="38" type="line"/>
			<point x="496" y="253" type="line"/>
			<point x="496" y="375" type="line"/>
			<point x="103" y="573" type="line" smooth="yes"/>
			<point x="6" y="623"/>
			<point x="-100" y="671"/>
			<point x="-207" y="688" type="curve"/>
			<point x="-193" y="774" type="line"/>
			<point x="-271" y="774" type="line"/>
			<point x="-284" y="696" type="line"/>
			<point x="-292" y="696" type="line" smooth="yes"/>
			<point x="-445" y="696"/>
			<point x="-551" y="622"/>
			<point x="-551" y="484" type="curve" smooth="yes"/>
			<point x="-551" y="348"/>
			<point x="-459" y="316"/>
			<point x="-342" y="295" type="curve"/>
			<point x="-376" y="87" type="line"/>
			<point x="-455" y="98"/>
			<point x="-544" y="127"/>
			<point x="-642" y="167" type="curve" smooth="yes"/>
			<point x="-1004" y="319" type="line"/>
			<point x="-672" y="485" type="line"/>
			<point x="-672" y="594" type="line"/>
			<point x="-1096" y="378" type="line"/>
			<point x="-1096" y="255" type="line"/>
			<point x="-683" y="77" type="line" smooth="yes"/>
			<point x="-583" y="35"/>
			<point x="-488" y="8"/>
			<point x="-398" y="-4" type="curve"/>
		</contour>
		<contour>
			<point x="-441" y="496" type="curve" smooth="yes"/>
			<point x="-441" y="569"/>
			<point x="-379" y="605"/>
			<point x="-293" y="605" type="curve" smooth="yes"/>
			<point x="-292" y="605" type="line"/>
			<point x="-325" y="400" type="line"/>
			<point x="-394" y="413"/>
			<point x="-441" y="431"/>
		</contour>
		<contour>
			<point x="-163" y="191" type="curve" smooth="yes"/>
			<point x="-163" y="117"/>
			<point x="-215" y="82"/>
			<point x="-306" y="82" type="curve" smooth="yes"/>
			<point x="-312" y="82" type="line"/>
			<point x="-280" y="285" type="line"/>
			<point x="-209" y="273"/>
			<point x="-163" y="256"/>
		</contour>
	</outline>
</glyph>
<glyph name="less_equal_equal.rem" format="2">
	<advance width="600"/>
	<outline>
		<contour>
			<point x="432" y="471" type="line"/>
			<point x="-812" y="471" type="line"/>
			<point x="-676" y="629" type="line"/>
			<point x="-804" y="629" type="line"/>
			<point x="-1076" y="316" type="line"/>
			<point x="-801" y="0" type="line"/>
			<point x="-673" y="0" type="line"/>
			<point x="-811" y="158" type="line"/>
			<point x="432" y="158" type="line"/>
			<point x="432" y="254" type="line"/>
			<point x="-895" y="254" type="line"/>
			<point x="-948" y="314" type="line"/>
			<point x="-895" y="375" type="line"/>
			<point x="432" y="375" type="line"/>
		</contour>
	</outline>
</glyph>
<glyph name="less_equal_equal_greater.rem" format="2">
	<advance width="600"/>
	<outline>
		<contour>
			<point x="76" y="0" type="line"/>
			<point x="204" y="0" type="line"/>
			<point x="476" y="313" type="line"/>
			<point x="201" y="629" type="line"/>
			<point x="73" y="629" type="line"/>
			<point x="211" y="471" type="line"/>
			<point x="-1412" y="471" type="line"/>
			<point x="-1276" y="629" type="line"/>
			<point x="-1404" y="629" type="line"/>
			<point x="-1676" y="316" type="line"/>
			<point x="-1401" y="0" type="line"/>
			<point x="-1273" y="0" type="line"/>
			<point x="-1411" y="158" type="line"/>
			<point x="212" y="158" type="line"/>
		</contour>
		<contour>
			<point x="348" y="315" type="line"/>
			<point x="295" y="254" type="line"/>
			<point x="-1495" y="254" type="line"/>
			<point x="-1548" y="314" type="line"/>
			<point x="-1495" y="375" type="line"/>
			<point x="295" y="375" type="line"/>
		</contour>
	</outline>
</glyph>
<glyph name="less_equal_greater.rem" format="2">
	<advance width="600"/>
	<outline>
		<contour>
			<point x="-680" y="629" type="line"/>
			<point x="-809" y="629" type="line"/>
			<point x="-1080" y="316" type="line"/>
			<point x="-806" y="0" type="line"/>
			<point x="-677" y="0" type="line"/>
			<point x="-815" y="158" type="line"/>
			<point x="215" y="158" type="line"/>
			<point x="77" y="0" type="line"/>
			<point x="206" y="0" type="line"/>
			<point x="480" y="316" type="line"/>
			<point x="209" y="629" type="line"/>
			<point x="80" y="629" type="line"/>
			<point x="216" y="471" type="line"/>
			<point x="-817" y="471" type="line"/>
		</contour>
		<contour>
			<point x="-899" y="254" type="line"/>
			<point x="-952" y="314" type="line"/>
			<point x="-899" y="375" type="line"/>
			<point x="299" y="375" type="line"/>
			<point x="352" y="314" type="line"/>
			<point x="299" y="254" type="line"/>
		</contour>
	</outline>
</glyph>
<glyph name="less_exclam_hyphen_hyphen.cLig" format="2">
	<advance width="600"/>
	<outline>
		<contour>
			<point x="-1023" y="212" type="line"/>
			<point x="-943" y="212" type="line"/>
			<point x="-921" y="547" type="line"/>
			<point x="-921" y="684" type="line"/>
			<point x="-1044" y="684" type="line"/>
			<point x="-1044" y="548" type="line"/>
		</contour>
		<contour>
			<point x="-1258" y="0" type="line"/>
			<point x="-1499" y="264" type="line"/>
			<point x="-1145" y="264" type="line"/>
			<point x="-1145" y="365" type="line"/>
			<point x="-1500" y="365" type="line"/>
			<point x="-1261" y="629" type="line"/>
			<point x="-1392" y="629" type="line"/>
			<point x="-1667" y="315" type="line"/>
			<point x="-1389" y="0" type="line"/>
		</contour>
		<contour>
			<point x="432" y="364" type="line"/>
			<point x="-791" y="364" type="line"/>
			<point x="-791" y="263" type="line"/>
			<point x="432" y="263" type="line"/>
		</contour>
		<contour>
			<point x="-981" y="-12" type="curve" smooth="yes"/>
			<point x="-930" y="-12"/>
			<point x="-904" y="8"/>
			<point x="-904" y="58" type="curve" smooth="yes"/>
			<point x="-904" y="109"/>
			<point x="-930" y="129"/>
			<point x="-981" y="129" type="curve" smooth="yes"/>
			<point x="-1034" y="129"/>
			<point x="-1060" y="109"/>
			<point x="-1060" y="58" type="curve" smooth="yes"/>
			<point x="-1060" y="8"/>
			<point x="-1034" y="-12"/>
		</contour>
	</outline>
</glyph>
<glyph name="less_greater.cLig" format="2">
	<advance width="600"/>
	<outline>
		<contour>
			<point x="0" y="-83" type="line"/>
			<point x="452" y="253" type="line"/>
			<point x="452" y="375" type="line"/>
			<point x="0" y="708" type="line"/>
			<point x="-452" y="376" type="line"/>
			<point x="-452" y="253" type="line"/>
		</contour>
		<contour>
			<point x="0" y="589" type="line"/>
			<point x="374" y="314" type="line"/>
			<point x="0" y="36" type="line"/>
			<point x="-373" y="316" type="line"/>
		</contour>
	</outline>
</glyph>
<glyph name="less_hyphen.rem" format="2">
	<advance width="600"/>
	<outline>
		<contour>
			<point x="-37" y="0" type="line"/>
			<point x="-278" y="264" type="line"/>
			<point x="432" y="264" type="line"/>
			<point x="432" y="365" type="line"/>
			<point x="-279" y="365" type="line"/>
			<point x="-40" y="629" type="line"/>
			<point x="-171" y="629" type="line"/>
			<point x="-446" y="315" type="line"/>
			<point x="-168" y="0" type="line"/>
		</contour>
	</outline>
</glyph>
<glyph name="less_hyphen_greater.rem" format="2">
	<advance width="600"/>
	<outline>
		<contour>
			<point x="-666" y="0" type="line"/>
			<point x="-907" y="264" type="line"/>
			<point x="308" y="264" type="line"/>
			<point x="69" y="0" type="line"/>
			<point x="200" y="0" type="line"/>
			<point x="475" y="314" type="line"/>
			<point x="197" y="629" type="line"/>
			<point x="66" y="629" type="line"/>
			<point x="307" y="365" type="line"/>
			<point x="-908" y="365" type="line"/>
			<point x="-669" y="629" type="line"/>
			<point x="-800" y="629" type="line"/>
			<point x="-1075" y="315" type="line"/>
			<point x="-797" y="0" type="line"/>
		</contour>
	</outline>
</glyph>
<glyph name="less_less.cLig" format="2">
	<advance width="600"/>
	<outline>
		<contour>
			<point x="-61" y="29" type="line"/>
			<point x="-61" y="139" type="line"/>
			<point x="-428" y="299" type="line"/>
			<point x="-61" y="460" type="line"/>
			<point x="-61" y="569" type="line"/>
			<point x="-519" y="360" type="line"/>
			<point x="-519" y="238" type="line"/>
		</contour>
		<contour>
			<point x="509" y="29" type="line"/>
			<point x="509" y="139" type="line"/>
			<point x="142" y="299" type="line"/>
			<point x="509" y="460" type="line"/>
			<point x="509" y="569" type="line"/>
			<point x="51" y="360" type="line"/>
			<point x="51" y="238" type="line"/>
		</contour>
	</outline>
</glyph>
<glyph name="less_less_equal.init" format="2">
	<advance width="600"/>
	<outline>
		<contour>
			<point x="-79" y="629" type="line"/>
			<point x="-208" y="629" type="line"/>
			<point x="-482" y="315" type="line"/>
			<point x="-206" y="0" type="line"/>
			<point x="-76" y="0" type="line"/>
			<point x="-352" y="313" type="line"/>
		</contour>
		<contour>
			<point x="600" y="471" type="line"/>
			<point x="163" y="471" type="line"/>
			<point x="300" y="629" type="line"/>
			<point x="171" y="629" type="line"/>
			<point x="-101" y="316" type="line"/>
			<point x="174" y="0" type="line"/>
			<point x="303" y="0" type="line"/>
			<point x="164" y="158" type="line"/>
			<point x="600" y="158" type="line"/>
			<point x="600" y="254" type="line"/>
			<point x="80" y="254" type="line"/>
			<point x="27" y="314" type="line"/>
			<point x="80" y="375" type="line"/>
			<point x="600" y="375" type="line"/>
		</contour>
	</outline>
</glyph>
<glyph name="less_less_equal.med" format="2">
	<advance width="600"/>
	<outline>
		<contour>
			<point x="465" y="629" type="line"/>
			<point x="336" y="629" type="line"/>
			<point x="65" y="316" type="line"/>
			<point x="339" y="0" type="line"/>
			<point x="468" y="0" type="line"/>
			<point x="330" y="158" type="line"/>
			<point x="600" y="158" type="line"/>
			<point x="600" y="254" type="line"/>
			<point x="246" y="254" type="line"/>
			<point x="193" y="314" type="line"/>
			<point x="246" y="375" type="line"/>
			<point x="600" y="375" type="line"/>
			<point x="600" y="471" type="line"/>
			<point x="328" y="471" type="line"/>
		</contour>
		<contour>
			<point x="-131" y="254" type="line"/>
			<point x="-600" y="254" type="line"/>
			<point x="-600" y="158" type="line"/>
			<point x="-178" y="158" type="line"/>
			<point x="-44" y="0" type="line"/>
			<point x="86" y="0" type="line"/>
		</contour>
		<contour>
			<point x="83" y="629" type="line"/>
			<point x="-47" y="629" type="line"/>
			<point x="-179" y="471" type="line"/>
			<point x="-600" y="471" type="line"/>
			<point x="-600" y="375" type="line"/>
			<point x="-132" y="375" type="line"/>
		</contour>
	</outline>
</glyph>
<glyph name="less_less_equal.rem" format="2">
	<advance width="600"/>
	<outline>
		<contour>
			<point x="-664" y="629" type="line"/>
			<point x="-793" y="629" type="line"/>
			<point x="-1067" y="315" type="line"/>
			<point x="-791" y="0" type="line"/>
			<point x="-661" y="0" type="line"/>
			<point x="-937" y="313" type="line"/>
		</contour>
		<contour>
			<point x="432" y="471" type="line"/>
			<point x="-422" y="471" type="line"/>
			<point x="-285" y="629" type="line"/>
			<point x="-414" y="629" type="line"/>
			<point x="-686" y="316" type="line"/>
			<point x="-411" y="0" type="line"/>
			<point x="-282" y="0" type="line"/>
			<point x="-421" y="158" type="line"/>
			<point x="432" y="158" type="line"/>
			<point x="432" y="254" type="line"/>
			<point x="-505" y="254" type="line"/>
			<point x="-558" y="314" type="line"/>
			<point x="-505" y="375" type="line"/>
			<point x="432" y="375" type="line"/>
		</contour>
	</outline>
</glyph>
<glyph name="less_less_hyphen.fina" format="2">
	<advance width="600"/>
	<outline>
		<contour>
			<point x="512" y="629" type="line"/>
			<point x="380" y="629" type="line"/>
			<point x="106" y="315" type="line"/>
			<point x="383" y="0" type="line"/>
			<point x="515" y="0" type="line"/>
			<point x="237" y="315" type="line"/>
		</contour>
		<contour>
			<point x="128" y="629" type="line"/>
			<point x="-3" y="629" type="line"/>
			<point x="-233" y="365" type="line"/>
			<point x="-600" y="365" type="line"/>
			<point x="-600" y="264" type="line"/>
			<point x="-231" y="264" type="line"/>
			<point x="0" y="0" type="line"/>
			<point x="131" y="0" type="line"/>
			<point x="-143" y="315" type="line"/>
		</contour>
	</outline>
</glyph>
<glyph name="less_less_hyphen.rem" format="2">
	<advance width="600"/>
	<outline>
		<contour>
			<point x="-663" y="0" type="line"/>
			<point x="-793" y="0" type="line"/>
			<point x="-1064" y="313" type="line"/>
			<point x="-790" y="629" type="line"/>
			<point x="-660" y="629" type="line"/>
			<point x="-933" y="315" type="line"/>
		</contour>
		<contour>
			<point x="444" y="264" type="line"/>
			<point x="-495" y="264" type="line"/>
			<point x="-256" y="0" type="line"/>
			<point x="-386" y="0" type="line"/>
			<point x="-662" y="314" type="line"/>
			<point x="-383" y="629" type="line"/>
			<point x="-252" y="629" type="line"/>
			<point x="-494" y="365" type="line"/>
			<point x="444" y="365" type="line"/>
		</contour>
	</outline>
</glyph>
<glyph name="less_question.cLig" format="2">
	<advance width="600"/>
	<outline>
		<contour>
			<point x="-76" y="486" type="line" smooth="yes"/>
			<point x="85" y="569"/>
			<point x="177" y="600"/>
			<point x="251" y="600" type="curve"/>
			<point x="326" y="600"/>
			<point x="362" y="569"/>
			<point x="362" y="519" type="curve" smooth="yes"/>
			<point x="362" y="411"/>
			<point x="177" y="405"/>
			<point x="177" y="252" type="curve" smooth="yes"/>
			<point x="177" y="239"/>
			<point x="179" y="226"/>
			<point x="182" y="212" type="curve"/>
			<point x="281" y="212" type="line"/>
			<point x="281" y="249" type="line" smooth="yes"/>
			<point x="283" y="359"/>
			<point x="475" y="378"/>
			<point x="475" y="534" type="curve" smooth="yes"/>
			<point x="475" y="631"/>
			<point x="403" y="698"/>
			<point x="264" y="698" type="curve"/>
			<point x="154" y="698"/>
			<point x="46" y="657"/>
			<point x="-97" y="583" type="curve" smooth="yes"/>
			<point x="-496" y="375" type="line"/>
			<point x="-496" y="253" type="line"/>
			<point x="-51" y="19" type="line"/>
			<point x="-51" y="129" type="line"/>
			<point x="-412" y="314" type="line"/>
		</contour>
		<contour>
			<point x="232" y="-12" type="curve" smooth="yes"/>
			<point x="284" y="-12"/>
			<point x="310" y="8"/>
			<point x="310" y="59" type="curve" smooth="yes"/>
			<point x="310" y="109"/>
			<point x="284" y="130"/>
			<point x="232" y="130" type="curve" smooth="yes"/>
			<point x="179" y="130"/>
			<point x="152" y="109"/>
			<point x="152" y="59" type="curve" smooth="yes"/>
			<point x="152" y="8"/>
			<point x="179" y="-12"/>
		</contour>
	</outline>
</glyph>
<glyph name="less_slash_greater.cLig" format="2">
	<advance width="600"/>
	<outline>
		<contour>
			<point x="9" y="41" type="line"/>
			<point x="455" y="253" type="line"/>
			<point x="455" y="376" type="line"/>
			<point x="-116" y="654" type="line"/>
			<point x="-63" y="792" type="line"/>
			<point x="-173" y="792" type="line"/>
			<point x="-449" y="66" type="line"/>
			<point x="-963" y="315" type="line"/>
			<point x="-609" y="478" type="line"/>
			<point x="-609" y="588" type="line"/>
			<point x="-1055" y="375" type="line"/>
			<point x="-1055" y="253" type="line"/>
			<point x="-484" y="-25" type="line"/>
			<point x="-537" y="-163" type="line"/>
			<point x="-428" y="-163" type="line"/>
			<point x="-150" y="563" type="line"/>
			<point x="362" y="314" type="line"/>
			<point x="9" y="151" type="line"/>
		</contour>
	</outline>
</glyph>
<glyph name="minus.den" format="2">
	<advance width="600"/>
	<outline>
		<contour>
			<point x="146" y="221" type="line"/>
			<point x="146" y="158" type="line"/>
			<point x="454" y="158" type="line"/>
			<point x="454" y="221" type="line"/>
		</contour>
	</outline>
</glyph>
<glyph name="nine.den" format="2">
	<advance width="600"/>
	<outline>
		<contour>
			<point x="275" y="-8" type="curve" smooth="yes"/>
			<point x="421" y="-8"/>
			<point x="459" y="97"/>
			<point x="459" y="222" type="curve" smooth="yes"/>
			<point x="459" y="340"/>
			<point x="425" y="418"/>
			<point x="298" y="418" type="curve" smooth="yes"/>
			<point x="198" y="418"/>
			<point x="142" y="353"/>
			<point x="142" y="268" type="curve" smooth="yes"/>
			<point x="142" y="195"/>
			<point x="181" y="141"/>
			<point x="265" y="141" type="curve" smooth="yes"/>
			<point x="318" y="141"/>
			<point x="357" y="165"/>
			<point x="377" y="215" type="curve"/>
			<point x="376" y="108"/>
			<point x="352" y="55"/>
			<point x="265" y="55" type="curve" smooth="yes"/>
			<point x="228" y="55"/>
			<point x="181" y="71"/>
			<point x="152" y="94" type="curve"/>
			<point x="152" y="24" type="line"/>
			<point x="178" y="7"/>
			<point x="229" y="-8"/>
		</contour>
		<contour>
			<point x="297" y="196" type="curve" smooth="yes"/>
			<point x="247" y="196"/>
			<point x="221" y="221"/>
			<point x="221" y="273" type="curve" smooth="yes"/>
			<point x="221" y="330"/>
			<point x="251" y="359"/>
			<point x="298" y="359" type="curve" smooth="yes"/>
			<point x="350" y="359"/>
			<point x="377" y="325"/>
			<point x="377" y="273" type="curve" smooth="yes"/>
			<point x="377" y="221"/>
			<point x="343" y="196"/>
		</contour>
	</outline>
</glyph>
<glyph name="numbersign.init" format="2">
	<advance width="600"/>
	<outline>
		<contour>
			<point x="36" y="249" type="line"/>
			<point x="36" y="163" type="line"/>
			<point x="136" y="163" type="line"/>
			<point x="120" y="0" type="line"/>
			<point x="210" y="0" type="line"/>
			<point x="225" y="163" type="line"/>
			<point x="354" y="163" type="line"/>
			<point x="338" y="0" type="line"/>
			<point x="426" y="0" type="line"/>
			<point x="442" y="163" type="line"/>
			<point x="600" y="163" type="line"/>
			<point x="600" y="249" type="line"/>
			<point x="450" y="249" type="line"/>
			<point x="469" y="444" type="line"/>
			<point x="600" y="444" type="line"/>
			<point x="600" y="531" type="line"/>
			<point x="477" y="531" type="line"/>
			<point x="492" y="684" type="line"/>
			<point x="403" y="684" type="line"/>
			<point x="388" y="531" type="line"/>
			<point x="260" y="531" type="line"/>
			<point x="274" y="684" type="line"/>
			<point x="186" y="684" type="line"/>
			<point x="171" y="531" type="line"/>
			<point x="61" y="531" type="line"/>
			<point x="61" y="444" type="line"/>
			<point x="163" y="444" type="line"/>
			<point x="144" y="249" type="line"/>
		</contour>
		<contour>
			<point x="233" y="249" type="line"/>
			<point x="251" y="444" type="line"/>
			<point x="380" y="444" type="line"/>
			<point x="362" y="249" type="line"/>
		</contour>
	</outline>
</glyph>
<glyph name="numbersign_braceleft.cLig" format="2">
	<advance width="600"/>
	<outline>
		<contour>
			<point x="344" y="-163" type="curve" smooth="yes"/>
			<point x="501" y="-163" type="line"/>
			<point x="501" y="-81" type="line"/>
			<point x="380" y="-81" type="line" smooth="yes"/>
			<point x="320" y="-81"/>
			<point x="287" y="-56"/>
			<point x="287" y="-8" type="curve" smooth="yes"/>
			<point x="287" y="59"/>
			<point x="390" y="114"/>
			<point x="390" y="202" type="curve" smooth="yes"/>
			<point x="390" y="258"/>
			<point x="338" y="302"/>
			<point x="267" y="314" type="curve"/>
			<point x="338" y="325"/>
			<point x="390" y="369"/>
			<point x="390" y="424" type="curve" smooth="yes"/>
			<point x="390" y="513"/>
			<point x="287" y="569"/>
			<point x="287" y="638" type="curve" smooth="yes"/>
			<point x="287" y="688"/>
			<point x="322" y="710"/>
			<point x="377" y="710" type="curve" smooth="yes"/>
			<point x="501" y="710" type="line"/>
			<point x="501" y="792" type="line"/>
			<point x="344" y="792" type="line" smooth="yes"/>
			<point x="234" y="792"/>
			<point x="174" y="728"/>
			<point x="174" y="652" type="curve" smooth="yes"/>
			<point x="174" y="557"/>
			<point x="277" y="496"/>
			<point x="277" y="428" type="curve" smooth="yes"/>
			<point x="277" y="399"/>
			<point x="256" y="362"/>
			<point x="190" y="362" type="curve" smooth="yes"/>
			<point x="139" y="362" type="line"/>
			<point x="139" y="265" type="line"/>
			<point x="190" y="265" type="line" smooth="yes"/>
			<point x="255" y="265"/>
			<point x="277" y="228"/>
			<point x="277" y="198" type="curve" smooth="yes"/>
			<point x="277" y="132"/>
			<point x="174" y="71"/>
			<point x="174" y="-23" type="curve" smooth="yes"/>
			<point x="174" y="-100"/>
			<point x="230" y="-163"/>
		</contour>
		<contour>
			<point x="-508" y="249" type="line"/>
			<point x="-508" y="163" type="line"/>
			<point x="-409" y="163" type="line"/>
			<point x="-424" y="0" type="line"/>
			<point x="-334" y="0" type="line"/>
			<point x="-319" y="163" type="line"/>
			<point x="-191" y="163" type="line"/>
			<point x="-206" y="0" type="line"/>
			<point x="-118" y="0" type="line"/>
			<point x="-103" y="163" type="line"/>
			<point x="56" y="163" type="line"/>
			<point x="56" y="249" type="line"/>
			<point x="-94" y="249" type="line"/>
			<point x="-76" y="444" type="line"/>
			<point x="56" y="444" type="line"/>
			<point x="56" y="531" type="line"/>
			<point x="-67" y="531" type="line"/>
			<point x="-53" y="684" type="line"/>
			<point x="-142" y="684" type="line"/>
			<point x="-156" y="531" type="line"/>
			<point x="-285" y="531" type="line"/>
			<point x="-270" y="684" type="line"/>
			<point x="-359" y="684" type="line"/>
			<point x="-373" y="531" type="line"/>
			<point x="-483" y="531" type="line"/>
			<point x="-483" y="444" type="line"/>
			<point x="-382" y="444" type="line"/>
			<point x="-400" y="249" type="line"/>
		</contour>
		<contour>
			<point x="-311" y="249" type="line"/>
			<point x="-293" y="444" type="line"/>
			<point x="-164" y="444" type="line"/>
			<point x="-182" y="249" type="line"/>
		</contour>
	</outline>
</glyph>
